<?xml version="1.0" encoding="UTF-8" standalone="no"?>
<svg width="2098.77px" height="2977.23px" viewBox="0 0 2098.77 2977.23"
 xmlns="http://www.w3.org/2000/svg" xmlns:xlink="http://www.w3.org/1999/xlink" version="1.2" baseProfile="tiny">
<title>05. Kyrie (stacked) (6)</title>
<desc>Generated by MuseScore 3.6.2</desc>
<polyline class="StaffLines" fill="none" stroke="#000000" stroke-width="3.59" stroke-linejoin="bevel" points="14.1732,52.8575 1569.76,52.8575"/>
<polyline class="StaffLines" fill="none" stroke="#000000" stroke-width="3.59" stroke-linejoin="bevel" points="14.1732,80.4953 1569.76,80.4953"/>
<polyline class="StaffLines" fill="none" stroke="#000000" stroke-width="3.59" stroke-linejoin="bevel" points="14.1732,108.133 1569.76,108.133"/>
<polyline class="StaffLines" fill="none" stroke="#000000" stroke-width="3.59" stroke-linejoin="bevel" points="14.1732,135.771 1569.76,135.771"/>
<polyline class="StaffLines" fill="none" stroke="#000000" stroke-width="3.59" stroke-linejoin="bevel" points="14.1732,163.409 1569.76,163.409"/>
<polyline class="BarLine" fill="none" stroke="#000000" stroke-width="4.42" stroke-linejoin="bevel" points="599.556,51.0611 599.556,165.205"/>
<polyline class="BarLine" fill="none" stroke="#000000" stroke-width="4.42" stroke-linejoin="bevel" points="1182.81,51.0611 1182.81,165.205"/>
<polyline class="BarLine" fill="none" stroke="#000000" stroke-width="4.42" stroke-linejoin="bevel" points="1542.68,51.0611 1542.68,165.205"/>
<polyline class="BarLine" fill="none" stroke="#000000" stroke-width="13.82" stroke-linejoin="bevel" points="1562.85,51.0611 1562.85,165.205"/>
<polyline class="Stem" fill="none" stroke="#000000" stroke-width="3.32" stroke-linejoin="bevel" points="181.209,98.0287 181.209,191.046"/>
<polyline class="Stem" fill="none" stroke="#000000" stroke-width="3.32" stroke-linejoin="bevel" points="438.313,111.848 438.313,204.865"/>
<polyline class="Stem" fill="none" stroke="#000000" stroke-width="3.32" stroke-linejoin="bevel" points="683.961,98.0287 683.961,191.046"/>
<polyline class="Stem" fill="none" stroke="#000000" stroke-width="3.32" stroke-linejoin="bevel" points="908.665,118.237 908.665,25.2197"/>
<polyline class="Stem" fill="none" stroke="#000000" stroke-width="3.32" stroke-linejoin="bevel" points="1274.27,132.056 1274.27,39.0386"/>
<path class="Note" transform="matrix(1.10551,0,0,1.10551,179.551,94.3142)" d="M10.7969,14 C29.2031,14 32.9063,-1 32.9063,-4.59375 C32.9063,-10.2969 28.4063,-14 21.9063,-14 C5.20313,-14 0,-1.09375 0,4.70313 C0,10.5938 4.70313,14 10.7969,14 M3.29688,4.90625 C3.29688,-0.5 19.4063,-9.40625 24.7031,-9.40625 C26.7969,-9.40625 28,-8.40625 28.7969,-7 C29.1094,-6.40625 29.4063,-5.70313 29.4063,-4.90625 C29.4063,-2.70313 27.1094,0 19.2969,5.09375 C14.2969,8.5 10.7969,9.70313 8.40625,9.70313 C6.09375,9.70313 4.70313,8.5 4,7.09375 C3.59375,6.5 3.29688,5.70313 3.29688,4.90625"/>
<path class="Note" transform="matrix(1.10551,0,0,1.10551,436.655,108.133)" d="M0,4.70313 C0,10.5 4.79688,14 10.7969,14 C20.7031,14 32.9063,4.79688 32.9063,-4.70313 C32.9063,-10.2969 28.4063,-14 22,-14 C9.79688,-14 0,-4.90625 0,4.70313"/>
<path class="Note" transform="matrix(1.10551,0,0,1.10551,682.302,94.3142)" d="M0,4.70313 C0,10.5 4.79688,14 10.7969,14 C20.7031,14 32.9063,4.79688 32.9063,-4.70313 C32.9063,-10.2969 28.4063,-14 22,-14 C9.79688,-14 0,-4.90625 0,4.70313"/>
<path class="Note" transform="matrix(1.10551,0,0,1.10551,873.954,121.952)" d="M10.7969,14 C29.2031,14 32.9063,-1 32.9063,-4.59375 C32.9063,-10.2969 28.4063,-14 21.9063,-14 C5.20313,-14 0,-1.09375 0,4.70313 C0,10.5938 4.70313,14 10.7969,14 M3.29688,4.90625 C3.29688,-0.5 19.4063,-9.40625 24.7031,-9.40625 C26.7969,-9.40625 28,-8.40625 28.7969,-7 C29.1094,-6.40625 29.4063,-5.70313 29.4063,-4.90625 C29.4063,-2.70313 27.1094,0 19.2969,5.09375 C14.2969,8.5 10.7969,9.70313 8.40625,9.70313 C6.09375,9.70313 4.70313,8.5 4,7.09375 C3.59375,6.5 3.29688,5.70313 3.29688,4.90625"/>
<path class="Note" transform="matrix(1.10551,0,0,1.10551,1239.55,135.771)" d="M10.7969,14 C29.2031,14 32.9063,-1 32.9063,-4.59375 C32.9063,-10.2969 28.4063,-14 21.9063,-14 C5.20313,-14 0,-1.09375 0,4.70313 C0,10.5938 4.70313,14 10.7969,14 M3.29688,4.90625 C3.29688,-0.5 19.4063,-9.40625 24.7031,-9.40625 C26.7969,-9.40625 28,-8.40625 28.7969,-7 C29.1094,-6.40625 29.4063,-5.70313 29.4063,-4.90625 C29.4063,-2.70313 27.1094,0 19.2969,5.09375 C14.2969,8.5 10.7969,9.70313 8.40625,9.70313 C6.09375,9.70313 4.70313,8.5 4,7.09375 C3.59375,6.5 3.29688,5.70313 3.29688,4.90625"/>
<path class="Clef" transform="matrix(1.10551,0,0,1.10551,36.2835,135.771)" d="M36.4063,25.2031 C38.7031,25.2031 41.2969,25 43.2969,24.5938 C44.4063,24.4063 44.6094,24.2969 44.7969,25.5 C46,32.2031 47.5,40.9063 47.5,45.6094 C47.5,60.4063 37.5,62.2031 31.6094,62.2031 C26.2031,62.2031 23.5938,60.6094 23.5938,59.2969 C23.5938,58.6094 24.5,58.2969 26.7969,57.6094 C29.9063,56.7031 33.5,54 33.5,48.2031 C33.5,42.7031 30,38 23.9063,38 C17.2031,38 13.2031,43.2969 13.2031,49.5 C13.2031,56 17.0938,65.7969 32.2031,65.7969 C38.9063,65.7969 51.9063,62.7969 51.9063,45.7969 C51.9063,40.1094 50.1094,30.6094 49,24.4063 C48.7969,23.2031 48.9063,23.2969 50.2969,22.7031 C60.4063,18.7031 67.1094,10.2031 67.1094,-1.09375 C67.1094,-13.9063 57.7031,-25.2031 43,-25.2031 C40.4063,-25.2031 40.4063,-25.2031 40.1094,-27 L37.6094,-41.5 C37.4063,-42.7031 37.6094,-42.7969 38.2031,-43.4063 C49,-53.5 57.2031,-66.2031 57.2031,-81.5 C57.2031,-90.2031 54.7969,-98.8125 50.7031,-104.813 C49.2031,-107 46.6094,-109.813 45.5,-109.813 C44.1094,-109.813 41,-107.203 39,-105 C31.6094,-96.8125 29.2031,-84.3125 29.2031,-73.9063 C29.2031,-68.1094 29.9063,-61.6094 30.6094,-57.5 C30.7969,-56.2969 30.9063,-56.1094 29.7031,-55.1094 C15.2969,-43.2031 0,-28.9063 0,-8.70313 C0,8.70313 11.9063,25.2031 36.4063,25.2031 M8,-2 C8,-7.90625 9,-15.7969 17.2969,-25.2031 C23.2969,-31.9063 27.9063,-35.6094 32.6094,-39.4063 C33.6094,-40.2031 33.7969,-40.1094 34,-39 L36.1094,-26.2031 C36.4063,-24.2969 36.4063,-24.4063 34.6094,-23.7969 C25.7969,-20.7969 20.0938,-12.9063 20.0938,-4.40625 C20.0938,4.59375 24.7969,11 31.6094,13.2969 C32.4063,13.5938 33.6094,13.9063 34.2969,13.9063 C35.1094,13.9063 35.5,13.4063 35.5,12.7969 C35.5,12.0938 34.7031,11.7969 34,11.5 C29.7969,9.70313 26.7969,5.40625 26.7969,0.796875 C26.7969,-4.90625 30.7031,-9.20313 36.7969,-10.9063 C38.4063,-11.2969 38.6094,-11.2031 38.7969,-10.0938 L43.7969,19.7031 C44,20.7969 43.9063,20.7969 42.4063,21.0938 C40.7969,21.4063 38.7969,21.5938 36.7969,21.5938 C19.2969,21.5938 8,11.9063 8,-2 M47,-94.3125 C50.2969,-94.3125 53,-91.6094 53,-86.1094 C53,-75 43.5,-66 35.6094,-59.1094 C34.9063,-58.5 34.5,-58.6094 34.2969,-59.9063 C33.9063,-62.5 33.7031,-65.9063 33.7031,-69.1094 C33.7031,-84.7031 40.9063,-94.3125 47,-94.3125 M44.1094,-11.7031 C52.2031,-11 58.9063,-4.20313 58.9063,4.59375 C58.9063,10.9063 55.1094,16 49.5,18.7969 C48.2969,19.4063 48.1094,19.4063 47.9063,18.2031 L43,-10.2969 C42.7969,-11.5 42.9063,-11.7969 44.1094,-11.7031"/>
<path class="Lyrics" d="M146.798,287.193 C147.642,286.62 149.158,286.214 151.345,285.974 C153.043,285.891 154.053,285.745 154.376,285.536 C154.595,285.37 154.757,285.167 154.861,284.927 C155.267,283.927 155.569,281.224 155.767,276.818 C156.007,271.057 156.397,263.396 156.939,253.833 C157.366,246.542 157.579,241.99 157.579,240.177 L157.579,239.13 C155.642,238.724 152.564,238.292 148.345,237.833 C148.074,237.427 147.939,237.115 147.939,236.896 C147.939,236.76 148.033,236.516 148.22,236.161 C148.678,236.005 149.033,235.927 149.283,235.927 C149.491,235.927 149.96,235.979 150.689,236.083 C152.012,236.271 153.835,236.365 156.158,236.365 C156.918,236.365 158.215,236.302 160.048,236.177 C161.35,236.083 162.085,236.036 162.251,236.036 C162.678,236.036 163.178,236.12 163.751,236.286 C164.012,236.557 164.21,236.812 164.345,237.052 L166.048,240.865 L177.517,266.224 L182.267,276.896 C186.017,269.469 188.934,262.865 191.017,257.083 C191.152,256.646 191.314,256.25 191.501,255.896 C191.751,255.437 191.983,254.924 192.197,254.357 C192.41,253.789 193.288,251.63 194.829,247.88 C195.454,246.37 195.954,245.073 196.329,243.99 C197.871,239.667 198.777,237.193 199.048,236.568 C199.559,236.349 200.001,236.24 200.376,236.24 C200.814,236.24 201.371,236.281 202.048,236.365 C203.559,236.448 206.017,236.49 209.423,236.49 C211.527,236.49 213.257,236.464 214.611,236.411 C214.663,236.703 214.689,236.917 214.689,237.052 C214.689,237.24 214.647,237.5 214.564,237.833 C213.699,238.292 212.658,238.547 211.439,238.599 C209.043,238.734 207.52,238.922 206.869,239.161 C206.217,239.401 205.803,239.711 205.626,240.091 C205.449,240.471 205.293,241.714 205.158,243.818 L205.204,245.693 L205.158,247.63 C205.158,251.682 205.267,258.49 205.486,268.052 L205.439,276.005 L205.486,281.115 C205.486,283.115 205.579,284.297 205.767,284.661 C205.954,285.026 206.496,285.37 207.392,285.693 C208.85,286.172 211.225,286.672 214.517,287.193 C214.715,287.328 214.814,287.5 214.814,287.708 C214.814,287.958 214.798,288.229 214.767,288.521 L212.908,288.521 C211.314,288.521 209.585,288.474 207.72,288.38 C205.855,288.286 204.855,288.24 204.72,288.24 C199.178,288.24 195.501,288.302 193.689,288.427 C192.585,288.521 191.882,288.568 191.579,288.568 C191.392,288.568 191.194,288.516 190.986,288.411 L190.986,287.88 C190.986,287.63 191.022,287.375 191.095,287.115 C191.991,286.729 193.21,286.469 194.751,286.333 C196.449,285.875 197.689,285.391 198.47,284.88 C198.72,283.849 198.845,281.75 198.845,278.583 L198.72,270.396 C198.72,269.5 198.767,267.836 198.861,265.404 C198.954,262.971 199.001,259.01 199.001,253.521 C199.001,249.167 198.892,245.865 198.673,243.615 C198.215,244.562 197.314,246.62 195.97,249.786 L195.361,251.318 L195.267,251.568 L189.283,265.755 L187.126,271.224 L184.329,277.865 C183.111,280.917 182.069,283.62 181.204,285.974 C180.829,287.057 180.522,287.906 180.283,288.521 L179.345,288.49 C176.293,279.573 172.652,270.427 168.423,261.052 C164.194,251.677 161.23,245.49 159.533,242.49 C159.314,243.646 159.069,247.021 158.798,252.615 C158.444,259.427 158.267,266.927 158.267,275.115 C158.267,277.667 158.46,280.547 158.845,283.755 C158.949,284.672 159.34,285.352 160.017,285.794 C160.694,286.237 162.434,286.484 165.236,286.536 C166.319,286.536 167.35,286.62 168.329,286.786 C168.517,287.203 168.611,287.505 168.611,287.693 C168.611,287.839 168.543,288.078 168.408,288.411 L155.798,287.958 C154.882,287.958 153.449,288.021 151.501,288.146 C150.418,288.208 148.866,288.255 146.845,288.286 L146.798,287.193 M248.189,282.646 C248.345,283 248.423,283.26 248.423,283.427 C248.423,283.823 248.1,284.536 247.454,285.568 C246.621,286.922 245.689,287.906 244.658,288.521 C244.012,288.927 243.121,289.13 241.986,289.13 C240.038,289.13 238.579,288.536 237.611,287.349 C237.017,286.651 236.595,285.396 236.345,283.583 L231.814,286.74 C230.22,287.656 229.001,288.24 228.158,288.49 C226.814,288.833 225.194,289.005 223.298,289.005 C221.923,289.005 220.837,288.594 220.04,287.771 C219.244,286.948 218.845,285.891 218.845,284.599 C218.845,282.734 219.986,280.505 222.267,277.911 C224.548,275.318 227.647,273.198 231.564,271.552 C234.324,270.385 236.017,269.641 236.642,269.318 C236.694,268.422 236.72,267.448 236.72,266.396 C236.72,262.969 236.241,260.646 235.283,259.427 C234.324,258.208 232.949,257.599 231.158,257.599 C229.293,257.599 227.553,258.328 225.939,259.786 C224.939,260.714 224.184,262.443 223.673,264.974 C223.507,265.682 223.194,266.443 222.736,267.255 C221.569,268.005 220.637,268.38 219.939,268.38 C219.345,268.38 218.803,268.208 218.314,267.865 C218.043,267.667 217.908,267.448 217.908,267.208 C217.908,266.51 218.658,264.924 220.158,262.451 C221.658,259.977 223.548,258.125 225.829,256.896 C228.111,255.667 230.105,255.052 231.814,255.052 C234.137,255.052 235.866,255.26 237.001,255.677 C238.137,256.094 239.137,256.831 240.001,257.888 C240.866,258.945 241.392,260.094 241.579,261.333 C241.684,261.927 241.736,264.047 241.736,267.693 L241.626,274.146 L241.658,278.833 C241.658,279.458 241.647,279.99 241.626,280.427 C241.595,281.208 241.579,281.786 241.579,282.161 C241.579,283.057 241.835,283.776 242.345,284.318 C242.866,284.849 243.475,285.115 244.173,285.115 C245.204,285.115 246.085,284.604 246.814,283.583 L247.298,282.927 C247.434,282.854 247.73,282.76 248.189,282.646 M236.267,281.474 C236.454,278.047 236.548,275.63 236.548,274.224 C236.548,273.495 236.512,272.505 236.439,271.255 C234.626,271.911 232.707,272.901 230.681,274.224 C228.655,275.547 227.048,277.073 225.861,278.802 C224.996,280.042 224.564,281.214 224.564,282.318 C224.564,283.38 224.921,284.263 225.634,284.966 C226.348,285.669 227.246,286.021 228.329,286.021 C229.163,286.021 230.173,285.719 231.361,285.115 C232.934,284.333 234.569,283.12 236.267,281.474"/>
<path class="Lyrics" d="M178.908,350.083 C178.855,349.865 178.783,349.714 178.689,349.63 C178.595,349.547 178.48,349.505 178.345,349.505 C176.939,349.505 174.746,351.724 171.767,356.161 C171.475,356.182 171.262,356.193 171.126,356.193 C170.96,356.193 170.689,356.182 170.314,356.161 C170.887,355.026 171.814,353.594 173.095,351.865 C174.376,350.135 175.738,348.695 177.181,347.544 C178.624,346.393 179.996,345.536 181.298,344.974 C181.725,344.786 182.116,344.693 182.47,344.693 C182.605,344.693 182.809,344.703 183.079,344.724 C183.569,345.214 183.814,345.714 183.814,346.224 C183.814,346.547 183.78,346.87 183.712,347.193 C183.645,347.516 183.501,348.016 183.283,348.693 C182.47,351.016 181.876,352.651 181.501,353.599 L179.189,359.599 C178.647,360.974 178.121,362.432 177.611,363.974 C177.829,363.703 178.017,363.448 178.173,363.208 C180.684,359.531 183.392,356.01 186.298,352.646 C189.204,349.281 191.605,347.031 193.501,345.896 C194.845,345.062 196.126,344.646 197.345,344.646 C198.262,344.646 198.978,344.896 199.494,345.396 C200.009,345.896 200.267,346.536 200.267,347.318 C200.267,347.807 200.21,348.281 200.095,348.74 C199.908,349.771 199.491,351.203 198.845,353.036 C198.199,354.87 196.496,358.854 193.736,364.99 L189.689,374.349 L189.533,374.88 C189.533,375.036 189.626,375.281 189.814,375.615 C191.324,375.281 193.59,372.875 196.611,368.396 L198.283,368.427 C197.439,369.948 196.059,371.896 194.142,374.271 C192.663,376.083 191.069,377.49 189.361,378.49 C188.413,379.052 187.402,379.333 186.329,379.333 C185.673,379.333 185.184,379.198 184.861,378.927 C184.538,378.656 184.376,378.359 184.376,378.036 C184.376,376.609 185.064,374.396 186.439,371.396 L192.314,358.552 L194.595,353.161 C195.105,351.974 195.415,351.148 195.525,350.685 C195.634,350.221 195.689,349.76 195.689,349.302 C195.689,348.958 195.592,348.685 195.4,348.482 C195.207,348.279 194.965,348.177 194.673,348.177 C194.236,348.177 193.736,348.349 193.173,348.693 C191.173,349.88 188.97,351.922 186.564,354.818 C183.105,358.974 180.809,361.958 179.673,363.771 C176.84,368.26 174.371,372.839 172.267,377.505 C171.934,378.266 171.538,378.823 171.079,379.177 C170.517,379.26 170.085,379.302 169.783,379.302 C169.439,379.302 168.902,379.234 168.173,379.099 C168.059,378.88 168.001,378.703 168.001,378.568 C168.001,378.349 168.137,377.865 168.408,377.115 C169.001,375.354 170.46,371.651 172.783,366.005 L173.72,363.818 L178.908,350.083 M214.845,348.177 C212.73,348.74 210.309,350.521 207.579,353.521 L205.392,353.927 C207.038,351.49 209.199,349.414 211.876,347.701 C214.553,345.987 216.73,345.13 218.408,345.13 C218.897,345.13 219.296,345.286 219.603,345.599 C219.91,345.911 220.064,346.312 220.064,346.802 C220.064,347.094 220.03,347.388 219.962,347.685 C219.895,347.982 219.522,349.062 218.845,350.927 C218.439,351.99 216.809,355.354 213.954,361.021 L208.064,371.802 C207.585,372.76 207.283,373.443 207.158,373.849 C207.033,374.255 206.97,374.76 206.97,375.365 C207.137,375.552 207.314,375.646 207.501,375.646 C208.397,375.646 209.355,375.172 210.376,374.224 C213.053,371.828 214.85,369.833 215.767,368.24 C216.257,368.24 216.783,368.276 217.345,368.349 C216.595,369.755 215.444,371.385 213.892,373.24 C212.34,375.094 210.73,376.505 209.064,377.474 C207.397,378.443 205.986,378.927 204.829,378.927 C204.1,378.927 203.512,378.732 203.064,378.341 C202.616,377.951 202.392,377.526 202.392,377.068 C202.392,374.797 203.934,370.865 207.017,365.271 C210.715,358.625 213.012,354.385 213.908,352.552 C214.314,351.687 214.626,351.062 214.845,350.677 C215.22,350.062 215.408,349.62 215.408,349.349 C215.408,349.099 215.22,348.708 214.845,348.177 M215.486,339.943 L214.751,339.865 C214.814,339.729 215.973,338.073 218.228,334.896 C220.483,331.719 221.757,329.969 222.048,329.646 C222.777,328.812 223.538,328.177 224.329,327.74 C224.861,327.469 225.423,327.333 226.017,327.333 C226.694,327.333 227.23,327.518 227.626,327.888 C228.022,328.258 228.22,328.698 228.22,329.208 C228.22,330.375 227.111,331.729 224.892,333.271 L215.486,339.943 "/>
<path class="Lyrics" d="M161.111,417.224 L161.111,417.021 C161.111,416.76 161.22,416.396 161.439,415.927 C164.387,415.406 167.522,414.609 170.845,413.536 C171.033,413.505 171.329,413.49 171.736,413.49 C171.871,413.927 171.939,414.208 171.939,414.333 L171.939,426.411 L171.892,430.271 L171.939,434.568 L171.861,438.052 C171.861,438.187 171.887,438.646 171.939,439.427 L175.251,438.177 C175.605,438.062 176.767,437.708 178.736,437.115 C181.257,436.708 182.72,436.505 183.126,436.505 C185.824,436.505 188.251,436.937 190.408,437.802 C191.741,438.344 193.056,439.242 194.353,440.497 C195.65,441.753 196.605,443.083 197.22,444.49 C198.303,447.062 198.845,449.281 198.845,451.146 C198.845,454.083 198.658,456.12 198.283,457.255 C197.355,459.964 196.23,462.102 194.908,463.669 C193.585,465.237 191.736,466.573 189.361,467.677 C186.986,468.781 184.46,469.333 181.783,469.333 C179.324,469.333 177.001,468.875 174.814,467.958 C172.626,467.042 171.397,466.583 171.126,466.583 C170.283,466.583 169.215,467.693 167.923,469.911 L166.751,469.865 C166.637,468.052 166.579,465.823 166.579,463.177 L166.673,457.13 L166.626,454.052 L166.704,445.224 L166.626,443.521 L166.783,439.349 L166.783,435.786 L166.829,434.318 C166.829,434.026 166.814,432.854 166.783,430.802 L166.783,428.365 C166.866,423.667 166.663,420.953 166.173,420.224 C165.392,419.057 163.704,418.057 161.111,417.224 M180.361,467.115 C184.465,467.115 187.592,465.958 189.744,463.646 C191.895,461.333 192.97,457.896 192.97,453.333 C192.97,449.146 191.754,445.755 189.322,443.161 C186.889,440.568 183.892,439.271 180.329,439.271 C177.736,439.271 175.559,439.687 173.798,440.521 C172.746,441.031 172.16,441.503 172.04,441.935 C171.921,442.367 171.861,445.26 171.861,450.615 C171.861,456.958 171.991,460.672 172.251,461.755 C172.72,463.432 173.559,464.635 174.767,465.365 C176.684,466.531 178.548,467.115 180.361,467.115 M233.829,446.755 L217.579,446.88 L214.501,446.88 C213.262,446.88 211.991,446.937 210.689,447.052 C210.449,447.854 210.329,448.406 210.329,448.708 L210.361,449.115 L210.361,449.521 L210.329,451.505 C210.329,453.151 210.85,455.169 211.892,457.56 C212.934,459.951 214.421,461.773 216.353,463.029 C218.285,464.284 220.694,464.953 223.579,465.036 C225.121,464.953 226.35,464.763 227.267,464.466 C228.184,464.169 229.48,463.484 231.158,462.411 L234.079,460.021 L234.314,461.63 C234.314,461.828 234.303,462.031 234.283,462.24 C233.064,463.781 231.522,465.133 229.658,466.294 C227.793,467.456 225.902,468.307 223.986,468.849 C223.069,469.089 221.553,469.208 219.439,469.208 C217.522,469.208 215.632,468.818 213.767,468.036 C211.017,466.849 208.85,464.937 207.267,462.302 C205.684,459.667 204.892,456.474 204.892,452.724 C204.892,451.536 205.116,450.01 205.564,448.146 C206.012,446.281 206.814,444.292 207.97,442.177 C208.762,440.75 209.725,439.578 210.861,438.661 C212.475,437.359 213.892,436.453 215.111,435.943 C216.871,435.214 218.913,434.849 221.236,434.849 C223.746,434.849 225.798,435.307 227.392,436.224 C229.548,437.443 231.16,439.01 232.228,440.927 C233.296,442.844 233.829,444.599 233.829,446.193 L233.829,446.755 M211.22,445.302 L213.126,445.302 C214.501,445.302 218.605,445.089 225.439,444.661 C226.522,444.599 227.184,444.49 227.423,444.333 C227.913,443.823 228.158,443.365 228.158,442.958 C228.158,442.115 227.887,441.159 227.345,440.091 C226.803,439.023 225.973,438.201 224.853,437.622 C223.733,437.044 222.428,436.755 220.939,436.755 C217.814,436.755 215.303,437.927 213.408,440.271 C211.949,442.062 211.22,443.74 211.22,445.302 M229.533,415.318 C225.866,421.818 223.288,426.234 221.798,428.568 L219.486,428.568 C219.194,428.13 218.116,426.328 216.251,423.161 L211.751,415.349 L211.908,414.302 C212.668,415.031 215.178,417.505 219.439,421.724 C219.908,422.151 220.449,422.635 221.064,423.177 C221.741,422.417 224.527,419.406 229.423,414.146 C229.496,414.385 229.533,414.599 229.533,414.786 L229.533,415.318 "/>
<path class="Lyrics" d="M432.496,288.286 L432.34,287.755 C432.34,287.568 432.459,287.286 432.699,286.911 L435.09,286.411 L438.465,285.818 C438.735,285.682 438.923,285.49 439.027,285.24 C439.194,284.896 439.277,283.859 439.277,282.13 C439.277,272.943 439.222,267.638 439.113,266.216 C439.004,264.794 438.759,263.896 438.379,263.521 C437.998,263.146 437.027,262.849 435.465,262.63 C434.548,262.495 433.819,262.318 433.277,262.099 L433.433,260.88 C436.267,259.724 438.173,258.724 439.152,257.88 C440.496,256.672 441.642,255.078 442.59,253.099 L443.965,253.146 C444.131,254.5 444.215,257.5 444.215,262.146 L444.168,262.833 C444.168,262.99 444.199,263.245 444.261,263.599 C445.282,261.734 446.564,260.021 448.105,258.458 L449.043,257.521 C449.418,257.094 449.782,256.755 450.136,256.505 C452.022,255.37 453.423,254.802 454.34,254.802 C455.537,254.802 456.514,255.201 457.269,255.997 C458.024,256.794 458.402,257.776 458.402,258.943 C458.402,259.859 458.131,260.573 457.59,261.083 C456.86,261.76 456.022,262.099 455.074,262.099 C454.647,262.099 453.798,261.87 452.527,261.411 C451.256,260.953 450.418,260.724 450.011,260.724 C449.251,260.724 448.725,260.844 448.433,261.083 C447.673,261.677 446.751,262.896 445.668,264.74 C444.834,266.115 444.418,267.385 444.418,268.552 L444.621,275.255 L444.699,283.286 C444.782,284.214 444.892,284.812 445.027,285.083 C445.131,285.271 445.402,285.5 445.84,285.771 C448.756,286.01 450.485,286.187 451.027,286.302 C451.402,286.323 451.683,286.349 451.871,286.38 C453.037,286.401 453.85,286.562 454.308,286.865 C454.548,287 454.668,287.203 454.668,287.474 C454.668,287.63 454.558,287.844 454.34,288.115 L449.84,288.036 L448.152,288.005 L445.668,288.036 L441.543,288.036 L439.308,288.161 L432.496,288.286 M464.59,238.349 C464.59,237.464 464.936,236.695 465.629,236.044 C466.321,235.393 467.152,235.068 468.121,235.068 C469.121,235.068 469.998,235.432 470.754,236.161 C471.509,236.891 471.886,237.677 471.886,238.521 C471.886,239.354 471.509,240.143 470.754,240.888 C469.998,241.633 469.121,242.005 468.121,242.005 C467.121,242.005 466.282,241.667 465.605,240.99 C464.928,240.312 464.59,239.432 464.59,238.349 M461.183,259.349 L461.23,258.177 C462.991,257.656 463.939,257.359 464.074,257.286 C465.043,256.849 466.061,256.185 467.129,255.294 C468.196,254.404 469.095,253.406 469.824,252.302 C470.147,252.24 470.402,252.208 470.59,252.208 L471.074,252.255 C471.189,253.547 471.246,254.49 471.246,255.083 C471.246,255.219 471.22,255.828 471.168,256.911 L471.168,259.068 L471.199,270.74 L471.074,283.099 C471.053,284.099 471.217,284.794 471.566,285.185 C471.915,285.576 472.954,286.016 474.683,286.505 C475.767,286.797 476.579,287.052 477.121,287.271 C477.204,287.458 477.246,287.62 477.246,287.755 C477.246,287.922 477.178,288.125 477.043,288.365 C475.98,288.333 474.626,288.266 472.98,288.161 C470.741,287.974 469.256,287.88 468.527,287.88 C468.173,287.88 466.011,287.948 462.043,288.083 C461.23,288.104 460.444,288.172 459.683,288.286 C459.558,288.286 459.345,288.245 459.043,288.161 C458.907,287.974 458.84,287.812 458.84,287.677 C458.84,287.302 459.095,287.005 459.605,286.786 C459.72,286.734 461.1,286.422 463.746,285.849 C464.61,285.693 465.178,285.422 465.449,285.036 C465.907,284.474 466.136,283.568 466.136,282.318 C466.189,280.245 466.215,274.547 466.215,265.224 C466.215,263.359 466.136,262.198 465.98,261.74 C465.845,261.417 465.485,261.044 464.902,260.622 C464.319,260.201 463.079,259.776 461.183,259.349"/>
<path class="Lyrics" d="M450.808,353.88 L446.433,354.052 C443.735,354.052 440.673,352.891 437.246,350.568 C435.381,349.297 433.678,348.661 432.136,348.661 C430.616,348.661 429.358,349.146 428.363,350.115 C427.368,351.083 426.871,352.26 426.871,353.646 C426.871,354.396 427.1,355.219 427.558,356.115 L428.074,356.161 C428.324,355.943 428.501,355.672 428.605,355.349 C428.845,354.557 429.189,353.987 429.636,353.638 C430.084,353.289 430.605,353.115 431.199,353.115 C431.845,353.115 432.399,353.378 432.863,353.904 C433.327,354.43 433.61,355.328 433.715,356.599 C433.444,357.495 432.957,358.193 432.254,358.693 C431.551,359.193 430.741,359.443 429.824,359.443 C428.636,359.443 427.603,358.948 426.722,357.958 C425.842,356.969 425.402,355.667 425.402,354.052 C425.402,351.781 426.436,349.701 428.504,347.81 C430.571,345.919 432.985,344.974 435.746,344.974 C438.256,344.974 440.923,346.055 443.746,348.216 C446.569,350.378 448.285,351.607 448.894,351.904 C449.504,352.201 449.996,352.349 450.371,352.349 C450.86,352.349 451.334,352.146 451.793,351.74 L452.105,351.005 C452.439,348.984 452.793,347.755 453.168,347.318 C453.678,346.724 454.314,346.427 455.074,346.427 C455.751,346.427 456.345,346.664 456.855,347.138 C457.366,347.612 457.621,348.13 457.621,348.693 C457.621,349.661 457.366,350.51 456.855,351.24 C456.147,352.271 454.689,353.693 452.48,355.505 C451.855,356.036 450.704,357.141 449.027,358.818 C448.006,359.849 446.912,360.891 445.746,361.943 L441.527,365.474 C438.965,368.016 436.199,370.516 433.23,372.974 C433.553,373.161 433.793,373.297 433.949,373.38 C436.282,374.599 437.569,375.302 437.808,375.49 C438.371,376 439.051,376.958 439.847,378.365 C440.644,379.771 441.449,381.865 442.261,384.646 L444.293,391.536 C444.532,392.182 444.939,393.089 445.511,394.255 C445.886,394.714 446.235,395.187 446.558,395.677 C447.746,397.052 449.397,397.74 451.511,397.74 C453.022,397.74 454.058,397.547 454.621,397.161 C455.027,396.922 455.23,396.589 455.23,396.161 C455.23,395.943 455.178,395.656 455.074,395.302 C454.886,395.146 454.428,394.945 453.699,394.701 C452.97,394.456 452.522,394.224 452.355,394.005 C452.032,393.547 451.871,393.073 451.871,392.583 C451.871,391.969 452.142,391.417 452.683,390.927 C453.225,390.437 453.886,390.193 454.668,390.193 C454.907,390.193 455.189,390.26 455.511,390.396 C456.105,390.583 456.618,390.995 457.051,391.63 C457.483,392.266 457.699,393.083 457.699,394.083 C457.699,395.625 457.147,396.87 456.043,397.818 C454.939,398.766 453.183,399.24 450.777,399.24 C448.829,399.24 447.412,399.062 446.527,398.708 C445.09,398.115 443.735,397.148 442.465,395.81 C441.194,394.471 440.126,392.896 439.261,391.083 C438.918,390.354 438.293,388.391 437.386,385.193 C436.48,381.995 435.876,380.016 435.574,379.255 C434.824,377.495 434.017,376.224 433.152,375.443 C432.662,375.016 432.105,374.802 431.48,374.802 C430.918,374.802 430.11,375.339 429.058,376.411 C427.485,378.036 426.037,378.849 424.715,378.849 C424.069,378.849 423.488,378.594 422.972,378.083 C422.457,377.573 422.199,376.979 422.199,376.302 C422.199,375.437 422.686,374.612 423.66,373.826 C424.634,373.039 426.105,372.646 428.074,372.646 C429.209,372.646 429.912,372.594 430.183,372.49 C430.996,372.135 432.511,370.974 434.73,369.005 L446.715,358.177 C447.881,357.208 449.246,355.776 450.808,353.88 M483.105,348.818 C483.376,348.359 483.548,347.995 483.621,347.724 C483.954,346.911 484.282,346.385 484.605,346.146 C485.355,346.062 485.907,346.021 486.261,346.021 C486.72,346.021 487.168,346.115 487.605,346.302 L487.715,346.802 C487.715,346.958 487.647,347.198 487.511,347.521 C487.439,347.687 487.267,348.203 486.996,349.068 L486.668,349.88 L483.996,357.13 C482.86,360.401 481.866,363.008 481.011,364.951 C480.157,366.893 479.42,368.872 478.801,370.888 C478.181,372.904 477.616,374.344 477.105,375.208 L476.933,375.599 C476.933,375.755 477.084,375.958 477.386,376.208 C478.605,375.542 479.631,374.812 480.465,374.021 C482.631,372 483.912,370.745 484.308,370.255 C484.61,369.901 484.897,369.578 485.168,369.286 C485.491,369.557 485.787,369.839 486.058,370.13 C485.298,371.193 484.027,372.628 482.246,374.435 C480.465,376.242 478.86,377.526 477.433,378.286 C476.319,378.849 475.277,379.13 474.308,379.13 C473.683,379.13 473.217,378.997 472.91,378.732 C472.603,378.466 472.449,378.125 472.449,377.708 C472.449,377.333 472.579,376.635 472.84,375.615 C473.517,373.823 473.991,372.643 474.261,372.076 C474.532,371.508 474.897,370.63 475.355,369.443 C475.626,368.714 476.183,367.448 477.027,365.646 C476.506,366.156 475.871,366.911 475.121,367.911 C472.933,370.661 470.418,373.266 467.574,375.724 C466.928,376.297 465.36,377.203 462.871,378.443 C461.954,378.797 460.876,379.026 459.636,379.13 C458.584,379.109 457.881,379.005 457.527,378.818 C456.881,378.464 456.355,377.906 455.949,377.146 C455.647,376.583 455.496,375.708 455.496,374.521 C455.496,372.792 455.876,370.87 456.636,368.755 C457.928,365.161 459.241,362.5 460.574,360.771 C462.834,357.771 465.079,355.393 467.308,353.638 C469.537,351.883 471.584,350.599 473.449,349.786 C475.907,348.714 478.043,348.177 479.855,348.177 C480.449,348.177 481.017,348.229 481.558,348.333 C482.1,348.437 482.616,348.599 483.105,348.818 M463.808,375.411 C464.454,375.245 465.022,375.016 465.511,374.724 C465.814,374.557 466.866,373.812 468.668,372.49 C471.97,369.167 473.834,367.26 474.261,366.771 C475.209,365.719 476.277,364.276 477.465,362.443 C477.787,361.984 478.475,360.714 479.527,358.63 L480.59,355.833 C480.965,354.187 481.152,353.24 481.152,352.99 C481.152,352.24 480.845,351.526 480.23,350.849 C479.824,350.443 479.157,350.24 478.23,350.24 C477.178,350.24 476.277,350.417 475.527,350.771 C473.819,351.573 472.261,352.599 470.855,353.849 C468.97,355.547 467.149,357.727 465.394,360.388 C463.639,363.049 462.397,365.271 461.668,367.052 C460.668,369.51 460.168,371.349 460.168,372.568 C460.168,373.568 460.368,374.31 460.769,374.794 C461.17,375.279 461.683,375.521 462.308,375.521 C462.527,375.521 463.027,375.484 463.808,375.411"/>
<path class="Lyrics" d="M427.215,457.865 C428.215,460.437 428.97,462.099 429.48,462.849 C430.511,464.391 431.743,465.586 433.176,466.435 C434.608,467.284 436.162,467.708 437.84,467.708 C439.381,467.708 440.907,467.047 442.418,465.724 C443.501,464.724 444.043,463.562 444.043,462.24 C444.043,460.49 443.407,458.87 442.136,457.38 C440.866,455.922 438.454,454.523 434.902,453.185 C431.35,451.846 428.965,450.422 427.746,448.911 C426.527,447.401 425.918,445.672 425.918,443.724 C425.918,441.891 426.418,440.271 427.418,438.865 C428.418,437.458 429.795,436.396 431.551,435.677 C433.306,434.958 434.928,434.599 436.418,434.599 C438.334,434.599 440.056,434.747 441.582,435.044 C443.108,435.341 444.423,435.802 445.527,436.427 C445.746,437.802 445.923,439.828 446.058,442.505 L446.136,443.802 C445.793,443.833 445.496,443.849 445.246,443.849 L444.683,443.849 C443.871,441.599 442.634,439.82 440.972,438.513 C439.311,437.206 437.673,436.552 436.058,436.552 C434.433,436.552 433.121,437.044 432.121,438.029 C431.121,439.013 430.621,440.302 430.621,441.896 C430.621,443.115 431.027,444.198 431.84,445.146 C432.652,446.094 434.551,447.172 437.535,448.38 C440.519,449.589 442.694,450.714 444.058,451.755 C445.423,452.797 446.428,454.06 447.074,455.544 C447.72,457.029 448.043,458.448 448.043,459.802 C448.043,461.667 447.428,463.411 446.199,465.036 C444.97,466.661 443.431,467.805 441.582,468.466 C439.733,469.128 438.079,469.458 436.621,469.458 C433.183,469.458 430.022,468.823 427.136,467.552 C426.866,467.333 426.715,466.927 426.683,466.333 C426.683,466.094 426.657,465.703 426.605,465.161 C426.178,461.516 425.965,459.354 425.965,458.677 C425.965,458.354 426.032,458.138 426.168,458.029 C426.303,457.919 426.652,457.865 427.215,457.865 M483.433,446.755 L467.183,446.88 L464.105,446.88 C462.866,446.88 461.595,446.937 460.293,447.052 C460.053,447.854 459.933,448.406 459.933,448.708 L459.965,449.115 L459.965,449.521 L459.933,451.505 C459.933,453.151 460.454,455.169 461.496,457.56 C462.537,459.951 464.024,461.773 465.957,463.029 C467.889,464.284 470.298,464.953 473.183,465.036 C474.725,464.953 475.954,464.763 476.871,464.466 C477.787,464.169 479.084,463.484 480.761,462.411 L483.683,460.021 L483.918,461.63 C483.918,461.828 483.907,462.031 483.886,462.24 C482.668,463.781 481.126,465.133 479.261,466.294 C477.397,467.456 475.506,468.307 473.59,468.849 C472.673,469.089 471.157,469.208 469.043,469.208 C467.126,469.208 465.235,468.818 463.371,468.036 C460.621,466.849 458.454,464.937 456.871,462.302 C455.287,459.667 454.496,456.474 454.496,452.724 C454.496,451.536 454.72,450.01 455.168,448.146 C455.616,446.281 456.418,444.292 457.574,442.177 C458.366,440.75 459.329,439.578 460.465,438.661 C462.079,437.359 463.496,436.453 464.715,435.943 C466.475,435.214 468.517,434.849 470.84,434.849 C473.35,434.849 475.402,435.307 476.996,436.224 C479.152,437.443 480.764,439.01 481.832,440.927 C482.899,442.844 483.433,444.599 483.433,446.193 L483.433,446.755 M460.824,445.302 L462.73,445.302 C464.105,445.302 468.209,445.089 475.043,444.661 C476.126,444.599 476.787,444.49 477.027,444.333 C477.517,443.823 477.761,443.365 477.761,442.958 C477.761,442.115 477.491,441.159 476.949,440.091 C476.407,439.023 475.577,438.201 474.457,437.622 C473.337,437.044 472.032,436.755 470.543,436.755 C467.418,436.755 464.907,437.927 463.011,440.271 C461.553,442.062 460.824,443.74 460.824,445.302"/>
<path class="Lyrics" d="M715.44,282.646 C715.597,283 715.675,283.26 715.675,283.427 C715.675,283.823 715.352,284.536 714.706,285.568 C713.873,286.922 712.94,287.906 711.909,288.521 C711.263,288.927 710.373,289.13 709.237,289.13 C707.289,289.13 705.831,288.536 704.862,287.349 C704.268,286.651 703.847,285.396 703.597,283.583 L699.065,286.74 C697.472,287.656 696.253,288.24 695.409,288.49 C694.065,288.833 692.446,289.005 690.55,289.005 C689.175,289.005 688.089,288.594 687.292,287.771 C686.495,286.948 686.097,285.891 686.097,284.599 C686.097,282.734 687.237,280.505 689.518,277.911 C691.8,275.318 694.899,273.198 698.815,271.552 C701.576,270.385 703.268,269.641 703.893,269.318 C703.946,268.422 703.972,267.448 703.972,266.396 C703.972,262.969 703.492,260.646 702.534,259.427 C701.576,258.208 700.201,257.599 698.409,257.599 C696.545,257.599 694.805,258.328 693.19,259.786 C692.19,260.714 691.435,262.443 690.925,264.974 C690.758,265.682 690.446,266.443 689.987,267.255 C688.821,268.005 687.888,268.38 687.19,268.38 C686.597,268.38 686.055,268.208 685.565,267.865 C685.295,267.667 685.159,267.448 685.159,267.208 C685.159,266.51 685.909,264.924 687.409,262.451 C688.909,259.977 690.8,258.125 693.081,256.896 C695.362,255.667 697.357,255.052 699.065,255.052 C701.388,255.052 703.117,255.26 704.253,255.677 C705.388,256.094 706.388,256.831 707.253,257.888 C708.117,258.945 708.643,260.094 708.831,261.333 C708.935,261.927 708.987,264.047 708.987,267.693 L708.878,274.146 L708.909,278.833 C708.909,279.458 708.899,279.99 708.878,280.427 C708.847,281.208 708.831,281.786 708.831,282.161 C708.831,283.057 709.086,283.776 709.597,284.318 C710.117,284.849 710.727,285.115 711.425,285.115 C712.456,285.115 713.336,284.604 714.065,283.583 L714.55,282.927 C714.685,282.854 714.982,282.76 715.44,282.646 M703.518,281.474 C703.706,278.047 703.8,275.63 703.8,274.224 C703.8,273.495 703.763,272.505 703.69,271.255 C701.878,271.911 699.959,272.901 697.933,274.224 C695.906,275.547 694.3,277.073 693.112,278.802 C692.248,280.042 691.815,281.214 691.815,282.318 C691.815,283.38 692.172,284.263 692.886,284.966 C693.599,285.669 694.498,286.021 695.581,286.021 C696.414,286.021 697.425,285.719 698.612,285.115 C700.185,284.333 701.821,283.12 703.518,281.474"/>
<path class="Lyrics" d="M678.847,352.224 C678.44,351.901 678.128,351.604 677.909,351.333 C677.774,351.146 677.518,350.625 677.143,349.771 C676.768,348.917 676.482,348.396 676.284,348.208 C675.961,347.917 675.628,347.771 675.284,347.771 C674.336,347.771 673.321,348.349 672.237,349.505 C670.237,351.641 668.216,355.161 666.175,360.068 C664.133,364.974 663.112,369.047 663.112,372.286 C663.112,373.505 663.289,374.354 663.643,374.833 C663.914,375.187 664.305,375.365 664.815,375.365 C665.878,375.365 667.039,374.797 668.3,373.661 C670.008,372.151 671.737,370.042 673.487,367.333 C674.008,367.229 674.404,367.177 674.675,367.177 L675.284,367.224 C675.17,367.703 674.409,368.984 673.003,371.068 C670.982,374.036 669.12,376.109 667.417,377.286 C665.714,378.464 664.149,379.052 662.722,379.052 C661.472,379.052 660.508,378.609 659.831,377.724 C658.946,376.557 658.503,374.719 658.503,372.208 C658.503,370.052 659.024,367.422 660.065,364.318 C661.107,361.214 662.641,358.219 664.667,355.333 C666.693,352.448 668.347,350.378 669.628,349.122 C670.909,347.867 672.482,346.792 674.347,345.896 C675.617,345.281 676.805,344.974 677.909,344.974 C679.045,344.974 680.052,345.466 680.933,346.451 C681.813,347.435 682.253,348.589 682.253,349.911 C682.253,350.724 682.042,351.354 681.62,351.802 C681.198,352.25 680.706,352.474 680.143,352.474 C679.789,352.474 679.357,352.391 678.847,352.224 M694.097,325.833 L694.268,324.99 C698.946,324.479 701.768,324.224 702.737,324.224 C703.029,324.224 703.461,324.234 704.034,324.255 L703.831,325.036 L702.737,327.755 L700.347,334.521 C699.972,335.552 699.446,337.151 698.768,339.318 C697.518,343.318 696.211,346.919 694.847,350.122 C693.482,353.326 692.206,356.807 691.018,360.568 C691.456,360.026 692.013,359.271 692.69,358.302 C696.524,352.844 699.737,349.115 702.331,347.115 C704.091,345.76 705.821,345.083 707.518,345.083 C708.893,345.083 710.076,345.667 711.065,346.833 C712.055,348 712.55,349.781 712.55,352.177 C712.55,355.26 711.779,358.904 710.237,363.107 C708.696,367.31 706.87,370.721 704.761,373.341 C702.651,375.961 700.847,377.648 699.347,378.404 C697.847,379.159 696.492,379.536 695.284,379.536 C694.232,379.536 693.435,379.255 692.893,378.693 C692.081,377.849 691.675,376.984 691.675,376.099 C691.675,375.693 691.891,375.307 692.323,374.943 C692.755,374.578 693.321,374.396 694.018,374.396 C694.56,374.396 694.992,374.51 695.315,374.74 C695.638,374.969 696.138,375.583 696.815,376.583 C697.274,377.01 697.654,377.224 697.956,377.224 C698.466,377.224 699.17,376.646 700.065,375.49 C701.815,373.167 703.784,368.75 705.972,362.24 C707.732,357.073 708.612,353.167 708.612,350.521 C708.612,349.062 708.409,348.076 708.003,347.56 C707.597,347.044 707.045,346.786 706.347,346.786 C705.961,346.786 705.529,346.911 705.05,347.161 C703.591,347.891 702.011,349.146 700.308,350.927 C698.604,352.708 695.914,356.151 692.237,361.255 C691.425,362.391 690.081,364.971 688.206,368.997 C686.331,373.023 685.055,375.859 684.378,377.505 C684.024,378.37 683.685,378.924 683.362,379.169 C683.039,379.414 682.607,379.536 682.065,379.536 C681.472,379.536 681.047,379.43 680.792,379.216 C680.537,379.003 680.409,378.693 680.409,378.286 C680.409,377.828 680.623,377.083 681.05,376.052 L683.972,368.802 C684.138,368.448 684.289,368.094 684.425,367.74 L695.893,335.005 L697.55,330.302 C697.977,329.104 698.19,328.286 698.19,327.849 C698.19,327.516 698.11,327.26 697.948,327.083 C697.787,326.906 697.477,326.776 697.018,326.693 C695.935,326.484 694.961,326.198 694.097,325.833 M741.956,355.146 C741.956,361.406 740.058,366.969 736.261,371.833 C732.464,376.698 728.524,379.13 724.44,379.13 C722.253,379.13 720.485,378.312 719.136,376.677 C717.787,375.042 717.112,372.484 717.112,369.005 C717.112,366.651 717.638,363.94 718.69,360.872 C719.742,357.805 721.107,355.26 722.784,353.24 C723.159,352.781 723.591,352.224 724.081,351.568 C725.508,349.714 727.209,348.151 729.183,346.88 C731.156,345.609 733.17,344.974 735.222,344.974 C737.117,344.974 738.714,345.763 740.011,347.341 C741.308,348.919 741.956,351.521 741.956,355.146 M720.878,373.583 C720.878,374.823 721.167,375.74 721.745,376.333 C722.323,376.927 723.263,377.224 724.565,377.224 C725.836,377.224 727.117,376.604 728.409,375.365 C730.732,373.094 733.058,369.19 735.386,363.654 C737.714,358.117 738.878,353.755 738.878,350.568 C738.878,349.432 738.594,348.534 738.026,347.872 C737.459,347.211 736.81,346.88 736.081,346.88 C734.487,346.88 732.826,347.812 731.097,349.677 C728.149,352.802 725.607,357.125 723.472,362.646 C721.742,367.125 720.878,370.771 720.878,373.583"/>
<path class="Lyrics" d="M673.565,438.74 L673.612,437.568 L673.565,432.818 L673.612,423.865 C673.612,421.375 673.341,419.794 672.8,419.122 C672.258,418.451 670.68,417.76 668.065,417.052 C667.878,417 667.581,416.922 667.175,416.818 L667.175,416.365 C667.175,416.094 667.201,415.797 667.253,415.474 C670.93,415.099 674.091,414.464 676.737,413.568 L678.8,413.536 C678.904,415.37 678.956,417.422 678.956,419.693 L678.8,435.286 L679.081,452.88 L678.956,462.24 C678.956,464.156 679.091,465.24 679.362,465.49 C679.904,466.031 681.097,466.312 682.94,466.333 C683.315,466.333 683.826,466.359 684.472,466.411 L684.472,467.146 C684.472,467.333 684.461,467.536 684.44,467.755 C683.597,467.943 682.732,468.12 681.847,468.286 L675.956,469.411 C675.091,469.578 674.404,469.661 673.893,469.661 L673.893,465.771 C673.435,465.906 672.722,466.177 671.753,466.583 C667.534,468.365 663.654,469.255 660.112,469.255 C657.977,469.255 655.802,468.56 653.589,467.169 C651.375,465.779 649.675,463.841 648.487,461.357 C647.3,458.872 646.706,456.333 646.706,453.74 C646.706,451.417 647.097,449.193 647.878,447.068 C648.659,444.943 649.685,443.177 650.956,441.771 C651.768,440.854 652.917,439.943 654.401,439.036 C655.886,438.13 657.117,437.557 658.097,437.318 C660.492,436.693 662.097,436.38 662.909,436.38 C666.555,436.38 669.555,436.922 671.909,438.005 C672.638,438.359 673.19,438.604 673.565,438.74 M673.612,463.786 C673.716,461.974 673.768,458.245 673.768,452.599 C673.768,447.818 673.547,444.799 673.104,443.544 C672.662,442.289 671.547,441.099 669.761,439.974 C667.974,438.849 665.977,438.286 663.768,438.286 C660.654,438.286 658.016,439.49 655.854,441.896 C653.693,444.302 652.612,447.854 652.612,452.552 C652.612,456.687 653.781,459.984 656.12,462.443 C658.459,464.901 661.373,466.13 664.862,466.13 C666.862,466.13 668.685,465.862 670.331,465.326 C671.977,464.789 673.071,464.276 673.612,463.786 M688.94,451.865 C688.94,450.031 689.326,448.068 690.097,445.974 C690.867,443.88 692.037,442.003 693.604,440.341 C695.172,438.68 696.836,437.443 698.597,436.63 C701.055,435.495 704.05,434.927 707.581,434.927 C712.643,434.927 716.87,436.656 720.261,440.115 C723.651,443.573 725.347,447.734 725.347,452.599 C725.347,456.922 723.568,460.779 720.011,464.169 C716.453,467.56 711.961,469.255 706.534,469.255 C703.18,469.255 700.018,468.375 697.05,466.615 C694.831,465.292 692.925,463.333 691.331,460.74 C689.737,458.146 688.94,455.187 688.94,451.865 M706.862,467.677 C708.914,467.677 710.893,467.122 712.8,466.013 C714.706,464.904 716.227,463.128 717.362,460.685 C718.498,458.242 719.065,455.411 719.065,452.193 C719.065,450.089 718.625,447.643 717.745,444.857 C716.865,442.07 715.513,439.982 713.69,438.591 C711.867,437.201 709.727,436.505 707.268,436.505 C705.487,436.505 703.67,436.924 701.815,437.763 C699.961,438.602 698.393,440.211 697.112,442.591 C695.831,444.971 695.19,448.349 695.19,452.724 C695.19,457.641 696.305,461.362 698.534,463.888 C700.763,466.414 703.539,467.677 706.862,467.677 M733.862,457.865 C734.862,460.437 735.617,462.099 736.128,462.849 C737.159,464.391 738.391,465.586 739.823,466.435 C741.255,467.284 742.81,467.708 744.487,467.708 C746.029,467.708 747.555,467.047 749.065,465.724 C750.149,464.724 750.69,463.562 750.69,462.24 C750.69,460.49 750.055,458.87 748.784,457.38 C747.513,455.922 745.102,454.523 741.55,453.185 C737.998,451.846 735.612,450.422 734.393,448.911 C733.175,447.401 732.565,445.672 732.565,443.724 C732.565,441.891 733.065,440.271 734.065,438.865 C735.065,437.458 736.443,436.396 738.198,435.677 C739.953,434.958 741.576,434.599 743.065,434.599 C744.982,434.599 746.703,434.747 748.229,435.044 C749.755,435.341 751.071,435.802 752.175,436.427 C752.393,437.802 752.571,439.828 752.706,442.505 L752.784,443.802 C752.44,443.833 752.143,443.849 751.893,443.849 L751.331,443.849 C750.518,441.599 749.281,439.82 747.62,438.513 C745.959,437.206 744.321,436.552 742.706,436.552 C741.081,436.552 739.768,437.044 738.768,438.029 C737.768,439.013 737.268,440.302 737.268,441.896 C737.268,443.115 737.675,444.198 738.487,445.146 C739.3,446.094 741.198,447.172 744.183,448.38 C747.167,449.589 749.341,450.714 750.706,451.755 C752.071,452.797 753.076,454.06 753.722,455.544 C754.367,457.029 754.69,458.448 754.69,459.802 C754.69,461.667 754.076,463.411 752.847,465.036 C751.617,466.661 750.078,467.805 748.229,468.466 C746.38,469.128 744.727,469.458 743.268,469.458 C739.831,469.458 736.67,468.823 733.784,467.552 C733.513,467.333 733.362,466.927 733.331,466.333 C733.331,466.094 733.305,465.703 733.253,465.161 C732.826,461.516 732.612,459.354 732.612,458.677 C732.612,458.354 732.68,458.138 732.815,458.029 C732.951,457.919 733.3,457.865 733.862,457.865"/>
<path class="Lyrics" d="M825.326,288.286 L825.373,287.427 C828.581,283.812 830.837,281.167 832.139,279.49 L835.373,275.349 C835.727,274.974 837.253,273.234 839.951,270.13 L843.607,265.88 C844.389,265.036 846.05,262.885 848.592,259.427 C848.352,259.26 848.066,259.177 847.732,259.177 L846.076,259.146 C844.107,259.094 841.54,259.12 838.373,259.224 C836.133,259.307 834.404,259.578 833.186,260.036 C832.3,260.359 831.503,260.87 830.795,261.568 C829.691,262.682 828.894,263.724 828.404,264.693 C828.165,265.182 827.774,265.589 827.232,265.911 C826.93,265.88 826.712,265.745 826.576,265.505 C826.691,265.214 826.943,264.492 827.334,263.341 C827.725,262.19 828.055,261.141 828.326,260.193 C829.222,257.193 830.035,254.818 830.764,253.068 L832.217,253.068 C832.165,253.422 832.123,253.677 832.092,253.833 C831.956,254.615 831.889,255.208 831.889,255.615 C831.889,256.187 832.133,256.594 832.623,256.833 C833.3,257.208 835.514,257.396 839.264,257.396 C840.16,257.396 841.217,257.37 842.436,257.318 C847.352,257.078 850.456,256.958 851.748,256.958 C852.258,256.958 853.436,257.01 855.279,257.115 C855.3,257.417 855.311,257.672 855.311,257.88 C855.311,258.349 855.232,258.703 855.076,258.943 C854.43,260.078 853.295,261.698 851.67,263.802 L843.404,273.896 L833.061,286.458 C833.602,286.458 834.498,286.484 835.748,286.536 L845.514,286.536 C846.649,286.568 847.777,286.315 848.896,285.779 C850.016,285.242 851.029,284.333 851.936,283.052 C852.842,281.771 853.535,280.271 854.014,278.552 C854.232,278.417 854.451,278.349 854.67,278.349 C854.993,278.349 855.248,278.484 855.436,278.755 L854.592,284.521 C854.342,286.677 854.045,287.984 853.701,288.443 L829.139,288.365 L826.623,288.365 C826.133,288.365 825.701,288.339 825.326,288.286 M859.154,309.349 C859.123,309.047 859.107,308.771 859.107,308.521 C859.107,308.333 859.133,308.099 859.186,307.818 L863.248,307.005 C863.894,306.682 864.42,306.292 864.826,305.833 C864.962,305.344 865.029,304.859 865.029,304.38 C865.029,300.214 864.92,292.281 864.701,280.583 L864.576,265.755 C864.524,263.401 864.378,261.911 864.139,261.286 C864.003,260.964 863.8,260.708 863.529,260.521 C862.852,260.01 861.503,259.578 859.482,259.224 L859.717,258.005 C862.633,256.766 864.587,255.802 865.576,255.115 C866.566,254.427 867.503,253.458 868.389,252.208 L868.873,252.099 C869.071,252.099 869.342,252.177 869.686,252.333 C869.665,254.042 869.654,255.161 869.654,255.693 L869.686,260.161 C871.686,258.641 873.766,257.51 875.928,256.771 C878.089,256.031 880.331,255.661 882.654,255.661 C886.821,255.661 890.337,257.128 893.201,260.06 C896.066,262.992 897.498,266.766 897.498,271.38 C897.498,274.818 896.693,277.901 895.084,280.63 C893.475,283.359 891.258,285.398 888.436,286.747 C885.613,288.096 882.769,288.771 879.904,288.771 C877.467,288.771 874.686,288.109 871.561,286.786 C871.04,286.568 870.576,286.375 870.17,286.208 C870.118,288.375 870.092,290.302 870.092,291.99 C870.092,300.354 870.321,305.036 870.779,306.036 C871.029,306.578 871.79,306.901 873.061,307.005 C875.217,307.172 876.644,307.484 877.342,307.943 C877.748,308.182 878.019,308.667 878.154,309.396 L874.154,309.474 L870.498,309.396 L864.42,309.443 L859.154,309.349 M869.732,262.958 C869.68,263.333 869.654,263.682 869.654,264.005 C869.654,273.651 869.748,279.057 869.936,280.224 C870.311,282.359 871.066,283.859 872.201,284.724 C873.962,286.099 876.472,286.786 879.732,286.786 C883.118,286.786 885.972,285.617 888.295,283.279 C890.618,280.94 891.779,277.906 891.779,274.177 C891.779,269.698 890.55,266.146 888.092,263.521 C885.633,260.896 882.389,259.583 878.357,259.583 C876.66,259.583 875.094,259.862 873.662,260.419 C872.23,260.977 870.92,261.823 869.732,262.958 M902.248,237.943 L902.248,237.052 C903.008,236.812 903.847,236.557 904.764,236.286 C906.107,235.849 908.107,235.187 910.764,234.302 L912.654,234.302 C912.686,235.594 912.701,236.339 912.701,236.536 C912.701,258.734 912.633,271.969 912.498,276.24 C912.415,278.75 912.373,280.089 912.373,280.255 C912.373,283.286 912.498,284.974 912.748,285.318 C913.071,285.807 914.063,286.146 915.725,286.333 C917.386,286.521 918.363,286.714 918.654,286.911 C918.873,287.016 918.982,287.203 918.982,287.474 C918.982,287.766 918.923,287.974 918.803,288.099 C918.683,288.224 918.462,288.286 918.139,288.286 C917.941,288.286 916.519,288.24 913.873,288.146 L908.576,287.958 L901.764,288.286 C901.326,288.307 901.003,288.224 900.795,288.036 C900.628,287.901 900.545,287.708 900.545,287.458 C900.545,287.177 900.633,286.974 900.811,286.849 C900.988,286.724 901.959,286.513 903.725,286.216 C905.49,285.919 906.503,285.669 906.764,285.466 C907.024,285.263 907.196,284.812 907.279,284.115 C907.383,283.135 907.436,280.391 907.436,275.88 L907.389,266.568 L907.514,256.911 L907.467,247.271 L907.592,242.521 C907.592,241.583 907.443,240.904 907.146,240.482 C906.85,240.06 906.217,239.646 905.248,239.24 C903.79,238.646 902.79,238.214 902.248,237.943 M922.092,271.865 C922.092,270.031 922.477,268.068 923.248,265.974 C924.019,263.88 925.188,262.003 926.756,260.341 C928.324,258.68 929.988,257.443 931.748,256.63 C934.206,255.495 937.201,254.927 940.732,254.927 C945.795,254.927 950.021,256.656 953.412,260.115 C956.803,263.573 958.498,267.734 958.498,272.599 C958.498,276.922 956.719,280.779 953.162,284.169 C949.605,287.56 945.113,289.255 939.686,289.255 C936.331,289.255 933.17,288.375 930.201,286.615 C927.982,285.292 926.076,283.333 924.482,280.74 C922.889,278.146 922.092,275.187 922.092,271.865 M940.014,287.677 C942.066,287.677 944.045,287.122 945.951,286.013 C947.857,284.904 949.378,283.128 950.514,280.685 C951.649,278.242 952.217,275.411 952.217,272.193 C952.217,270.089 951.777,267.643 950.896,264.857 C950.016,262.07 948.665,259.982 946.842,258.591 C945.019,257.201 942.878,256.505 940.42,256.505 C938.639,256.505 936.821,256.924 934.967,257.763 C933.113,258.602 931.545,260.211 930.264,262.591 C928.982,264.971 928.342,268.349 928.342,272.724 C928.342,277.641 929.456,281.362 931.686,283.888 C933.915,286.414 936.691,287.677 940.014,287.677"/>
<path class="Lyrics" d="M864.154,356.474 L862.857,356.568 L862.482,356.568 C864.055,352.37 866.165,348.964 868.811,346.349 C870.081,345.078 871.326,344.443 872.545,344.443 C873.274,344.443 873.936,344.76 874.529,345.396 C875.123,346.031 875.42,346.901 875.42,348.005 C875.42,349.193 875.285,350.401 875.014,351.63 C874.743,352.859 874.092,354.812 873.061,357.49 L869.42,366.771 C868.337,369.312 867.701,370.865 867.514,371.427 L866.951,373.052 C866.357,374.542 866.061,375.557 866.061,376.099 C866.061,376.255 866.154,376.604 866.342,377.146 C866.633,377.281 866.847,377.349 866.982,377.349 L869.623,376.099 C872.863,373.578 874.915,371.849 875.779,370.911 C877.456,369.182 879.363,366.844 881.498,363.896 C882.519,362.49 883.326,360.896 883.92,359.115 C884.326,357.896 884.529,356.693 884.529,355.505 C884.529,354.099 884.222,351.76 883.607,348.49 C883.607,347.219 883.93,346.167 884.576,345.333 C885.066,344.687 885.581,344.365 886.123,344.365 C886.686,344.365 887.243,344.716 887.795,345.419 C888.347,346.122 888.623,347.135 888.623,348.458 C888.623,351.917 887.654,355.698 885.717,359.802 C884.363,362.698 882.173,365.94 879.146,369.529 C876.12,373.117 872.946,375.911 869.623,377.911 C867.998,378.911 866.295,379.411 864.514,379.411 C863.972,379.411 863.326,379.266 862.576,378.974 C861.868,378.38 861.514,377.76 861.514,377.115 C861.514,376 861.837,374.646 862.482,373.052 C865.43,365.865 868.024,359.135 870.264,352.865 C870.67,351.677 870.873,350.693 870.873,349.911 C870.873,349.422 870.753,349.016 870.514,348.693 C870.326,348.453 870.107,348.333 869.857,348.333 C869.264,348.333 868.602,348.807 867.873,349.755 C866.529,351.505 865.29,353.745 864.154,356.474 M916.904,348.818 C917.175,348.359 917.347,347.995 917.42,347.724 C917.753,346.911 918.081,346.385 918.404,346.146 C919.154,346.062 919.706,346.021 920.061,346.021 C920.519,346.021 920.967,346.115 921.404,346.302 L921.514,346.802 C921.514,346.958 921.446,347.198 921.311,347.521 C921.238,347.687 921.066,348.203 920.795,349.068 L920.467,349.88 L917.795,357.13 C916.66,360.401 915.665,363.008 914.811,364.951 C913.956,366.893 913.219,368.872 912.6,370.888 C911.98,372.904 911.415,374.344 910.904,375.208 L910.732,375.599 C910.732,375.755 910.883,375.958 911.186,376.208 C912.404,375.542 913.43,374.812 914.264,374.021 C916.43,372 917.712,370.745 918.107,370.255 C918.41,369.901 918.696,369.578 918.967,369.286 C919.29,369.557 919.587,369.839 919.857,370.13 C919.097,371.193 917.826,372.628 916.045,374.435 C914.264,376.242 912.66,377.526 911.232,378.286 C910.118,378.849 909.076,379.13 908.107,379.13 C907.482,379.13 907.016,378.997 906.709,378.732 C906.402,378.466 906.248,378.125 906.248,377.708 C906.248,377.333 906.378,376.635 906.639,375.615 C907.316,373.823 907.79,372.643 908.061,372.076 C908.331,371.508 908.696,370.63 909.154,369.443 C909.425,368.714 909.982,367.448 910.826,365.646 C910.305,366.156 909.67,366.911 908.92,367.911 C906.732,370.661 904.217,373.266 901.373,375.724 C900.727,376.297 899.16,377.203 896.67,378.443 C895.753,378.797 894.675,379.026 893.436,379.13 C892.383,379.109 891.68,379.005 891.326,378.818 C890.68,378.464 890.154,377.906 889.748,377.146 C889.446,376.583 889.295,375.708 889.295,374.521 C889.295,372.792 889.675,370.87 890.436,368.755 C891.727,365.161 893.04,362.5 894.373,360.771 C896.633,357.771 898.878,355.393 901.107,353.638 C903.337,351.883 905.383,350.599 907.248,349.786 C909.706,348.714 911.842,348.177 913.654,348.177 C914.248,348.177 914.816,348.229 915.357,348.333 C915.899,348.437 916.415,348.599 916.904,348.818 M897.607,375.411 C898.253,375.245 898.821,375.016 899.311,374.724 C899.613,374.557 900.665,373.812 902.467,372.49 C905.769,369.167 907.633,367.26 908.061,366.771 C909.008,365.719 910.076,364.276 911.264,362.443 C911.587,361.984 912.274,360.714 913.326,358.63 L914.389,355.833 C914.764,354.187 914.951,353.24 914.951,352.99 C914.951,352.24 914.644,351.526 914.029,350.849 C913.623,350.443 912.956,350.24 912.029,350.24 C910.977,350.24 910.076,350.417 909.326,350.771 C907.618,351.573 906.061,352.599 904.654,353.849 C902.769,355.547 900.949,357.727 899.193,360.388 C897.438,363.049 896.196,365.271 895.467,367.052 C894.467,369.51 893.967,371.349 893.967,372.568 C893.967,373.568 894.167,374.31 894.568,374.794 C894.969,375.279 895.482,375.521 896.107,375.521 C896.326,375.521 896.826,375.484 897.607,375.411 M910.295,339.943 L909.561,339.865 C909.613,339.729 910.769,338.073 913.029,334.896 C915.29,331.719 916.566,329.969 916.857,329.646 C917.587,328.812 918.342,328.177 919.123,327.74 C919.665,327.469 920.232,327.333 920.826,327.333 C921.503,327.333 922.037,327.518 922.428,327.888 C922.818,328.258 923.014,328.698 923.014,329.208 C923.014,330.375 921.91,331.729 919.701,333.271 L910.295,339.943 "/>
<path class="Lyrics" d="M873.732,428.115 L874.982,428.161 L875.154,432.005 L875.061,436.99 C875.581,437.021 875.91,437.036 876.045,437.036 C876.743,437.036 878.076,436.984 880.045,436.88 C881.316,436.797 882.535,436.755 883.701,436.755 C884.243,436.755 885.055,436.766 886.139,436.786 C886.191,437.328 886.217,437.76 886.217,438.083 C886.217,438.437 886.133,438.995 885.967,439.755 L885.279,439.755 L878.998,439.958 L875.873,440.036 L875.154,440.115 C874.936,440.792 874.826,441.578 874.826,442.474 L874.951,448.552 L874.857,459.24 C874.857,462.052 875.222,463.917 875.951,464.833 C876.66,465.781 877.717,466.255 879.123,466.255 C879.821,466.255 881.144,466.042 883.092,465.615 C883.686,465.479 884.482,465.031 885.482,464.271 L885.842,464.271 C886.092,464.271 886.29,464.346 886.436,464.497 C886.581,464.648 886.654,464.844 886.654,465.083 L886.623,465.365 C885.456,466.635 884.123,467.56 882.623,468.138 C881.123,468.716 879.133,469.005 876.654,469.005 C874.894,469.005 873.441,468.602 872.295,467.794 C871.149,466.987 870.412,466.029 870.084,464.919 C869.756,463.81 869.592,461.391 869.592,457.661 L869.764,448.552 L869.717,444.161 L869.717,442.552 C869.717,441.792 869.691,441.031 869.639,440.271 L868.951,440.24 L865.623,440.365 L865.295,440.396 C865.003,440.396 864.782,440.328 864.631,440.193 C864.48,440.057 864.404,439.896 864.404,439.708 C864.404,439.385 864.506,439.122 864.709,438.919 C864.912,438.716 865.529,438.401 866.561,437.974 C867.258,437.672 868.074,437.109 869.006,436.286 C869.938,435.464 870.727,434.552 871.373,433.552 C871.706,433.01 872.17,431.984 872.764,430.474 C873.191,429.359 873.514,428.573 873.732,428.115 M919.092,462.646 C919.248,463 919.326,463.26 919.326,463.427 C919.326,463.823 919.003,464.536 918.357,465.568 C917.524,466.922 916.592,467.906 915.561,468.521 C914.915,468.927 914.024,469.13 912.889,469.13 C910.941,469.13 909.482,468.536 908.514,467.349 C907.92,466.651 907.498,465.396 907.248,463.583 L902.717,466.74 C901.123,467.656 899.904,468.24 899.061,468.49 C897.717,468.833 896.097,469.005 894.201,469.005 C892.826,469.005 891.74,468.594 890.943,467.771 C890.146,466.948 889.748,465.891 889.748,464.599 C889.748,462.734 890.889,460.505 893.17,457.911 C895.451,455.318 898.55,453.198 902.467,451.552 C905.227,450.385 906.92,449.641 907.545,449.318 C907.597,448.422 907.623,447.448 907.623,446.396 C907.623,442.969 907.144,440.646 906.186,439.427 C905.227,438.208 903.852,437.599 902.061,437.599 C900.196,437.599 898.456,438.328 896.842,439.786 C895.842,440.714 895.087,442.443 894.576,444.974 C894.41,445.682 894.097,446.443 893.639,447.255 C892.472,448.005 891.54,448.38 890.842,448.38 C890.248,448.38 889.706,448.208 889.217,447.865 C888.946,447.667 888.811,447.448 888.811,447.208 C888.811,446.51 889.561,444.924 891.061,442.451 C892.561,439.977 894.451,438.125 896.732,436.896 C899.014,435.667 901.008,435.052 902.717,435.052 C905.04,435.052 906.769,435.26 907.904,435.677 C909.04,436.094 910.04,436.831 910.904,437.888 C911.769,438.945 912.295,440.094 912.482,441.333 C912.587,441.927 912.639,444.047 912.639,447.693 L912.529,454.146 L912.561,458.833 C912.561,459.458 912.55,459.99 912.529,460.427 C912.498,461.208 912.482,461.786 912.482,462.161 C912.482,463.057 912.738,463.776 913.248,464.318 C913.769,464.849 914.378,465.115 915.076,465.115 C916.107,465.115 916.988,464.604 917.717,463.583 L918.201,462.927 C918.337,462.854 918.633,462.76 919.092,462.646 M907.17,461.474 C907.357,458.047 907.451,455.63 907.451,454.224 C907.451,453.495 907.415,452.505 907.342,451.255 C905.529,451.911 903.61,452.901 901.584,454.224 C899.558,455.547 897.951,457.073 896.764,458.802 C895.899,460.042 895.467,461.214 895.467,462.318 C895.467,463.38 895.824,464.263 896.537,464.966 C897.251,465.669 898.149,466.021 899.232,466.021 C900.066,466.021 901.076,465.719 902.264,465.115 C903.837,464.333 905.472,463.12 907.17,461.474"/>
<path class="Lyrics" d="M1256.82,258.74 L1256.86,257.568 L1256.82,252.818 L1256.86,243.865 C1256.86,241.375 1256.59,239.794 1256.05,239.122 C1255.51,238.451 1253.93,237.76 1251.32,237.052 C1251.13,237 1250.83,236.922 1250.43,236.818 L1250.43,236.365 C1250.43,236.094 1250.45,235.797 1250.5,235.474 C1254.18,235.099 1257.34,234.464 1259.99,233.568 L1262.05,233.536 C1262.16,235.37 1262.21,237.422 1262.21,239.693 L1262.05,255.286 L1262.33,272.88 L1262.21,282.24 C1262.21,284.156 1262.34,285.24 1262.61,285.49 C1263.16,286.031 1264.35,286.312 1266.19,286.333 C1266.57,286.333 1267.08,286.359 1267.72,286.411 L1267.72,287.146 C1267.72,287.333 1267.71,287.536 1267.69,287.755 C1266.85,287.943 1265.98,288.12 1265.1,288.286 L1259.21,289.411 C1258.34,289.578 1257.66,289.661 1257.14,289.661 L1257.14,285.771 C1256.69,285.906 1255.97,286.177 1255,286.583 C1250.79,288.365 1246.91,289.255 1243.36,289.255 C1241.23,289.255 1239.05,288.56 1236.84,287.169 C1234.63,285.779 1232.93,283.841 1231.74,281.357 C1230.55,278.872 1229.96,276.333 1229.96,273.74 C1229.96,271.417 1230.35,269.193 1231.13,267.068 C1231.91,264.943 1232.94,263.177 1234.21,261.771 C1235.02,260.854 1236.17,259.943 1237.65,259.036 C1239.14,258.13 1240.37,257.557 1241.35,257.318 C1243.74,256.693 1245.35,256.38 1246.16,256.38 C1249.81,256.38 1252.81,256.922 1255.16,258.005 C1255.89,258.359 1256.44,258.604 1256.82,258.74 M1256.86,283.786 C1256.97,281.974 1257.02,278.245 1257.02,272.599 C1257.02,267.818 1256.8,264.799 1256.36,263.544 C1255.91,262.289 1254.8,261.099 1253.01,259.974 C1251.23,258.849 1249.23,258.286 1247.02,258.286 C1243.91,258.286 1241.27,259.49 1239.11,261.896 C1236.94,264.302 1235.86,267.854 1235.86,272.552 C1235.86,276.687 1237.03,279.984 1239.37,282.443 C1241.71,284.901 1244.62,286.13 1248.11,286.13 C1250.11,286.13 1251.94,285.862 1253.58,285.326 C1255.23,284.789 1256.32,284.276 1256.86,283.786 M1269.32,286.99 C1269.7,286.719 1270.23,286.542 1270.89,286.458 C1273.35,286.104 1274.91,285.661 1275.57,285.13 C1275.89,284.807 1276.12,284.266 1276.25,283.505 C1276.41,282.484 1276.49,279.974 1276.49,275.974 L1276.46,267.24 L1276.54,263.724 C1276.54,262.453 1276.24,261.521 1275.66,260.927 C1275.08,260.333 1273.69,259.781 1271.5,259.271 L1271.47,258.083 C1275.2,257.219 1278.09,255.276 1280.14,252.255 C1280.44,252.151 1280.65,252.099 1280.79,252.099 C1280.95,252.099 1281.17,252.151 1281.44,252.255 L1281.52,253.786 L1281.52,261.333 L1281.57,271.177 L1281.39,281.599 L1281.44,283.333 C1281.46,284.365 1281.61,285 1281.88,285.24 C1282.34,285.677 1283.86,286.245 1286.46,286.943 C1286.84,287.057 1287.18,287.182 1287.47,287.318 L1287.47,288.365 L1286.79,288.365 C1282.24,288.042 1279.33,287.88 1278.04,287.88 C1274.93,287.88 1272.45,287.974 1270.58,288.161 C1270.31,288.193 1270.08,288.208 1269.89,288.208 C1269.68,288.208 1269.49,288.141 1269.34,288.005 C1269.19,287.87 1269.11,287.719 1269.11,287.552 C1269.11,287.417 1269.18,287.229 1269.32,286.99 M1274.79,248.24 L1279.82,241.005 C1281.28,238.88 1282.72,237.349 1284.16,236.411 C1284.75,236.005 1285.4,235.802 1286.1,235.802 C1286.83,235.802 1287.41,236.003 1287.84,236.404 C1288.27,236.805 1288.49,237.276 1288.49,237.818 C1288.49,238.328 1288.3,238.867 1287.92,239.435 C1287.54,240.003 1286.63,240.771 1285.21,241.74 L1275.68,248.24 L1275.24,248.318 L1274.79,248.24 M1293.1,284.88 C1293.1,283.693 1293.54,282.654 1294.42,281.763 C1295.3,280.872 1296.32,280.427 1297.47,280.427 C1298.61,280.427 1299.57,280.844 1300.36,281.677 C1301.14,282.51 1301.54,283.562 1301.54,284.833 C1301.54,286.104 1301.12,287.172 1300.3,288.036 C1299.48,288.901 1298.48,289.333 1297.32,289.333 C1296.18,289.333 1295.19,288.896 1294.36,288.021 C1293.52,287.146 1293.1,286.099 1293.1,284.88"/>
<path class="Lyrics" d="M1245.41,350.083 C1245.36,349.865 1245.29,349.714 1245.19,349.63 C1245.1,349.547 1244.98,349.505 1244.85,349.505 C1243.44,349.505 1241.25,351.724 1238.27,356.161 C1237.98,356.182 1237.76,356.193 1237.63,356.193 C1237.46,356.193 1237.19,356.182 1236.82,356.161 C1237.39,355.026 1238.32,353.594 1239.6,351.865 C1240.88,350.135 1242.24,348.695 1243.68,347.544 C1245.13,346.393 1246.5,345.536 1247.8,344.974 C1248.23,344.786 1248.62,344.693 1248.97,344.693 C1249.11,344.693 1249.31,344.703 1249.58,344.724 C1250.07,345.214 1250.32,345.714 1250.32,346.224 C1250.32,346.547 1250.28,346.87 1250.22,347.193 C1250.15,347.516 1250,348.016 1249.79,348.693 C1248.97,351.016 1248.38,352.651 1248,353.599 L1245.69,359.599 C1245.15,360.974 1244.62,362.432 1244.11,363.974 C1244.33,363.703 1244.52,363.448 1244.68,363.208 C1247.19,359.531 1249.89,356.01 1252.8,352.646 C1255.71,349.281 1258.11,347.031 1260,345.896 C1261.35,345.062 1262.63,344.646 1263.85,344.646 C1264.76,344.646 1265.48,344.896 1266,345.396 C1266.51,345.896 1266.77,346.536 1266.77,347.318 C1266.77,347.807 1266.71,348.281 1266.6,348.74 C1266.41,349.771 1265.99,351.203 1265.35,353.036 C1264.7,354.87 1263,358.854 1260.24,364.99 L1256.19,374.349 L1256.04,374.88 C1256.04,375.036 1256.13,375.281 1256.32,375.615 C1257.83,375.281 1260.09,372.875 1263.11,368.396 L1264.79,368.427 C1263.94,369.948 1262.56,371.896 1260.64,374.271 C1259.17,376.083 1257.57,377.49 1255.86,378.49 C1254.92,379.052 1253.91,379.333 1252.83,379.333 C1252.18,379.333 1251.69,379.198 1251.36,378.927 C1251.04,378.656 1250.88,378.359 1250.88,378.036 C1250.88,376.609 1251.57,374.396 1252.94,371.396 L1258.82,358.552 L1261.1,353.161 C1261.61,351.974 1261.92,351.148 1262.03,350.685 C1262.14,350.221 1262.19,349.76 1262.19,349.302 C1262.19,348.958 1262.1,348.685 1261.9,348.482 C1261.71,348.279 1261.47,348.177 1261.18,348.177 C1260.74,348.177 1260.24,348.349 1259.68,348.693 C1257.68,349.88 1255.47,351.922 1253.07,354.818 C1249.61,358.974 1247.31,361.958 1246.18,363.771 C1243.34,368.26 1240.87,372.839 1238.77,377.505 C1238.44,378.266 1238.04,378.823 1237.58,379.177 C1237.02,379.26 1236.59,379.302 1236.29,379.302 C1235.94,379.302 1235.41,379.234 1234.68,379.099 C1234.56,378.88 1234.5,378.703 1234.5,378.568 C1234.5,378.349 1234.64,377.865 1234.91,377.115 C1235.5,375.354 1236.96,371.651 1239.29,366.005 L1240.22,363.818 L1245.41,350.083 M1282.96,330.224 C1282.96,329.276 1283.32,328.43 1284.05,327.685 C1284.78,326.94 1285.63,326.568 1286.61,326.568 C1287.53,326.568 1288.31,326.893 1288.96,327.544 C1289.6,328.195 1289.93,328.937 1289.93,329.771 C1289.93,330.854 1289.53,331.839 1288.72,332.724 C1288.23,333.245 1287.34,333.505 1286.04,333.505 C1285.17,333.505 1284.44,333.208 1283.85,332.615 C1283.25,332.021 1282.96,331.224 1282.96,330.224 M1281.38,348.411 C1280.82,348.411 1280.4,348.453 1280.13,348.536 C1278.86,349.214 1277.93,349.792 1277.33,350.271 C1276.11,351.219 1274.96,352.328 1273.88,353.599 L1271.54,354.13 C1273.62,351.318 1275.93,349.115 1278.47,347.521 C1281,345.927 1283,345.13 1284.46,345.13 C1285.08,345.13 1285.55,345.286 1285.86,345.599 C1286.18,345.911 1286.33,346.307 1286.33,346.786 C1286.33,348.12 1285.57,350.328 1284.05,353.411 C1283.86,353.786 1283.42,354.755 1282.72,356.318 C1281.1,359.859 1279.37,363.208 1277.54,366.365 C1276.94,367.396 1276.29,368.615 1275.58,370.021 C1275.21,370.771 1274.87,371.406 1274.57,371.927 C1273.73,373.323 1273.32,374.359 1273.32,375.036 C1273.32,375.224 1273.39,375.393 1273.54,375.544 C1273.69,375.695 1273.87,375.771 1274.08,375.771 C1274.38,375.771 1274.82,375.609 1275.38,375.286 C1276.33,374.745 1277.46,373.846 1278.77,372.591 C1280.08,371.336 1281.24,369.896 1282.24,368.271 L1283.89,368.271 C1283.11,369.729 1281.96,371.404 1280.43,373.294 C1278.91,375.185 1277.17,376.698 1275.22,377.833 C1273.76,378.698 1272.47,379.13 1271.33,379.13 C1270.47,379.13 1269.83,378.948 1269.43,378.583 C1269.02,378.219 1268.82,377.74 1268.82,377.146 C1268.82,375.062 1270.34,371.146 1273.39,365.396 L1279.93,353.068 C1280.6,351.807 1281.08,350.812 1281.35,350.083 C1281.5,349.615 1281.58,349.302 1281.58,349.146 C1281.58,349.01 1281.51,348.766 1281.38,348.411 M1288.14,374.88 C1288.14,373.693 1288.58,372.654 1289.46,371.763 C1290.33,370.872 1291.35,370.427 1292.52,370.427 C1293.66,370.427 1294.61,370.844 1295.39,371.677 C1296.18,372.51 1296.57,373.562 1296.57,374.833 C1296.57,376.104 1296.16,377.172 1295.33,378.036 C1294.51,378.901 1293.52,379.333 1292.36,379.333 C1291.23,379.333 1290.24,378.896 1289.4,378.021 C1288.56,377.146 1288.14,376.099 1288.14,374.88"/>
<path class="Lyrics" d="M1247.83,428.115 L1249.08,428.161 L1249.25,432.005 L1249.16,436.99 C1249.68,437.021 1250.01,437.036 1250.14,437.036 C1250.84,437.036 1252.18,436.984 1254.14,436.88 C1255.42,436.797 1256.63,436.755 1257.8,436.755 C1258.34,436.755 1259.16,436.766 1260.24,436.786 C1260.29,437.328 1260.32,437.76 1260.32,438.083 C1260.32,438.437 1260.23,438.995 1260.07,439.755 L1259.38,439.755 L1253.1,439.958 L1249.97,440.036 L1249.25,440.115 C1249.04,440.792 1248.93,441.578 1248.93,442.474 L1249.05,448.552 L1248.96,459.24 C1248.96,462.052 1249.32,463.917 1250.05,464.833 C1250.76,465.781 1251.82,466.255 1253.22,466.255 C1253.92,466.255 1255.24,466.042 1257.19,465.615 C1257.79,465.479 1258.58,465.031 1259.58,464.271 L1259.94,464.271 C1260.19,464.271 1260.39,464.346 1260.54,464.497 C1260.68,464.648 1260.75,464.844 1260.75,465.083 L1260.72,465.365 C1259.56,466.635 1258.22,467.56 1256.72,468.138 C1255.22,468.716 1253.23,469.005 1250.75,469.005 C1248.99,469.005 1247.54,468.602 1246.39,467.794 C1245.25,466.987 1244.51,466.029 1244.18,464.919 C1243.86,463.81 1243.69,461.391 1243.69,457.661 L1243.86,448.552 L1243.82,444.161 L1243.82,442.552 C1243.82,441.792 1243.79,441.031 1243.74,440.271 L1243.05,440.24 L1239.72,440.365 L1239.39,440.396 C1239.1,440.396 1238.88,440.328 1238.73,440.193 C1238.58,440.057 1238.5,439.896 1238.5,439.708 C1238.5,439.385 1238.61,439.122 1238.81,438.919 C1239.01,438.716 1239.63,438.401 1240.66,437.974 C1241.36,437.672 1242.17,437.109 1243.11,436.286 C1244.04,435.464 1244.83,434.552 1245.47,433.552 C1245.81,433.01 1246.27,431.984 1246.86,430.474 C1247.29,429.359 1247.61,428.573 1247.83,428.115 M1265.99,418.349 C1265.99,417.464 1266.34,416.695 1267.03,416.044 C1267.72,415.393 1268.55,415.068 1269.52,415.068 C1270.52,415.068 1271.4,415.432 1272.15,416.161 C1272.91,416.891 1273.29,417.677 1273.29,418.521 C1273.29,419.354 1272.91,420.143 1272.15,420.888 C1271.4,421.633 1270.52,422.005 1269.52,422.005 C1268.52,422.005 1267.68,421.667 1267,420.99 C1266.33,420.312 1265.99,419.432 1265.99,418.349 M1262.58,439.349 L1262.63,438.177 C1264.39,437.656 1265.34,437.359 1265.47,437.286 C1266.44,436.849 1267.46,436.185 1268.53,435.294 C1269.6,434.404 1270.49,433.406 1271.22,432.302 C1271.55,432.24 1271.8,432.208 1271.99,432.208 L1272.47,432.255 C1272.59,433.547 1272.64,434.49 1272.64,435.083 C1272.64,435.219 1272.62,435.828 1272.57,436.911 L1272.57,439.068 L1272.6,450.74 L1272.47,463.099 C1272.45,464.099 1272.62,464.794 1272.97,465.185 C1273.31,465.576 1274.35,466.016 1276.08,466.505 C1277.17,466.797 1277.98,467.052 1278.52,467.271 C1278.6,467.458 1278.64,467.62 1278.64,467.755 C1278.64,467.922 1278.58,468.125 1278.44,468.365 C1277.38,468.333 1276.03,468.266 1274.38,468.161 C1272.14,467.974 1270.66,467.88 1269.93,467.88 C1269.57,467.88 1267.41,467.948 1263.44,468.083 C1262.63,468.104 1261.84,468.172 1261.08,468.286 C1260.96,468.286 1260.74,468.245 1260.44,468.161 C1260.31,467.974 1260.24,467.812 1260.24,467.677 C1260.24,467.302 1260.49,467.005 1261,466.786 C1261.12,466.734 1262.5,466.422 1265.14,465.849 C1266.01,465.693 1266.58,465.422 1266.85,465.036 C1267.31,464.474 1267.54,463.568 1267.54,462.318 C1267.59,460.245 1267.61,454.547 1267.61,445.224 C1267.61,443.359 1267.54,442.198 1267.38,441.74 C1267.24,441.417 1266.88,441.044 1266.3,440.622 C1265.72,440.201 1264.48,439.776 1262.58,439.349 M1284.1,464.88 C1284.1,463.693 1284.54,462.654 1285.42,461.763 C1286.3,460.872 1287.32,460.427 1288.47,460.427 C1289.61,460.427 1290.57,460.844 1291.36,461.677 C1292.14,462.51 1292.54,463.562 1292.54,464.833 C1292.54,466.104 1292.12,467.172 1291.3,468.036 C1290.48,468.901 1289.48,469.333 1288.32,469.333 C1287.18,469.333 1286.19,468.896 1285.36,468.021 C1284.52,467.146 1284.1,466.099 1284.1,464.88"/>
<polyline class="LyricsLineSegment" fill="none" stroke="#000000" stroke-width="4.15" stroke-linejoin="bevel" points="798.508,450.161 820.618,450.161"/>
<polyline class="LyricsLineSegment" fill="none" stroke="#000000" stroke-width="4.15" stroke-linejoin="bevel" points="1068.13,450.161 1090.24,450.161"/>
<polyline class="LyricsLineSegment" fill="none" stroke="#000000" stroke-width="4.15" stroke-linejoin="bevel" points="329.483,270.161 351.593,270.161"/>
<polyline class="LyricsLineSegment" fill="none" stroke="#000000" stroke-width="4.15" stroke-linejoin="bevel" points="570.108,270.161 592.219,270.161"/>
<polyline class="LyricsLineSegment" fill="none" stroke="#000000" stroke-width="4.15" stroke-linejoin="bevel" points="1083.13,270.161 1105.24,270.161"/>
<polyline class="LyricsLineSegment" fill="none" stroke="#000000" stroke-width="4.15" stroke-linejoin="bevel" points="790.758,364.161 812.868,364.161"/>
<polyline class="LyricsLineSegment" fill="none" stroke="#000000" stroke-width="4.15" stroke-linejoin="bevel" points="562.358,364.161 584.469,364.161"/>
<polyline class="LyricsLineSegment" fill="none" stroke="#000000" stroke-width="4.15" stroke-linejoin="bevel" points="1067.38,364.161 1089.49,364.161"/>
<path class="NoteDot" transform="matrix(1.10551,0,0,1.10551,1289.74,121.952)" d="M5,5 C7.79688,5 10,2.79688 10,0 C10,-2.79688 7.79688,-5 5,-5 C2.20313,-5 0,-2.79688 0,0 C0,2.79688 2.20313,5 5,5"/>
</svg>
