<?xml version="1.0" encoding="UTF-8" standalone="no"?>
<svg width="2098.77px" height="2977.23px" viewBox="0 0 2098.77 2977.23"
 xmlns="http://www.w3.org/2000/svg" xmlns:xlink="http://www.w3.org/1999/xlink" version="1.2" baseProfile="tiny">
<title>05. Kyrie (stacked) (6)</title>
<desc>Generated by MuseScore 3.6.2</desc>
<polyline class="StaffLines" fill="none" stroke="#000000" stroke-width="3.59" stroke-linejoin="bevel" points="14.1732,52.8575 1427.82,52.8575"/>
<polyline class="StaffLines" fill="none" stroke="#000000" stroke-width="3.59" stroke-linejoin="bevel" points="14.1732,80.4953 1427.82,80.4953"/>
<polyline class="StaffLines" fill="none" stroke="#000000" stroke-width="3.59" stroke-linejoin="bevel" points="14.1732,108.133 1427.82,108.133"/>
<polyline class="StaffLines" fill="none" stroke="#000000" stroke-width="3.59" stroke-linejoin="bevel" points="14.1732,135.771 1427.82,135.771"/>
<polyline class="StaffLines" fill="none" stroke="#000000" stroke-width="3.59" stroke-linejoin="bevel" points="14.1732,163.409 1427.82,163.409"/>
<polyline class="BarLine" fill="none" stroke="#000000" stroke-width="4.42" stroke-linejoin="bevel" points="861.137,51.0611 861.137,165.205"/>
<polyline class="BarLine" fill="none" stroke="#000000" stroke-width="4.42" stroke-linejoin="bevel" points="1400.74,51.0611 1400.74,165.205"/>
<polyline class="BarLine" fill="none" stroke="#000000" stroke-width="13.82" stroke-linejoin="bevel" points="1420.91,51.0611 1420.91,165.205"/>
<polyline class="Stem" fill="none" stroke="#000000" stroke-width="3.32" stroke-linejoin="bevel" points="181.209,98.0287 181.209,191.046"/>
<polyline class="Stem" fill="none" stroke="#000000" stroke-width="3.32" stroke-linejoin="bevel" points="475.56,118.237 475.56,25.2197"/>
<polyline class="Stem" fill="none" stroke="#000000" stroke-width="3.32" stroke-linejoin="bevel" points="951.642,132.056 951.642,39.0386"/>
<path class="Note" transform="matrix(1.10551,0,0,1.10551,179.551,94.3142)" d="M0,4.7 C0,10.5 4.8,14 10.8,14 C20.7,14 32.9,4.8 32.9,-4.7 C32.9,-10.3 28.4,-14 22,-14 C9.8,-14 0,-4.9 0,4.7"/>
<path class="Note" transform="matrix(1.10551,0,0,1.10551,440.849,121.952)" d="M10.8,14 C29.2,14 32.9,-1 32.9,-4.6 C32.9,-10.3 28.4,-14 21.9,-14 C5.2,-14 0,-1.1 0,4.7 C0,10.6 4.7,14 10.8,14 M3.3,4.9 C3.3,-0.5 19.4,-9.4 24.7,-9.4 C26.8,-9.4 28,-8.4 28.8,-7 C29.1,-6.4 29.4,-5.7 29.4,-4.9 C29.4,-2.7 27.1,0 19.3,5.1 C14.3,8.5 10.8,9.7 8.4,9.7 C6.1,9.7 4.7,8.5 4,7.1 C3.6,6.5 3.3,5.7 3.3,4.9"/>
<path class="Note" transform="matrix(1.10551,0,0,1.10551,916.93,135.771)" d="M10.8,14 C29.2,14 32.9,-1 32.9,-4.6 C32.9,-10.3 28.4,-14 21.9,-14 C5.2,-14 0,-1.1 0,4.7 C0,10.6 4.7,14 10.8,14 M3.3,4.9 C3.3,-0.5 19.4,-9.4 24.7,-9.4 C26.8,-9.4 28,-8.4 28.8,-7 C29.1,-6.4 29.4,-5.7 29.4,-4.9 C29.4,-2.7 27.1,0 19.3,5.1 C14.3,8.5 10.8,9.7 8.4,9.7 C6.1,9.7 4.7,8.5 4,7.1 C3.6,6.5 3.3,5.7 3.3,4.9"/>
<path class="Clef" transform="matrix(1.10551,0,0,1.10551,36.2835,135.771)" d="M36.4,25.2 C38.7,25.2 41.3,25 43.3,24.6 C44.4,24.4 44.6,24.3 44.8,25.5 C46,32.2 47.5,40.9 47.5,45.6 C47.5,60.4 37.5,62.2 31.6,62.2 C26.2,62.2 23.6,60.6 23.6,59.3 C23.6,58.6 24.5,58.3 26.8,57.6 C29.9,56.7 33.5,54 33.5,48.2 C33.5,42.7 30,38 23.9,38 C17.2,38 13.2,43.3 13.2,49.5 C13.2,56 17.1,65.8 32.2,65.8 C38.9,65.8 51.9,62.8 51.9,45.8 C51.9,40.1 50.1,30.6 49,24.4 C48.8,23.2 48.9,23.3 50.3,22.7 C60.4,18.7 67.1,10.2 67.1,-1.1 C67.1,-13.9 57.7,-25.2 43,-25.2 C40.4,-25.2 40.4,-25.2 40.1,-27 L37.6,-41.5 C37.4,-42.7 37.6,-42.8 38.2,-43.4 C49,-53.5 57.2,-66.2 57.2,-81.5 C57.2,-90.2 54.8,-98.8 50.7,-104.8 C49.2,-107 46.6,-109.8 45.5,-109.8 C44.1,-109.8 41,-107.2 39,-105 C31.6,-96.8 29.2,-84.3 29.2,-73.9 C29.2,-68.1 29.9,-61.6 30.6,-57.5 C30.8,-56.3 30.9,-56.1 29.7,-55.1 C15.3,-43.2 0,-28.9 0,-8.7 C0,8.7 11.9,25.2 36.4,25.2 M8,-2 C8,-7.9 9,-15.8 17.3,-25.2 C23.3,-31.9 27.9,-35.6 32.6,-39.4 C33.6,-40.2 33.8,-40.1 34,-39 L36.1,-26.2 C36.4,-24.3 36.4,-24.4 34.6,-23.8 C25.8,-20.8 20.1,-12.9 20.1,-4.4 C20.1,4.6 24.8,11 31.6,13.3 C32.4,13.6 33.6,13.9 34.3,13.9 C35.1,13.9 35.5,13.4 35.5,12.8 C35.5,12.1 34.7,11.8 34,11.5 C29.8,9.7 26.8,5.4 26.8,0.8 C26.8,-4.9 30.7,-9.2 36.8,-10.9 C38.4,-11.3 38.6,-11.2 38.8,-10.1 L43.8,19.7 C44,20.8 43.9,20.8 42.4,21.1 C40.8,21.4 38.8,21.6 36.8,21.6 C19.3,21.6 8,11.9 8,-2 M47,-94.3 C50.3,-94.3 53,-91.6 53,-86.1 C53,-75 43.5,-66 35.6,-59.1 C34.9,-58.5 34.5,-58.6 34.3,-59.9 C33.9,-62.5 33.7,-65.9 33.7,-69.1 C33.7,-84.7 40.9,-94.3 47,-94.3 M44.1,-11.7 C52.2,-11 58.9,-4.2 58.9,4.6 C58.9,10.9 55.1,16 49.5,18.8 C48.3,19.4 48.1,19.4 47.9,18.2 L43,-10.3 C42.8,-11.5 42.9,-11.8 44.1,-11.7"/>
<path class="Lyrics" d="M212.763,247.94 C212.925,248.291 213.006,248.548 213.006,248.71 C213.006,249.116 212.681,249.831 212.033,250.858 C211.195,252.209 210.263,253.195 209.237,253.817 C208.588,254.222 207.697,254.425 206.562,254.425 C204.617,254.425 203.158,253.83 202.185,252.641 C201.591,251.939 201.172,250.683 200.929,248.872 L196.39,252.033 C194.795,252.952 193.58,253.533 192.742,253.776 C191.391,254.127 189.77,254.303 187.879,254.303 C186.501,254.303 185.413,253.891 184.616,253.067 C183.819,252.243 183.421,251.182 183.421,249.886 C183.421,248.021 184.562,245.792 186.845,243.199 C189.128,240.605 192.229,238.484 196.146,236.836 C198.902,235.674 200.591,234.931 201.212,234.607 C201.266,233.715 201.293,232.742 201.293,231.689 C201.293,228.257 200.814,225.934 199.855,224.718 C198.895,223.502 197.524,222.894 195.741,222.894 C193.877,222.894 192.134,223.624 190.513,225.083 C189.513,226.001 188.757,227.731 188.244,230.27 C188.081,230.973 187.771,231.729 187.311,232.54 C186.15,233.296 185.217,233.675 184.515,233.675 C183.921,233.675 183.38,233.499 182.894,233.148 C182.624,232.959 182.489,232.742 182.489,232.499 C182.489,231.797 183.238,230.209 184.738,227.737 C186.237,225.265 188.129,223.414 190.412,222.185 C192.695,220.956 194.687,220.341 196.39,220.341 C198.713,220.341 200.442,220.55 201.577,220.969 C202.712,221.388 203.711,222.124 204.576,223.178 C205.441,224.232 205.967,225.38 206.157,226.623 C206.265,227.217 206.319,229.338 206.319,232.986 L206.197,239.429 L206.238,244.131 C206.238,244.752 206.224,245.279 206.197,245.711 C206.17,246.495 206.157,247.076 206.157,247.454 C206.157,248.345 206.413,249.061 206.927,249.602 C207.44,250.142 208.048,250.412 208.75,250.412 C209.777,250.412 210.655,249.899 211.385,248.872 L211.871,248.224 C212.006,248.143 212.303,248.048 212.763,247.94 M200.848,246.765 C201.037,243.334 201.131,240.915 201.131,239.511 C201.131,238.781 201.091,237.795 201.01,236.552 C199.199,237.2 197.281,238.187 195.255,239.511 C193.228,240.834 191.621,242.361 190.432,244.09 C189.567,245.333 189.135,246.508 189.135,247.616 C189.135,248.67 189.493,249.548 190.209,250.25 C190.925,250.953 191.823,251.304 192.904,251.304 C193.742,251.304 194.755,251.007 195.944,250.412 C197.511,249.629 199.145,248.413 200.848,246.765"/>
<path class="Lyrics" d="M176.858,317.396 C176.453,317.072 176.142,316.774 175.926,316.504 C175.791,316.315 175.534,315.795 175.156,314.944 C174.778,314.093 174.494,313.573 174.305,313.384 C173.981,313.086 173.643,312.938 173.292,312.938 C172.346,312.938 171.333,313.519 170.252,314.68 C168.253,316.815 166.233,320.341 164.193,325.258 C162.154,330.175 161.134,334.255 161.134,337.497 C161.134,338.713 161.309,339.564 161.661,340.051 C161.931,340.402 162.322,340.577 162.836,340.577 C163.89,340.577 165.051,340.01 166.321,338.875 C168.023,337.362 169.752,335.255 171.509,332.553 C172.022,332.445 172.414,332.391 172.684,332.391 L173.292,332.431 C173.184,332.918 172.427,334.201 171.022,336.282 C168.996,339.254 167.132,341.327 165.43,342.502 C163.727,343.678 162.16,344.265 160.728,344.265 C159.486,344.265 158.526,343.82 157.851,342.928 C156.959,341.766 156.514,339.929 156.514,337.416 C156.514,335.255 157.034,332.621 158.074,329.513 C159.114,326.406 160.647,323.407 162.674,320.516 C164.7,317.625 166.355,315.552 167.638,314.295 C168.922,313.039 170.495,311.965 172.36,311.074 C173.63,310.452 174.818,310.141 175.926,310.141 C177.061,310.141 178.067,310.634 178.945,311.621 C179.824,312.607 180.263,313.762 180.263,315.086 C180.263,315.896 180.053,316.524 179.634,316.97 C179.216,317.416 178.723,317.639 178.155,317.639 C177.804,317.639 177.372,317.558 176.858,317.396 M191.602,291.094 L191.764,290.242 C196.438,289.729 199.262,289.472 200.234,289.472 C200.531,289.472 200.964,289.486 201.531,289.513 L201.328,290.283 L200.234,292.998 L197.843,299.766 C197.465,300.793 196.938,302.387 196.263,304.549 C195.02,308.547 193.716,312.147 192.352,315.349 C190.987,318.551 189.711,322.029 188.522,325.785 C188.954,325.245 189.508,324.488 190.183,323.515 C194.02,318.058 197.235,314.329 199.829,312.33 C201.585,310.979 203.314,310.303 205.016,310.303 C206.394,310.303 207.576,310.884 208.563,312.046 C209.549,313.208 210.042,314.991 210.042,317.396 C210.042,320.476 209.272,324.117 207.732,328.318 C206.192,332.519 204.368,335.93 202.261,338.551 C200.153,341.172 198.35,342.86 196.85,343.617 C195.351,344.373 193.993,344.752 192.777,344.752 C191.723,344.752 190.926,344.468 190.386,343.901 C189.576,343.063 189.17,342.199 189.17,341.307 C189.17,340.902 189.386,340.517 189.819,340.152 C190.251,339.787 190.818,339.605 191.521,339.605 C192.061,339.605 192.494,339.72 192.818,339.949 C193.142,340.179 193.642,340.794 194.317,341.793 C194.777,342.226 195.155,342.442 195.452,342.442 C195.965,342.442 196.668,341.861 197.559,340.699 C199.316,338.375 201.288,333.958 203.476,327.447 C205.233,322.286 206.111,318.382 206.111,315.734 C206.111,314.275 205.908,313.289 205.503,312.776 C205.098,312.262 204.544,312.006 203.841,312.006 C203.463,312.006 203.031,312.127 202.544,312.37 C201.085,313.1 199.505,314.356 197.803,316.139 C196.1,317.923 193.412,321.367 189.738,326.474 C188.927,327.609 187.583,330.189 185.705,334.215 C183.827,338.24 182.551,341.077 181.875,342.725 C181.524,343.59 181.186,344.144 180.862,344.387 C180.538,344.63 180.106,344.752 179.565,344.752 C178.971,344.752 178.545,344.644 178.289,344.428 C178.032,344.211 177.904,343.901 177.904,343.495 C177.904,343.036 178.12,342.293 178.552,341.266 L181.47,334.012 C181.632,333.661 181.781,333.31 181.916,332.958 L193.385,300.212 L195.047,295.511 C195.479,294.322 195.695,293.512 195.695,293.079 C195.695,292.755 195.614,292.505 195.452,292.33 C195.29,292.154 194.979,292.026 194.52,291.945 C193.439,291.728 192.466,291.445 191.602,291.094 M239.012,320.354 C239.012,326.622 237.114,332.188 233.317,337.052 C229.521,341.915 225.584,344.346 221.504,344.346 C219.315,344.346 217.546,343.529 216.195,341.895 C214.844,340.26 214.168,337.7 214.168,334.215 C214.168,331.864 214.695,329.155 215.749,326.089 C216.803,323.022 218.167,320.476 219.842,318.449 C220.22,317.99 220.653,317.436 221.139,316.788 C222.571,314.924 224.273,313.357 226.245,312.087 C228.218,310.817 230.231,310.182 232.284,310.182 C234.175,310.182 235.769,310.972 237.066,312.553 C238.363,314.133 239.012,316.734 239.012,320.354 M217.937,338.794 C217.937,340.037 218.228,340.956 218.809,341.55 C219.39,342.144 220.328,342.442 221.625,342.442 C222.895,342.442 224.179,341.82 225.475,340.577 C227.799,338.308 230.123,334.404 232.446,328.865 C234.77,323.326 235.931,318.963 235.931,315.775 C235.931,314.64 235.648,313.742 235.08,313.08 C234.513,312.418 233.865,312.087 233.135,312.087 C231.541,312.087 229.879,313.019 228.15,314.883 C225.205,318.017 222.666,322.34 220.531,327.852 C218.802,332.337 217.937,335.984 217.937,338.794"/>
<path class="Lyrics" d="M170.696,403.873 L170.736,402.698 L170.696,397.956 L170.736,388.999 C170.736,386.514 170.466,384.933 169.926,384.258 C169.385,383.582 167.805,382.893 165.184,382.191 C164.995,382.137 164.698,382.056 164.292,381.948 L164.292,381.502 C164.292,381.232 164.319,380.934 164.373,380.61 C168.048,380.232 171.209,379.597 173.857,378.705 L175.924,378.665 C176.032,380.502 176.086,382.555 176.086,384.825 L175.924,400.428 L176.207,418.017 L176.086,427.379 C176.086,429.297 176.221,430.378 176.491,430.621 C177.031,431.161 178.22,431.445 180.057,431.472 C180.436,431.472 180.949,431.499 181.598,431.553 L181.598,432.282 C181.598,432.472 181.584,432.674 181.557,432.89 C180.719,433.08 179.855,433.255 178.963,433.417 L173.087,434.552 C172.222,434.714 171.533,434.795 171.02,434.795 L171.02,430.905 C170.561,431.04 169.845,431.31 168.872,431.715 C164.657,433.498 160.78,434.39 157.241,434.39 C155.106,434.39 152.931,433.694 150.716,432.303 C148.5,430.911 146.798,428.973 145.609,426.487 C144.42,424.001 143.826,421.462 143.826,418.868 C143.826,416.544 144.218,414.322 145.001,412.201 C145.785,410.08 146.812,408.317 148.081,406.912 C148.892,405.994 150.04,405.082 151.526,404.177 C153.012,403.272 154.242,402.698 155.214,402.454 C157.619,401.833 159.226,401.522 160.037,401.522 C163.684,401.522 166.683,402.063 169.034,403.143 C169.764,403.495 170.317,403.738 170.696,403.873 M170.736,428.919 C170.844,427.109 170.898,423.38 170.898,417.733 C170.898,412.951 170.675,409.932 170.23,408.675 C169.784,407.419 168.669,406.23 166.886,405.109 C165.103,403.988 163.104,403.427 160.888,403.427 C157.781,403.427 155.147,404.629 152.985,407.034 C150.824,409.439 149.743,412.991 149.743,417.693 C149.743,421.826 150.912,425.123 153.249,427.581 C155.586,430.04 158.497,431.269 161.982,431.269 C163.982,431.269 165.805,430.999 167.453,430.459 C169.102,429.918 170.196,429.405 170.736,428.919 M185.569,417.004 C185.569,415.166 185.954,413.201 186.724,411.107 C187.494,409.013 188.663,407.135 190.23,405.474 C191.797,403.812 193.459,402.576 195.215,401.765 C197.673,400.631 200.672,400.063 204.212,400.063 C209.264,400.063 213.486,401.792 216.877,405.251 C220.267,408.709 221.963,412.87 221.963,417.733 C221.963,422.056 220.186,425.913 216.633,429.304 C213.081,432.695 208.589,434.39 203.158,434.39 C199.808,434.39 196.647,433.512 193.675,431.756 C191.459,430.432 189.554,428.473 187.96,425.879 C186.366,423.285 185.569,420.327 185.569,417.004 M203.482,432.809 C205.536,432.809 207.515,432.255 209.42,431.148 C211.324,430.04 212.844,428.264 213.979,425.818 C215.114,423.373 215.681,420.543 215.681,417.328 C215.681,415.22 215.242,412.775 214.364,409.992 C213.486,407.21 212.135,405.122 210.311,403.731 C208.487,402.34 206.346,401.644 203.888,401.644 C202.104,401.644 200.287,402.063 198.437,402.9 C196.586,403.738 195.019,405.345 193.735,407.723 C192.452,410.101 191.81,413.478 191.81,417.855 C191.81,422.772 192.925,426.494 195.154,429.02 C197.383,431.546 200.159,432.809 203.482,432.809 M230.831,423.002 C231.831,425.568 232.587,427.23 233.1,427.987 C234.127,429.527 235.356,430.722 236.788,431.573 C238.22,432.424 239.774,432.85 241.449,432.85 C242.989,432.85 244.516,432.188 246.029,430.864 C247.109,429.864 247.65,428.703 247.65,427.379 C247.65,425.622 247.015,424.001 245.745,422.515 C244.475,421.056 242.064,419.658 238.511,418.321 C234.958,416.983 232.574,415.558 231.358,414.045 C230.142,412.532 229.534,410.803 229.534,408.858 C229.534,407.02 230.034,405.399 231.034,403.994 C232.033,402.589 233.411,401.529 235.167,400.813 C236.924,400.097 238.545,399.739 240.031,399.739 C241.949,399.739 243.671,399.888 245.198,400.185 C246.724,400.482 248.042,400.941 249.149,401.563 C249.365,402.941 249.541,404.967 249.676,407.642 L249.757,408.939 C249.406,408.966 249.109,408.979 248.866,408.979 L248.298,408.979 C247.488,406.737 246.252,404.96 244.59,403.65 C242.928,402.34 241.287,401.684 239.666,401.684 C238.045,401.684 236.734,402.177 235.735,403.164 C234.735,404.15 234.235,405.44 234.235,407.034 C234.235,408.25 234.64,409.331 235.451,410.276 C236.262,411.222 238.16,412.303 241.145,413.518 C244.131,414.734 246.306,415.862 247.67,416.902 C249.034,417.943 250.041,419.206 250.689,420.692 C251.338,422.178 251.662,423.596 251.662,424.947 C251.662,426.811 251.047,428.554 249.818,430.175 C248.589,431.796 247.049,432.938 245.198,433.6 C243.347,434.262 241.692,434.593 240.233,434.593 C236.802,434.593 233.641,433.958 230.75,432.688 C230.48,432.472 230.331,432.066 230.304,431.472 C230.304,431.229 230.277,430.837 230.223,430.297 C229.791,426.649 229.575,424.488 229.575,423.812 C229.575,423.488 229.642,423.272 229.777,423.164 C229.912,423.056 230.264,423.002 230.831,423.002"/>
<path class="Lyrics" d="M392.066,253.574 L392.106,252.722 C395.322,249.102 397.578,246.454 398.874,244.779 L402.117,240.645 C402.468,240.267 403.994,238.524 406.696,235.417 L410.344,231.162 C411.127,230.324 412.789,228.176 415.329,224.718 C415.085,224.556 414.802,224.475 414.478,224.475 L412.816,224.434 C410.844,224.38 408.277,224.407 405.116,224.515 C402.873,224.596 401.144,224.867 399.928,225.326 C399.037,225.65 398.24,226.164 397.537,226.866 C396.429,227.974 395.632,229.014 395.146,229.987 C394.903,230.473 394.511,230.878 393.971,231.202 C393.673,231.175 393.457,231.04 393.322,230.797 C393.43,230.5 393.68,229.777 394.072,228.629 C394.464,227.481 394.795,226.434 395.065,225.488 C395.957,222.489 396.767,220.111 397.497,218.355 L398.956,218.355 C398.902,218.706 398.861,218.963 398.834,219.125 C398.699,219.909 398.631,220.503 398.631,220.908 C398.631,221.476 398.874,221.881 399.361,222.124 C400.036,222.503 402.252,222.692 406.007,222.692 C406.899,222.692 407.953,222.665 409.168,222.611 C414.086,222.367 417.193,222.246 418.49,222.246 C419.003,222.246 420.178,222.3 422.016,222.408 C422.043,222.705 422.056,222.962 422.056,223.178 C422.056,223.637 421.975,223.989 421.813,224.232 C421.165,225.366 420.03,226.988 418.409,229.095 L410.141,239.186 L399.807,251.75 C400.347,251.75 401.239,251.777 402.481,251.831 L412.249,251.831 C413.383,251.858 414.511,251.601 415.633,251.061 C416.754,250.52 417.767,249.609 418.672,248.325 C419.577,247.042 420.273,245.536 420.759,243.806 C420.975,243.671 421.192,243.604 421.408,243.604 C421.732,243.604 421.989,243.739 422.178,244.009 L421.327,249.764 C421.083,251.925 420.786,253.236 420.435,253.695 L395.875,253.655 L393.363,253.655 C392.876,253.655 392.444,253.628 392.066,253.574 M426.344,274.607 C426.317,274.31 426.303,274.04 426.303,273.797 C426.303,273.608 426.33,273.378 426.384,273.108 L430.437,272.297 C431.085,271.973 431.612,271.581 432.018,271.122 C432.153,270.636 432.22,270.149 432.22,269.663 C432.22,265.502 432.112,257.572 431.896,245.873 L431.774,231.04 C431.72,228.69 431.572,227.204 431.329,226.582 C431.194,226.258 430.991,226.001 430.721,225.812 C430.045,225.299 428.694,224.867 426.668,224.515 L426.911,223.3 C429.829,222.057 431.781,221.091 432.767,220.402 C433.753,219.713 434.692,218.747 435.584,217.504 L436.07,217.383 C436.259,217.383 436.53,217.464 436.881,217.626 C436.854,219.328 436.84,220.449 436.84,220.99 L436.881,225.448 C438.88,223.935 440.961,222.807 443.122,222.063 C445.284,221.32 447.526,220.949 449.85,220.949 C454.01,220.949 457.523,222.415 460.387,225.346 C463.251,228.278 464.683,232.053 464.683,236.674 C464.683,240.105 463.879,243.185 462.271,245.914 C460.664,248.643 458.448,250.683 455.625,252.033 C452.801,253.384 449.958,254.06 447.094,254.06 C444.662,254.06 441.879,253.398 438.745,252.074 C438.232,251.858 437.772,251.669 437.367,251.507 C437.313,253.668 437.286,255.586 437.286,257.261 C437.286,265.61 437.516,270.284 437.975,271.284 C438.218,271.824 438.975,272.149 440.245,272.257 C442.406,272.419 443.838,272.729 444.541,273.189 C444.946,273.432 445.216,273.918 445.351,274.648 L441.339,274.729 L437.691,274.648 L431.612,274.688 L426.344,274.607 M436.921,228.244 C436.867,228.622 436.84,228.973 436.84,229.298 C436.84,238.943 436.935,244.347 437.124,245.509 C437.502,247.643 438.259,249.143 439.394,250.007 C441.15,251.385 443.662,252.074 446.932,252.074 C450.309,252.074 453.159,250.905 455.483,248.568 C457.806,246.231 458.968,243.199 458.968,239.47 C458.968,234.985 457.739,231.432 455.28,228.811 C452.822,226.191 449.579,224.88 445.554,224.88 C443.852,224.88 442.284,225.157 440.853,225.711 C439.421,226.265 438.11,227.109 436.921,228.244 M469.782,203.239 L469.782,202.347 C470.538,202.104 471.376,201.847 472.294,201.577 C473.645,201.145 475.645,200.483 478.292,199.591 L480.197,199.591 C480.224,200.888 480.238,201.631 480.238,201.82 C480.238,224.002 480.17,237.227 480.035,241.496 C479.954,244.009 479.914,245.346 479.914,245.509 C479.914,248.535 480.035,250.223 480.278,250.574 C480.603,251.061 481.595,251.399 483.257,251.588 C484.919,251.777 485.898,251.966 486.195,252.155 C486.411,252.263 486.52,252.452 486.52,252.722 C486.52,253.02 486.459,253.229 486.337,253.351 C486.216,253.472 485.993,253.533 485.668,253.533 C485.479,253.533 484.061,253.492 481.413,253.411 L476.104,253.249 L469.295,253.533 C468.863,253.56 468.539,253.479 468.323,253.29 C468.161,253.155 468.08,252.966 468.08,252.722 C468.08,252.452 468.167,252.256 468.343,252.135 C468.519,252.013 469.491,251.804 471.261,251.507 C473.031,251.209 474.044,250.959 474.301,250.757 C474.557,250.554 474.726,250.102 474.807,249.399 C474.915,248.427 474.969,245.684 474.969,241.172 L474.929,231.851 L475.05,222.205 L475.01,212.56 L475.131,207.818 C475.131,206.872 474.983,206.19 474.686,205.772 C474.388,205.353 473.753,204.941 472.781,204.535 C471.322,203.941 470.322,203.509 469.782,203.239 M489.633,237.16 C489.633,235.323 490.018,233.357 490.788,231.263 C491.558,229.169 492.726,227.292 494.293,225.63 C495.86,223.968 497.522,222.732 499.278,221.922 C501.737,220.787 504.736,220.22 508.275,220.22 C513.328,220.22 517.549,221.949 520.94,225.407 C524.331,228.865 526.026,233.026 526.026,237.889 C526.026,242.212 524.25,246.069 520.697,249.46 C517.144,252.851 512.652,254.546 507.222,254.546 C503.871,254.546 500.71,253.668 497.738,251.912 C495.523,250.588 493.618,248.629 492.024,246.035 C490.43,243.442 489.633,240.483 489.633,237.16 M507.546,252.966 C509.599,252.966 511.578,252.412 513.483,251.304 C515.388,250.196 516.908,248.42 518.042,245.975 C519.177,243.529 519.745,240.699 519.745,237.484 C519.745,235.377 519.306,232.932 518.427,230.149 C517.549,227.366 516.198,225.279 514.375,223.887 C512.551,222.496 510.41,221.8 507.951,221.8 C506.168,221.8 504.351,222.219 502.5,223.056 C500.649,223.894 499.082,225.502 497.799,227.879 C496.516,230.257 495.874,233.634 495.874,238.011 C495.874,242.928 496.989,246.65 499.218,249.176 C501.447,251.702 504.223,252.966 507.546,252.966"/>
<path class="Lyrics" d="M431.154,321.692 L429.857,321.773 L429.493,321.773 C431.06,317.585 433.167,314.181 435.815,311.56 C437.085,310.29 438.328,309.655 439.543,309.655 C440.273,309.655 440.935,309.973 441.529,310.607 C442.124,311.242 442.421,312.114 442.421,313.221 C442.421,314.41 442.286,315.619 442.016,316.849 C441.745,318.078 441.097,320.03 440.07,322.705 L436.423,331.986 C435.342,334.525 434.707,336.079 434.518,336.646 L433.951,338.267 C433.356,339.753 433.059,340.767 433.059,341.307 C433.059,341.469 433.154,341.82 433.343,342.361 C433.64,342.496 433.856,342.563 433.991,342.563 L436.625,341.307 C439.868,338.794 441.921,337.065 442.786,336.119 C444.461,334.39 446.366,332.053 448.5,329.108 C449.527,327.703 450.337,326.109 450.932,324.326 C451.337,323.11 451.54,321.908 451.54,320.719 C451.54,319.314 451.229,316.977 450.607,313.708 C450.607,312.438 450.932,311.384 451.58,310.547 C452.066,309.898 452.58,309.574 453.12,309.574 C453.687,309.574 454.248,309.925 454.802,310.628 C455.356,311.33 455.633,312.343 455.633,313.667 C455.633,317.126 454.66,320.908 452.715,325.015 C451.364,327.906 449.175,331.148 446.149,334.741 C443.123,338.335 439.949,341.131 436.625,343.131 C435.004,344.13 433.302,344.63 431.519,344.63 C430.979,344.63 430.33,344.482 429.574,344.184 C428.871,343.59 428.52,342.969 428.52,342.32 C428.52,341.212 428.844,339.861 429.493,338.267 C432.438,331.081 435.031,324.353 437.274,318.085 C437.679,316.896 437.882,315.91 437.882,315.126 C437.882,314.64 437.76,314.235 437.517,313.91 C437.328,313.667 437.112,313.546 436.869,313.546 C436.274,313.546 435.612,314.018 434.883,314.964 C433.532,316.72 432.289,318.963 431.154,321.692 M483.435,314.032 C483.705,313.573 483.88,313.208 483.961,312.938 C484.286,312.127 484.61,311.6 484.934,311.357 C485.691,311.276 486.244,311.236 486.596,311.236 C487.055,311.236 487.501,311.33 487.933,311.519 L488.055,312.006 C488.055,312.168 487.987,312.411 487.852,312.735 C487.771,312.897 487.595,313.411 487.325,314.275 L487.001,315.086 L484.326,322.34 C483.191,325.609 482.198,328.217 481.347,330.162 C480.496,332.107 479.76,334.086 479.139,336.099 C478.517,338.112 477.95,339.551 477.437,340.415 L477.274,340.821 C477.274,340.983 477.423,341.199 477.72,341.469 C478.936,340.794 479.963,340.064 480.8,339.281 C482.962,337.254 484.245,335.998 484.65,335.511 C484.948,335.16 485.231,334.836 485.501,334.539 C485.826,334.809 486.123,335.093 486.393,335.39 C485.637,336.444 484.367,337.876 482.583,339.686 C480.8,341.496 479.193,342.779 477.761,343.536 C476.653,344.103 475.613,344.387 474.64,344.387 C474.019,344.387 473.553,344.252 473.242,343.982 C472.931,343.712 472.776,343.36 472.776,342.928 C472.776,342.55 472.911,341.847 473.181,340.821 C473.857,339.037 474.329,337.862 474.6,337.295 C474.87,336.727 475.235,335.849 475.694,334.66 C475.964,333.931 476.518,332.661 477.355,330.851 C476.842,331.364 476.207,332.121 475.451,333.12 C473.262,335.876 470.749,338.484 467.913,340.942 C467.264,341.51 465.697,342.415 463.211,343.657 C462.293,344.009 461.212,344.238 459.969,344.346 C458.916,344.319 458.213,344.211 457.862,344.022 C457.213,343.671 456.687,343.117 456.281,342.361 C455.984,341.793 455.835,340.915 455.835,339.726 C455.835,337.997 456.214,336.079 456.97,333.971 C458.267,330.378 459.577,327.717 460.901,325.988 C463.171,322.989 465.42,320.611 467.649,318.855 C469.878,317.099 471.925,315.815 473.789,315.005 C476.248,313.924 478.382,313.384 480.192,313.384 C480.787,313.384 481.354,313.438 481.895,313.546 C482.435,313.654 482.948,313.816 483.435,314.032 M464.144,340.618 C464.792,340.456 465.359,340.226 465.846,339.929 C466.143,339.767 467.197,339.024 469.007,337.7 C472.303,334.377 474.167,332.472 474.6,331.986 C475.545,330.932 476.612,329.486 477.801,327.649 C478.125,327.19 478.814,325.92 479.868,323.84 L480.922,321.043 C481.3,319.395 481.489,318.449 481.489,318.206 C481.489,317.45 481.179,316.734 480.557,316.058 C480.152,315.653 479.49,315.45 478.571,315.45 C477.518,315.45 476.612,315.626 475.856,315.977 C474.154,316.788 472.6,317.815 471.195,319.057 C469.304,320.76 467.48,322.941 465.724,325.603 C463.968,328.264 462.725,330.486 461.996,332.269 C460.996,334.728 460.496,336.565 460.496,337.781 C460.496,338.781 460.699,339.524 461.104,340.01 C461.509,340.496 462.023,340.74 462.644,340.74 C462.86,340.74 463.36,340.699 464.144,340.618 M476.829,305.157 L476.099,305.116 C476.153,304.981 477.308,303.326 479.564,300.151 C481.82,296.977 483.097,295.227 483.394,294.903 C484.124,294.066 484.88,293.431 485.664,292.998 C486.204,292.728 486.771,292.593 487.366,292.593 C488.041,292.593 488.575,292.775 488.967,293.14 C489.358,293.505 489.554,293.944 489.554,294.457 C489.554,295.619 488.446,296.97 486.231,298.51 L476.829,305.157 "/>
<path class="Lyrics" d="M440.812,393.255 L442.068,393.295 L442.23,397.145 L442.149,402.13 C442.663,402.157 442.987,402.171 443.122,402.171 C443.825,402.171 445.162,402.117 447.134,402.009 C448.404,401.928 449.62,401.887 450.782,401.887 C451.322,401.887 452.133,401.9 453.213,401.928 C453.267,402.468 453.294,402.9 453.294,403.224 C453.294,403.576 453.213,404.129 453.051,404.886 L452.362,404.886 L446.081,405.089 L442.96,405.17 L442.23,405.251 C442.014,405.926 441.906,406.71 441.906,407.601 L442.028,413.68 L441.947,424.38 C441.947,427.19 442.312,429.054 443.041,429.972 C443.743,430.918 444.797,431.391 446.202,431.391 C446.905,431.391 448.228,431.175 450.174,430.742 C450.768,430.607 451.565,430.162 452.565,429.405 L452.93,429.405 C453.173,429.405 453.369,429.479 453.517,429.628 C453.666,429.777 453.74,429.972 453.74,430.216 L453.7,430.499 C452.538,431.769 451.207,432.695 449.708,433.275 C448.208,433.856 446.216,434.147 443.73,434.147 C441.974,434.147 440.522,433.741 439.373,432.931 C438.225,432.12 437.489,431.161 437.165,430.053 C436.84,428.946 436.678,426.528 436.678,422.799 L436.84,413.68 L436.8,409.303 L436.8,407.682 C436.8,406.926 436.773,406.169 436.719,405.413 L436.03,405.372 L432.707,405.494 L432.382,405.534 C432.085,405.534 431.862,405.467 431.714,405.332 C431.565,405.197 431.491,405.035 431.491,404.845 C431.491,404.521 431.592,404.258 431.795,404.055 C431.997,403.853 432.612,403.535 433.639,403.103 C434.341,402.806 435.158,402.245 436.091,401.421 C437.023,400.597 437.813,399.685 438.461,398.685 C438.786,398.145 439.245,397.118 439.839,395.605 C440.272,394.497 440.596,393.714 440.812,393.255 M486.357,427.784 C486.52,428.135 486.601,428.392 486.601,428.554 C486.601,428.959 486.276,429.675 485.628,430.702 C484.79,432.053 483.858,433.039 482.832,433.66 C482.183,434.066 481.291,434.268 480.157,434.268 C478.211,434.268 476.752,433.674 475.78,432.485 C475.185,431.783 474.767,430.526 474.523,428.716 L469.984,431.877 C468.39,432.796 467.174,433.377 466.337,433.62 C464.986,433.971 463.365,434.147 461.474,434.147 C460.096,434.147 459.008,433.735 458.211,432.911 C457.414,432.087 457.016,431.026 457.016,429.729 C457.016,427.865 458.157,425.636 460.44,423.042 C462.723,420.449 465.824,418.328 469.741,416.679 C472.497,415.518 474.186,414.775 474.807,414.45 C474.861,413.559 474.888,412.586 474.888,411.532 C474.888,408.101 474.409,405.778 473.449,404.562 C472.49,403.346 471.119,402.738 469.336,402.738 C467.472,402.738 465.729,403.468 464.108,404.927 C463.108,405.845 462.352,407.574 461.838,410.114 C461.676,410.817 461.366,411.573 460.906,412.384 C459.744,413.14 458.812,413.518 458.11,413.518 C457.515,413.518 456.975,413.343 456.489,412.991 C456.219,412.802 456.083,412.586 456.083,412.343 C456.083,411.641 456.833,410.053 458.333,407.581 C459.832,405.109 461.724,403.258 464.007,402.029 C466.29,400.8 468.282,400.185 469.984,400.185 C472.308,400.185 474.037,400.394 475.172,400.813 C476.307,401.232 477.306,401.968 478.171,403.022 C479.035,404.075 479.562,405.224 479.751,406.467 C479.86,407.061 479.914,409.182 479.914,412.829 L479.792,419.273 L479.832,423.974 C479.832,424.596 479.819,425.123 479.792,425.555 C479.765,426.338 479.751,426.919 479.751,427.298 C479.751,428.189 480.008,428.905 480.521,429.446 C481.035,429.986 481.643,430.256 482.345,430.256 C483.372,430.256 484.25,429.743 484.979,428.716 L485.466,428.068 C485.601,427.987 485.898,427.892 486.357,427.784 M474.442,426.609 C474.631,423.177 474.726,420.759 474.726,419.354 C474.726,418.625 474.686,417.639 474.604,416.396 C472.794,417.044 470.876,418.03 468.85,419.354 C466.823,420.678 465.216,422.205 464.027,423.934 C463.162,425.177 462.73,426.352 462.73,427.46 C462.73,428.513 463.088,429.392 463.804,430.094 C464.52,430.796 465.418,431.148 466.499,431.148 C467.337,431.148 468.35,430.851 469.539,430.256 C471.106,429.473 472.74,428.257 474.442,426.609"/>
<path class="Lyrics" d="M934.458,224.029 L934.498,222.854 L934.458,218.112 L934.498,209.156 C934.498,206.67 934.228,205.089 933.688,204.414 C933.147,203.738 931.567,203.049 928.946,202.347 C928.757,202.293 928.46,202.212 928.054,202.104 L928.054,201.658 C928.054,201.388 928.081,201.091 928.136,200.766 C931.81,200.388 934.971,199.753 937.619,198.862 L939.686,198.821 C939.794,200.658 939.848,202.712 939.848,204.981 L939.686,220.584 L939.97,238.173 L939.848,247.535 C939.848,249.453 939.983,250.534 940.253,250.777 C940.794,251.317 941.982,251.601 943.82,251.628 C944.198,251.628 944.711,251.655 945.36,251.709 L945.36,252.439 C945.36,252.628 945.346,252.831 945.319,253.047 C944.482,253.236 943.617,253.411 942.725,253.574 L936.849,254.708 C935.984,254.87 935.295,254.951 934.782,254.951 L934.782,251.061 C934.323,251.196 933.607,251.466 932.634,251.871 C928.419,253.655 924.542,254.546 921.003,254.546 C918.868,254.546 916.693,253.85 914.478,252.459 C912.262,251.068 910.56,249.129 909.371,246.643 C908.183,244.158 907.588,241.618 907.588,239.024 C907.588,236.701 907.98,234.478 908.763,232.357 C909.547,230.237 910.574,228.474 911.844,227.069 C912.654,226.15 913.802,225.238 915.288,224.333 C916.774,223.428 918.004,222.854 918.976,222.611 C921.381,221.989 922.989,221.678 923.799,221.678 C927.447,221.678 930.446,222.219 932.796,223.3 C933.526,223.651 934.08,223.894 934.458,224.029 M934.498,249.075 C934.606,247.265 934.66,243.536 934.66,237.889 C934.66,233.107 934.438,230.088 933.992,228.832 C933.546,227.575 932.431,226.386 930.648,225.265 C928.865,224.144 926.866,223.583 924.65,223.583 C921.543,223.583 918.909,224.786 916.747,227.19 C914.586,229.595 913.505,233.148 913.505,237.849 C913.505,241.983 914.674,245.279 917.011,247.738 C919.348,250.196 922.259,251.426 925.744,251.426 C927.744,251.426 929.567,251.155 931.216,250.615 C932.864,250.075 933.958,249.561 934.498,249.075 M946.454,252.317 C946.832,252.047 947.359,251.871 948.034,251.79 C950.493,251.439 952.047,250.993 952.695,250.453 C953.019,250.129 953.249,249.588 953.384,248.832 C953.546,247.805 953.627,245.292 953.627,241.294 L953.587,232.54 L953.668,229.014 C953.668,227.744 953.377,226.812 952.796,226.218 C952.216,225.623 950.831,225.069 948.642,224.556 L948.602,223.381 C952.33,222.516 955.221,220.571 957.275,217.545 C957.572,217.437 957.788,217.383 957.923,217.383 C958.085,217.383 958.301,217.437 958.572,217.545 L958.653,219.085 L958.653,226.623 L958.693,236.471 L958.531,246.886 L958.572,248.629 C958.599,249.656 958.747,250.291 959.017,250.534 C959.477,250.966 961.003,251.534 963.597,252.236 C963.975,252.344 964.313,252.466 964.61,252.601 L964.61,253.655 L963.921,253.655 C959.382,253.33 956.464,253.168 955.167,253.168 C952.06,253.168 949.574,253.276 947.71,253.492 C947.44,253.519 947.21,253.533 947.021,253.533 C946.805,253.533 946.623,253.465 946.474,253.33 C946.326,253.195 946.251,253.047 946.251,252.885 C946.251,252.749 946.319,252.56 946.454,252.317 M951.925,213.573 L956.95,206.319 C958.409,204.184 959.855,202.644 961.287,201.699 C961.881,201.293 962.53,201.091 963.232,201.091 C963.962,201.091 964.543,201.293 964.975,201.699 C965.407,202.104 965.623,202.577 965.623,203.117 C965.623,203.63 965.434,204.171 965.056,204.738 C964.678,205.305 963.773,206.075 962.341,207.048 L952.817,213.573 L952.371,213.614 L951.925,213.573 M970.236,250.169 C970.236,248.98 970.675,247.94 971.553,247.049 C972.431,246.157 973.451,245.711 974.613,245.711 C975.748,245.711 976.707,246.13 977.49,246.968 C978.274,247.805 978.666,248.859 978.666,250.129 C978.666,251.399 978.254,252.466 977.43,253.33 C976.606,254.195 975.613,254.627 974.451,254.627 C973.316,254.627 972.33,254.188 971.492,253.31 C970.655,252.432 970.236,251.385 970.236,250.169"/>
<path class="Lyrics" d="M922.559,315.288 C922.505,315.072 922.431,314.924 922.336,314.843 C922.242,314.761 922.127,314.721 921.992,314.721 C920.587,314.721 918.399,316.936 915.427,321.367 C915.129,321.394 914.913,321.408 914.778,321.408 C914.616,321.408 914.346,321.394 913.968,321.367 C914.535,320.233 915.46,318.801 916.744,317.072 C918.027,315.342 919.391,313.904 920.837,312.755 C922.282,311.607 923.654,310.749 924.95,310.182 C925.383,309.993 925.775,309.898 926.126,309.898 C926.261,309.898 926.463,309.912 926.734,309.939 C927.22,310.425 927.463,310.925 927.463,311.438 C927.463,311.762 927.429,312.087 927.362,312.411 C927.294,312.735 927.152,313.235 926.936,313.91 C926.126,316.234 925.531,317.869 925.153,318.814 L922.843,324.812 C922.303,326.19 921.776,327.649 921.262,329.189 C921.479,328.919 921.668,328.662 921.83,328.419 C924.343,324.745 927.051,321.226 929.956,317.862 C932.86,314.498 935.258,312.249 937.149,311.114 C938.5,310.276 939.783,309.858 940.999,309.858 C941.918,309.858 942.634,310.108 943.147,310.607 C943.661,311.107 943.917,311.749 943.917,312.532 C943.917,313.019 943.863,313.492 943.755,313.951 C943.566,314.978 943.147,316.41 942.499,318.247 C941.85,320.084 940.148,324.069 937.392,330.202 L933.34,339.564 L933.178,340.091 C933.178,340.253 933.272,340.496 933.461,340.821 C934.974,340.496 937.244,338.092 940.27,333.607 L941.931,333.647 C941.094,335.16 939.716,337.106 937.798,339.483 C936.312,341.293 934.718,342.698 933.015,343.698 C932.07,344.265 931.057,344.549 929.976,344.549 C929.327,344.549 928.841,344.414 928.517,344.144 C928.193,343.874 928.031,343.576 928.031,343.252 C928.031,341.82 928.72,339.605 930.097,336.606 L935.974,323.759 L938.243,318.368 C938.757,317.18 939.067,316.356 939.176,315.896 C939.284,315.437 939.338,314.978 939.338,314.518 C939.338,314.167 939.243,313.89 939.054,313.688 C938.865,313.485 938.622,313.384 938.324,313.384 C937.892,313.384 937.392,313.559 936.825,313.91 C934.826,315.099 932.624,317.139 930.219,320.03 C926.761,324.191 924.464,327.176 923.329,328.987 C920.492,333.472 918.02,338.051 915.913,342.725 C915.589,343.482 915.197,344.036 914.738,344.387 C914.17,344.468 913.738,344.509 913.441,344.509 C913.089,344.509 912.549,344.441 911.82,344.306 C911.712,344.09 911.657,343.914 911.657,343.779 C911.657,343.563 911.793,343.077 912.063,342.32 C912.657,340.564 914.116,336.862 916.44,331.216 L917.372,329.027 L922.559,315.288 M960.566,295.43 C960.566,294.484 960.93,293.64 961.66,292.897 C962.389,292.154 963.24,291.782 964.213,291.782 C965.132,291.782 965.915,292.107 966.564,292.755 C967.212,293.404 967.536,294.147 967.536,294.984 C967.536,296.065 967.131,297.051 966.321,297.943 C965.834,298.456 964.943,298.713 963.646,298.713 C962.781,298.713 962.052,298.415 961.457,297.821 C960.863,297.227 960.566,296.43 960.566,295.43 M958.985,313.627 C958.418,313.627 957.999,313.667 957.729,313.748 C956.459,314.424 955.527,315.005 954.932,315.491 C953.717,316.437 952.568,317.544 951.488,318.814 L949.137,319.341 C951.217,316.531 953.527,314.329 956.067,312.735 C958.607,311.141 960.606,310.344 962.065,310.344 C962.687,310.344 963.153,310.499 963.463,310.81 C963.774,311.121 963.929,311.519 963.929,312.006 C963.929,313.33 963.173,315.532 961.66,318.612 C961.471,318.99 961.025,319.963 960.323,321.53 C958.701,325.069 956.972,328.419 955.135,331.58 C954.541,332.607 953.892,333.823 953.19,335.228 C952.811,335.984 952.474,336.619 952.177,337.133 C951.339,338.538 950.92,339.578 950.92,340.253 C950.92,340.442 950.994,340.611 951.143,340.76 C951.292,340.908 951.474,340.983 951.69,340.983 C951.987,340.983 952.42,340.821 952.987,340.496 C953.933,339.956 955.061,339.058 956.371,337.801 C957.681,336.545 958.837,335.106 959.836,333.485 L961.498,333.485 C960.714,334.944 959.559,336.619 958.033,338.511 C956.506,340.402 954.77,341.915 952.825,343.05 C951.366,343.914 950.069,344.346 948.934,344.346 C948.07,344.346 947.435,344.164 947.03,343.799 C946.624,343.435 946.422,342.955 946.422,342.361 C946.422,340.28 947.948,336.363 951.001,330.608 L957.526,318.287 C958.202,317.018 958.674,316.018 958.945,315.288 C959.107,314.829 959.188,314.518 959.188,314.356 C959.188,314.221 959.12,313.978 958.985,313.627 M965.746,340.091 C965.746,338.902 966.185,337.862 967.063,336.97 C967.941,336.079 968.961,335.633 970.123,335.633 C971.258,335.633 972.217,336.052 973,336.889 C973.784,337.727 974.176,338.781 974.176,340.051 C974.176,341.32 973.764,342.388 972.939,343.252 C972.115,344.117 971.122,344.549 969.961,344.549 C968.826,344.549 967.84,344.11 967.002,343.232 C966.165,342.354 965.746,341.307 965.746,340.091"/>
<path class="Lyrics" d="M925.12,393.255 L926.376,393.295 L926.538,397.145 L926.457,402.13 C926.971,402.157 927.295,402.171 927.43,402.171 C928.132,402.171 929.47,402.117 931.442,402.009 C932.712,401.928 933.928,401.887 935.09,401.887 C935.63,401.887 936.441,401.9 937.521,401.928 C937.575,402.468 937.602,402.9 937.602,403.224 C937.602,403.576 937.521,404.129 937.359,404.886 L936.67,404.886 L930.388,405.089 L927.268,405.17 L926.538,405.251 C926.322,405.926 926.214,406.71 926.214,407.601 L926.336,413.68 L926.255,424.38 C926.255,427.19 926.619,429.054 927.349,429.972 C928.051,430.918 929.105,431.391 930.51,431.391 C931.213,431.391 932.536,431.175 934.482,430.742 C935.076,430.607 935.873,430.162 936.873,429.405 L937.238,429.405 C937.481,429.405 937.677,429.479 937.825,429.628 C937.974,429.777 938.048,429.972 938.048,430.216 L938.008,430.499 C936.846,431.769 935.515,432.695 934.016,433.275 C932.516,433.856 930.524,434.147 928.038,434.147 C926.282,434.147 924.829,433.741 923.681,432.931 C922.533,432.12 921.797,431.161 921.472,430.053 C921.148,428.946 920.986,426.528 920.986,422.799 L921.148,413.68 L921.108,409.303 L921.108,407.682 C921.108,406.926 921.081,406.169 921.027,405.413 L920.338,405.372 L917.014,405.494 L916.69,405.534 C916.393,405.534 916.17,405.467 916.022,405.332 C915.873,405.197 915.799,405.035 915.799,404.845 C915.799,404.521 915.9,404.258 916.103,404.055 C916.305,403.853 916.92,403.535 917.947,403.103 C918.649,402.806 919.466,402.245 920.398,401.421 C921.331,400.597 922.121,399.685 922.769,398.685 C923.094,398.145 923.553,397.118 924.147,395.605 C924.58,394.497 924.904,393.714 925.12,393.255 M943.471,383.488 C943.471,382.596 943.816,381.826 944.505,381.178 C945.194,380.529 946.025,380.205 946.997,380.205 C947.997,380.205 948.875,380.57 949.632,381.299 C950.388,382.029 950.766,382.812 950.766,383.65 C950.766,384.487 950.388,385.278 949.632,386.021 C948.875,386.764 947.997,387.135 946.997,387.135 C945.998,387.135 945.16,386.797 944.485,386.122 C943.809,385.446 943.471,384.568 943.471,383.488 M940.067,404.481 L940.108,403.305 C941.864,402.792 942.81,402.495 942.945,402.414 C943.917,401.982 944.937,401.32 946.004,400.428 C947.072,399.536 947.97,398.537 948.699,397.429 C949.024,397.375 949.28,397.348 949.47,397.348 L949.956,397.388 C950.064,398.685 950.118,399.631 950.118,400.225 C950.118,400.36 950.091,400.968 950.037,402.049 L950.037,404.197 L950.077,415.869 L949.956,428.23 C949.929,429.229 950.091,429.925 950.442,430.317 C950.793,430.709 951.834,431.148 953.563,431.634 C954.643,431.931 955.454,432.188 955.994,432.404 C956.075,432.593 956.116,432.755 956.116,432.89 C956.116,433.053 956.048,433.255 955.913,433.498 C954.86,433.471 953.509,433.404 951.861,433.296 C949.618,433.107 948.132,433.012 947.403,433.012 C947.051,433.012 944.89,433.08 940.918,433.215 C940.108,433.242 939.324,433.309 938.568,433.417 C938.433,433.417 938.216,433.377 937.919,433.296 C937.784,433.107 937.717,432.944 937.717,432.809 C937.717,432.431 937.973,432.134 938.487,431.918 C938.595,431.864 939.973,431.553 942.62,430.986 C943.485,430.824 944.052,430.553 944.323,430.175 C944.782,429.608 945.011,428.703 945.011,427.46 C945.066,425.379 945.093,419.678 945.093,410.357 C945.093,408.493 945.011,407.331 944.849,406.872 C944.714,406.548 944.356,406.176 943.775,405.757 C943.195,405.339 941.958,404.913 940.067,404.481 M961.58,430.013 C961.58,428.824 962.019,427.784 962.897,426.892 C963.775,426.001 964.795,425.555 965.957,425.555 C967.092,425.555 968.051,425.974 968.834,426.811 C969.618,427.649 970.01,428.703 970.01,429.972 C970.01,431.242 969.598,432.31 968.773,433.174 C967.949,434.039 966.956,434.471 965.795,434.471 C964.66,434.471 963.674,434.032 962.836,433.154 C961.999,432.276 961.58,431.229 961.58,430.013"/>
<polyline class="LyricsLineSegment" fill="none" stroke="#000000" stroke-width="4.15" stroke-linejoin="bevel" points="322.693,330.624 344.803,330.624"/>
<polyline class="LyricsLineSegment" fill="none" stroke="#000000" stroke-width="4.15" stroke-linejoin="bevel" points="330.513,420.733 352.623,420.733"/>
<polyline class="LyricsLineSegment" fill="none" stroke="#000000" stroke-width="4.15" stroke-linejoin="bevel" points="705.734,240.889 727.844,240.889"/>
<polyline class="LyricsLineSegment" fill="none" stroke="#000000" stroke-width="4.15" stroke-linejoin="bevel" points="689.547,330.624 711.657,330.624"/>
<polyline class="LyricsLineSegment" fill="none" stroke="#000000" stroke-width="4.15" stroke-linejoin="bevel" points="690.133,420.733 712.243,420.733"/>
<path class="NoteDot" transform="matrix(1.10551,0,0,1.10551,967.119,121.952)" d="M5,5 C7.8,5 10,2.8 10,0 C10,-2.8 7.8,-5 5,-5 C2.2,-5 0,-2.8 0,0 C0,2.8 2.2,5 5,5"/>
</svg>
