<?xml version="1.0" encoding="UTF-8" standalone="no"?>
<svg width="2098.77px" height="2977.23px" viewBox="0 0 2098.77 2977.23"
 xmlns="http://www.w3.org/2000/svg" xmlns:xlink="http://www.w3.org/1999/xlink" version="1.2" baseProfile="tiny">
<title>06. Alleluia (4)</title>
<desc>Generated by MuseScore 3.6.2</desc>
<polyline class="StaffLines" fill="none" stroke="#000000" stroke-width="3.59" stroke-linejoin="bevel" points="14.1732,55.6299 2084.6,55.6299"/>
<polyline class="StaffLines" fill="none" stroke="#000000" stroke-width="3.59" stroke-linejoin="bevel" points="14.1732,83.2677 2084.6,83.2677"/>
<polyline class="StaffLines" fill="none" stroke="#000000" stroke-width="3.59" stroke-linejoin="bevel" points="14.1732,110.906 2084.6,110.906"/>
<polyline class="StaffLines" fill="none" stroke="#000000" stroke-width="3.59" stroke-linejoin="bevel" points="14.1732,138.543 2084.6,138.543"/>
<polyline class="StaffLines" fill="none" stroke="#000000" stroke-width="3.59" stroke-linejoin="bevel" points="14.1732,166.181 2084.6,166.181"/>
<polyline class="BarLine" fill="none" stroke="#000000" stroke-width="4.42" stroke-linejoin="bevel" points="2057.51,53.8335 2057.51,167.978"/>
<polyline class="BarLine" fill="none" stroke="#000000" stroke-width="13.82" stroke-linejoin="bevel" points="2077.69,53.8335 2077.69,167.978"/>
<polyline class="Stem" fill="none" stroke="#000000" stroke-width="3.32" stroke-linejoin="bevel" points="214.262,134.829 214.262,45.2658"/>
<polyline class="Stem" fill="none" stroke="#000000" stroke-width="3.32" stroke-linejoin="bevel" points="339.842,121.01 339.842,34.9016"/>
<polyline class="Stem" fill="none" stroke="#000000" stroke-width="3.32" stroke-linejoin="bevel" points="465.421,148.648 465.421,55.6299"/>
<polyline class="Stem" fill="none" stroke="#000000" stroke-width="3.32" stroke-linejoin="bevel" points="591,134.829 591,45.2658"/>
<polyline class="Stem" fill="none" stroke="#000000" stroke-width="3.32" stroke-linejoin="bevel" points="778.996,121.01 778.996,34.9016"/>
<polyline class="Stem" fill="none" stroke="#000000" stroke-width="3.32" stroke-linejoin="bevel" points="945.556,134.829 945.556,45.2658"/>
<polyline class="Stem" fill="none" stroke="#000000" stroke-width="3.32" stroke-linejoin="bevel" points="1135.61,148.648 1135.61,55.6299"/>
<polyline class="Stem" fill="none" stroke="#000000" stroke-width="3.32" stroke-linejoin="bevel" points="1261.19,121.01 1261.19,34.9016"/>
<polyline class="Stem" fill="none" stroke="#000000" stroke-width="3.32" stroke-linejoin="bevel" points="1353.72,100.801 1353.72,186.909"/>
<polyline class="Stem" fill="none" stroke="#000000" stroke-width="3.32" stroke-linejoin="bevel" points="1479.3,114.62 1479.3,197.274"/>
<polyline class="Stem" fill="none" stroke="#000000" stroke-width="3.32" stroke-linejoin="bevel" points="1637.93,121.01 1637.93,34.9016"/>
<polyline class="Stem" fill="none" stroke="#000000" stroke-width="3.32" stroke-linejoin="bevel" points="1730.45,100.801 1730.45,186.909"/>
<polyline class="Stem" fill="none" stroke="#000000" stroke-width="3.32" stroke-linejoin="bevel" points="1889.09,134.829 1889.09,45.2658"/>
<path class="Note" transform="matrix(1.10551,0,0,1.10551,179.551,138.543)" d="M0,4.7 C0,10.5 4.8,14 10.8,14 C20.7,14 32.9,4.8 32.9,-4.7 C32.9,-10.3 28.4,-14 22,-14 C9.8,-14 0,-4.9 0,4.7"/>
<path class="Note" transform="matrix(1.10551,0,0,1.10551,305.13,124.724)" d="M0,4.7 C0,10.5 4.8,14 10.8,14 C20.7,14 32.9,4.8 32.9,-4.7 C32.9,-10.3 28.4,-14 22,-14 C9.8,-14 0,-4.9 0,4.7"/>
<path class="Note" transform="matrix(1.10551,0,0,1.10551,430.71,152.362)" d="M0,4.7 C0,10.5 4.8,14 10.8,14 C20.7,14 32.9,4.8 32.9,-4.7 C32.9,-10.3 28.4,-14 22,-14 C9.8,-14 0,-4.9 0,4.7"/>
<path class="Note" transform="matrix(1.10551,0,0,1.10551,556.289,138.543)" d="M0,4.7 C0,10.5 4.8,14 10.8,14 C20.7,14 32.9,4.8 32.9,-4.7 C32.9,-10.3 28.4,-14 22,-14 C9.8,-14 0,-4.9 0,4.7"/>
<path class="Note" transform="matrix(1.10551,0,0,1.10551,744.284,124.724)" d="M0,4.7 C0,10.5 4.8,14 10.8,14 C20.7,14 32.9,4.8 32.9,-4.7 C32.9,-10.3 28.4,-14 22,-14 C9.8,-14 0,-4.9 0,4.7"/>
<path class="Note" transform="matrix(1.10551,0,0,1.10551,910.845,138.543)" d="M0,4.7 C0,10.5 4.8,14 10.8,14 C20.7,14 32.9,4.8 32.9,-4.7 C32.9,-10.3 28.4,-14 22,-14 C9.8,-14 0,-4.9 0,4.7"/>
<path class="Note" transform="matrix(1.10551,0,0,1.10551,1226.48,124.724)" d="M0,4.7 C0,10.5 4.8,14 10.8,14 C20.7,14 32.9,4.8 32.9,-4.7 C32.9,-10.3 28.4,-14 22,-14 C9.8,-14 0,-4.9 0,4.7"/>
<path class="Note" transform="matrix(1.10551,0,0,1.10551,1352.06,97.0866)" d="M0,4.7 C0,10.5 4.8,14 10.8,14 C20.7,14 32.9,4.8 32.9,-4.7 C32.9,-10.3 28.4,-14 22,-14 C9.8,-14 0,-4.9 0,4.7"/>
<path class="Note" transform="matrix(1.10551,0,0,1.10551,1477.64,110.906)" d="M0,4.7 C0,10.5 4.8,14 10.8,14 C20.7,14 32.9,4.8 32.9,-4.7 C32.9,-10.3 28.4,-14 22,-14 C9.8,-14 0,-4.9 0,4.7"/>
<path class="Note" transform="matrix(1.10551,0,0,1.10551,1603.22,124.724)" d="M0,4.7 C0,10.5 4.8,14 10.8,14 C20.7,14 32.9,4.8 32.9,-4.7 C32.9,-10.3 28.4,-14 22,-14 C9.8,-14 0,-4.9 0,4.7"/>
<path class="Note" transform="matrix(1.10551,0,0,1.10551,1728.8,97.0866)" d="M0,4.7 C0,10.5 4.8,14 10.8,14 C20.7,14 32.9,4.8 32.9,-4.7 C32.9,-10.3 28.4,-14 22,-14 C9.8,-14 0,-4.9 0,4.7"/>
<path class="Note" transform="matrix(1.10551,0,0,1.10551,1854.38,138.543)" d="M10.8,14 C29.2,14 32.9,-1 32.9,-4.6 C32.9,-10.3 28.4,-14 21.9,-14 C5.2,-14 0,-1.1 0,4.7 C0,10.6 4.7,14 10.8,14 M3.3,4.9 C3.3,-0.5 19.4,-9.4 24.7,-9.4 C26.8,-9.4 28,-8.4 28.8,-7 C29.1,-6.4 29.4,-5.7 29.4,-4.9 C29.4,-2.7 27.1,0 19.3,5.1 C14.3,8.5 10.8,9.7 8.4,9.7 C6.1,9.7 4.7,8.5 4,7.1 C3.6,6.5 3.3,5.7 3.3,4.9"/>
<path class="Note" transform="matrix(1.10551,0,0,1.10551,1100.9,152.362)" d="M0,4.7 C0,10.5 4.8,14 10.8,14 C20.7,14 32.9,4.8 32.9,-4.7 C32.9,-10.3 28.4,-14 22,-14 C9.8,-14 0,-4.9 0,4.7"/>
<path class="Clef" transform="matrix(1.10551,0,0,1.10551,36.2835,138.543)" d="M36.4,25.2 C38.7,25.2 41.3,25 43.3,24.6 C44.4,24.4 44.6,24.3 44.8,25.5 C46,32.2 47.5,40.9 47.5,45.6 C47.5,60.4 37.5,62.2 31.6,62.2 C26.2,62.2 23.6,60.6 23.6,59.3 C23.6,58.6 24.5,58.3 26.8,57.6 C29.9,56.7 33.5,54 33.5,48.2 C33.5,42.7 30,38 23.9,38 C17.2,38 13.2,43.3 13.2,49.5 C13.2,56 17.1,65.8 32.2,65.8 C38.9,65.8 51.9,62.8 51.9,45.8 C51.9,40.1 50.1,30.6 49,24.4 C48.8,23.2 48.9,23.3 50.3,22.7 C60.4,18.7 67.1,10.2 67.1,-1.1 C67.1,-13.9 57.7,-25.2 43,-25.2 C40.4,-25.2 40.4,-25.2 40.1,-27 L37.6,-41.5 C37.4,-42.7 37.6,-42.8 38.2,-43.4 C49,-53.5 57.2,-66.2 57.2,-81.5 C57.2,-90.2 54.8,-98.8 50.7,-104.8 C49.2,-107 46.6,-109.8 45.5,-109.8 C44.1,-109.8 41,-107.2 39,-105 C31.6,-96.8 29.2,-84.3 29.2,-73.9 C29.2,-68.1 29.9,-61.6 30.6,-57.5 C30.8,-56.3 30.9,-56.1 29.7,-55.1 C15.3,-43.2 0,-28.9 0,-8.7 C0,8.7 11.9,25.2 36.4,25.2 M8,-2 C8,-7.9 9,-15.8 17.3,-25.2 C23.3,-31.9 27.9,-35.6 32.6,-39.4 C33.6,-40.2 33.8,-40.1 34,-39 L36.1,-26.2 C36.4,-24.3 36.4,-24.4 34.6,-23.8 C25.8,-20.8 20.1,-12.9 20.1,-4.4 C20.1,4.6 24.8,11 31.6,13.3 C32.4,13.6 33.6,13.9 34.3,13.9 C35.1,13.9 35.5,13.4 35.5,12.8 C35.5,12.1 34.7,11.8 34,11.5 C29.8,9.7 26.8,5.4 26.8,0.8 C26.8,-4.9 30.7,-9.2 36.8,-10.9 C38.4,-11.3 38.6,-11.2 38.8,-10.1 L43.8,19.7 C44,20.8 43.9,20.8 42.4,21.1 C40.8,21.4 38.8,21.6 36.8,21.6 C19.3,21.6 8,11.9 8,-2 M47,-94.3 C50.3,-94.3 53,-91.6 53,-86.1 C53,-75 43.5,-66 35.6,-59.1 C34.9,-58.5 34.5,-58.6 34.3,-59.9 C33.9,-62.5 33.7,-65.9 33.7,-69.1 C33.7,-84.7 40.9,-94.3 47,-94.3 M44.1,-11.7 C52.2,-11 58.9,-4.2 58.9,4.6 C58.9,10.9 55.1,16 49.5,18.8 C48.3,19.4 48.1,19.4 47.9,18.2 L43,-10.3 C42.8,-11.5 42.9,-11.8 44.1,-11.7"/>
<path class="Breath" transform="matrix(1.10551,0,0,1.10551,681.868,41.811)" d="M0.1,-18.8 C0.1,-15.4 2.4,-13.2 5.7,-13.2 C8.2,-13.2 8.5,-11.1 8.5,-11.1 C8.6,-10.7 8.7,-10.4 8.7,-10 C8.7,-8.6 8,-7.3 7.1,-6.1 C5.4,-3.9 2.8,-2.4 2.6,-2.2 C2.2,-2 1.8,-1.8 1.8,-1.3 C1.8,-1.2 1.9,-1.1 1.9,-1 C2,-0.4 2.3,-0.2 2.6,-0.2 C5.9,-0.2 11,-4.6 12.6,-7.1 C14.6,-10.2 15.2,-13.7 15.2,-16.6 L15.2,-17.3 C15.2,-22 11.8,-25.1 7.2,-25.1 C2.9,-25.1 0.1,-22.3 0.1,-18.8"/>
<path class="Lyrics" d="M160.071,274.582 C160.449,274.366 160.787,274.257 161.084,274.257 L162.016,274.257 C162.206,274.257 162.53,274.244 162.989,274.217 C165.07,274.028 166.299,273.839 166.677,273.65 C167.623,273.136 168.433,272.245 169.109,270.975 C170.514,268.219 172.094,264.315 173.85,259.262 C174.688,256.858 175.215,255.399 175.431,254.885 C176.106,253.264 176.755,251.562 177.376,249.779 L181.186,239.12 C181.78,237.445 183.212,233.609 185.482,227.611 C186.049,226.097 186.738,224.071 187.549,221.531 L188.724,221.45 L190.142,221.491 C191.304,223.787 192.331,226.26 193.223,228.907 C193.709,230.312 194.506,232.406 195.614,235.189 L201.774,251.846 L205.056,260.883 C206.786,266.017 207.92,269.171 208.461,270.347 C209.001,271.522 209.501,272.299 209.96,272.677 C210.095,272.785 210.602,272.947 211.48,273.163 C212.358,273.379 212.973,273.541 213.324,273.65 C214.567,274.001 215.431,274.298 215.918,274.541 C216.026,274.838 216.08,275.068 216.08,275.23 C216.08,275.365 216.039,275.568 215.958,275.838 C215.094,275.865 214.486,275.879 214.135,275.879 C212.757,275.879 210.325,275.838 206.84,275.757 L202.787,275.635 L197.883,275.716 C197.559,275.716 197.228,275.696 196.89,275.656 C196.553,275.615 196.262,275.595 196.019,275.595 L195.127,275.595 C194.83,275.568 194.56,275.487 194.317,275.352 C194.317,274.973 194.384,274.609 194.519,274.257 C194.844,274.095 195.141,274.001 195.411,273.974 L199.666,273.69 C200.774,273.636 201.612,273.487 202.179,273.244 C202.341,272.758 202.422,272.393 202.422,272.15 C202.422,271.664 202.071,270.407 201.369,268.381 C200.882,267.03 200.457,265.747 200.092,264.531 C199.727,263.315 198.288,259.316 195.776,252.535 C194.668,252.346 193.695,252.251 192.858,252.251 L184.185,252.332 L181.632,252.292 C180.713,252.292 179.7,252.359 178.592,252.494 C178.241,253.305 178.011,253.886 177.903,254.237 L174.337,265.382 C172.824,269.624 172.067,271.961 172.067,272.393 C172.067,272.636 172.189,273.042 172.432,273.609 C172.999,273.771 173.756,273.92 174.702,274.055 L180.213,274.541 C180.51,274.784 180.659,275 180.659,275.19 C180.659,275.325 180.619,275.527 180.537,275.798 C179.322,275.825 178.39,275.838 177.741,275.838 C175.58,275.838 173.067,275.771 170.203,275.635 C168.879,275.581 167.933,275.554 167.366,275.554 C166.799,275.554 165.813,275.581 164.408,275.635 C163.489,275.689 162.827,275.716 162.422,275.716 C161.773,275.716 160.936,275.676 159.909,275.595 L159.909,275.352 C159.909,275.163 159.963,274.906 160.071,274.582 M179.403,250.265 C182.294,250.427 185.59,250.508 189.291,250.508 C191.399,250.508 193.25,250.441 194.844,250.306 C194.573,249.252 194.263,248.266 193.911,247.347 C192.155,242.646 191.183,240.052 190.994,239.566 L187.306,230.204 L186.9,229.475 C186.738,229.799 186.144,231.19 185.117,233.649 C183.388,237.864 182.145,241.147 181.389,243.497 C181.037,244.551 180.673,245.598 180.294,246.638 C179.916,247.678 179.68,248.408 179.585,248.827 C179.491,249.245 179.349,249.671 179.16,250.103 L179.403,250.265 M218.827,225.665 L218.827,224.774 C219.584,224.53 220.422,224.274 221.34,224.004 C222.691,223.571 224.69,222.909 227.338,222.018 L229.243,222.018 C229.27,223.315 229.284,224.058 229.284,224.247 C229.284,246.429 229.216,259.654 229.081,263.923 C229,266.436 228.959,267.773 228.959,267.935 C228.959,270.961 229.081,272.65 229.324,273.001 C229.648,273.487 230.641,273.825 232.303,274.014 C233.964,274.203 234.944,274.393 235.241,274.582 C235.457,274.69 235.565,274.879 235.565,275.149 C235.565,275.446 235.504,275.656 235.383,275.777 C235.261,275.899 235.038,275.96 234.714,275.96 C234.525,275.96 233.107,275.919 230.459,275.838 L225.15,275.676 L218.341,275.96 C217.909,275.987 217.585,275.906 217.369,275.716 C217.206,275.581 217.125,275.392 217.125,275.149 C217.125,274.879 217.213,274.683 217.389,274.561 C217.564,274.44 218.537,274.23 220.307,273.933 C222.076,273.636 223.09,273.386 223.346,273.184 C223.603,272.981 223.772,272.528 223.853,271.826 C223.961,270.853 224.015,268.111 224.015,263.599 L223.974,254.278 L224.096,244.632 L224.056,234.986 L224.177,230.245 C224.177,229.299 224.029,228.617 223.731,228.198 C223.434,227.779 222.799,227.367 221.827,226.962 C220.368,226.368 219.368,225.935 218.827,225.665"/>
<path class="Lyrics" d="M299.438,225.665 L299.438,224.774 C300.195,224.53 301.032,224.274 301.951,224.004 C303.302,223.571 305.301,222.909 307.949,222.018 L309.854,222.018 C309.881,223.315 309.894,224.058 309.894,224.247 C309.894,246.429 309.827,259.654 309.691,263.923 C309.61,266.436 309.57,267.773 309.57,267.935 C309.57,270.961 309.691,272.65 309.935,273.001 C310.259,273.487 311.252,273.825 312.913,274.014 C314.575,274.203 315.554,274.393 315.852,274.582 C316.068,274.69 316.176,274.879 316.176,275.149 C316.176,275.446 316.115,275.656 315.993,275.777 C315.872,275.899 315.649,275.96 315.325,275.96 C315.136,275.96 313.717,275.919 311.069,275.838 L305.76,275.676 L298.952,275.96 C298.519,275.987 298.195,275.906 297.979,275.716 C297.817,275.581 297.736,275.392 297.736,275.149 C297.736,274.879 297.824,274.683 297.999,274.561 C298.175,274.44 299.148,274.23 300.917,273.933 C302.687,273.636 303.7,273.386 303.957,273.184 C304.214,272.981 304.382,272.528 304.463,271.826 C304.572,270.853 304.626,268.111 304.626,263.599 L304.585,254.278 L304.707,244.632 L304.666,234.986 L304.788,230.245 C304.788,229.299 304.639,228.617 304.342,228.198 C304.045,227.779 303.41,227.367 302.437,226.962 C300.978,226.368 299.978,225.935 299.438,225.665 M348.428,254.48 L332.177,254.602 L329.097,254.602 C327.854,254.602 326.584,254.656 325.287,254.764 C325.044,255.574 324.922,256.128 324.922,256.425 L324.963,256.831 L324.963,257.236 L324.922,259.222 C324.922,260.87 325.443,262.89 326.483,265.281 C327.523,267.672 329.009,269.496 330.941,270.752 C332.873,272.008 335.284,272.677 338.175,272.758 C339.715,272.677 340.944,272.488 341.863,272.191 C342.781,271.893 344.078,271.204 345.753,270.124 L348.671,267.733 L348.915,269.354 C348.915,269.543 348.901,269.745 348.874,269.962 C347.658,271.502 346.118,272.853 344.254,274.014 C342.39,275.176 340.498,276.027 338.58,276.568 C337.662,276.811 336.149,276.932 334.041,276.932 C332.123,276.932 330.232,276.541 328.367,275.757 C325.611,274.568 323.443,272.657 321.863,270.022 C320.282,267.388 319.492,264.193 319.492,260.438 C319.492,259.249 319.715,257.722 320.16,255.858 C320.606,253.994 321.41,252.008 322.572,249.901 C323.355,248.469 324.315,247.293 325.449,246.375 C327.07,245.078 328.489,244.173 329.705,243.659 C331.461,242.93 333.501,242.565 335.824,242.565 C338.337,242.565 340.39,243.024 341.984,243.943 C344.146,245.159 345.76,246.726 346.827,248.644 C347.895,250.562 348.428,252.319 348.428,253.913 L348.428,254.48 M325.814,253.021 L327.719,253.021 C329.097,253.021 333.204,252.805 340.039,252.373 C341.12,252.319 341.782,252.211 342.025,252.048 C342.511,251.535 342.754,251.076 342.754,250.671 C342.754,249.833 342.484,248.881 341.944,247.813 C341.404,246.746 340.573,245.922 339.451,245.341 C338.33,244.76 337.027,244.47 335.541,244.47 C332.406,244.47 329.894,245.645 328.003,247.996 C326.544,249.779 325.814,251.454 325.814,253.021"/>
<path class="Lyrics" d="M421.236,225.665 L421.236,224.774 C421.993,224.53 422.83,224.274 423.749,224.004 C425.1,223.571 427.099,222.909 429.747,222.018 L431.652,222.018 C431.679,223.315 431.692,224.058 431.692,224.247 C431.692,246.429 431.625,259.654 431.49,263.923 C431.408,266.436 431.368,267.773 431.368,267.935 C431.368,270.961 431.49,272.65 431.733,273.001 C432.057,273.487 433.05,273.825 434.711,274.014 C436.373,274.203 437.352,274.393 437.65,274.582 C437.866,274.69 437.974,274.879 437.974,275.149 C437.974,275.446 437.913,275.656 437.792,275.777 C437.67,275.899 437.447,275.96 437.123,275.96 C436.934,275.96 435.515,275.919 432.867,275.838 L427.558,275.676 L420.75,275.96 C420.318,275.987 419.993,275.906 419.777,275.716 C419.615,275.581 419.534,275.392 419.534,275.149 C419.534,274.879 419.622,274.683 419.797,274.561 C419.973,274.44 420.946,274.23 422.715,273.933 C424.485,273.636 425.498,273.386 425.755,273.184 C426.012,272.981 426.18,272.528 426.262,271.826 C426.37,270.853 426.424,268.111 426.424,263.599 L426.383,254.278 L426.505,244.632 L426.464,234.986 L426.586,230.245 C426.586,229.299 426.437,228.617 426.14,228.198 C425.843,227.779 425.208,227.367 424.235,226.962 C422.776,226.368 421.776,225.935 421.236,225.665 M439.466,244.065 L442.506,244.065 L443.843,244.146 L444.897,244.065 C447.68,244.065 449.409,244.092 450.084,244.146 L450.125,244.916 C450.125,248.725 450.071,252.413 449.963,255.98 C449.882,258.087 449.841,259.289 449.841,259.587 C449.841,264.342 449.996,267.314 450.307,268.503 C450.618,269.691 451.347,270.644 452.496,271.36 C453.644,272.076 455.029,272.434 456.65,272.434 C458.622,272.434 460.507,272.022 462.303,271.198 C464.1,270.374 465.633,269.367 466.903,268.178 C467.038,267.152 467.106,266.017 467.106,264.774 C467.106,260.748 467.146,258.033 467.227,256.628 C467.254,255.791 467.268,255.061 467.268,254.44 C467.268,250.063 467.052,247.59 466.619,247.023 C466.187,246.456 464.539,246.023 461.675,245.726 C460.729,245.618 460.04,245.524 459.608,245.443 C459.392,245.091 459.284,244.821 459.284,244.632 L459.406,244.186 C460.108,244.105 460.797,244.065 461.472,244.065 L467.916,244.146 C470.213,244.092 471.429,244.065 471.564,244.065 C471.861,244.065 472.145,244.078 472.415,244.105 L472.496,247.064 C472.307,251.17 472.199,256.25 472.172,262.302 L472.091,265.585 L472.253,271.096 C472.496,271.529 472.712,271.785 472.901,271.866 C473.225,272.001 473.887,272.069 474.887,272.069 L475.252,272.069 C475.603,272.069 476.603,272.15 478.251,272.312 C478.278,272.663 478.291,272.92 478.291,273.082 L478.291,273.528 C474.671,274.312 471.739,275.095 469.497,275.879 C468.605,276.176 467.849,276.392 467.227,276.527 C467.092,275.581 467.025,275 467.025,274.784 L467.025,271.502 C467.025,271.367 467.011,271.002 466.984,270.407 C466.633,270.651 466.228,270.948 465.768,271.299 C463.634,272.947 461.378,274.339 459,275.473 C457.406,276.257 455.866,276.649 454.38,276.649 C451.543,276.649 449.233,275.595 447.45,273.487 C445.64,271.38 444.735,267.787 444.735,262.707 C444.735,262.437 444.748,261.951 444.775,261.248 C444.883,259.951 444.937,259.046 444.937,258.533 C444.937,258.344 444.924,257.749 444.897,256.75 C444.87,256.317 444.856,255.939 444.856,255.615 C444.856,255.372 444.87,254.825 444.897,253.974 C444.924,253.122 444.937,252.521 444.937,252.17 C444.937,251.711 444.924,251.305 444.897,250.954 L444.816,248.806 L444.856,247.672 C444.856,247.239 444.64,246.847 444.208,246.496 C442.506,246.037 441.391,245.774 440.864,245.706 C440.337,245.638 439.871,245.524 439.466,245.361 L439.466,244.065 "/>
<path class="Lyrics" d="M553.31,226.84 C553.31,225.814 553.654,224.956 554.343,224.267 C555.032,223.578 555.863,223.234 556.835,223.234 C557.835,223.234 558.679,223.571 559.368,224.247 C560.057,224.922 560.402,225.8 560.402,226.881 C560.402,227.989 560.024,228.961 559.267,229.799 C558.727,230.393 557.93,230.691 556.876,230.691 C555.876,230.691 555.032,230.333 554.343,229.617 C553.654,228.901 553.31,227.975 553.31,226.84 M549.824,296.791 L552.904,293.022 C553.634,291.86 554.208,290.644 554.627,289.374 C555.045,288.104 555.336,286.537 555.498,284.673 C555.741,281.566 555.863,278.837 555.863,276.486 C555.863,275.811 555.836,274.865 555.782,273.65 L555.822,267.327 C555.849,259.411 555.795,254.305 555.66,252.008 C555.579,250.576 555.363,249.684 555.012,249.333 C554.498,248.847 553.323,248.523 551.486,248.361 C551.297,248.333 551.027,248.306 550.675,248.279 L550.756,246.739 C554.296,245.848 556.862,244.348 558.457,242.241 C558.808,241.809 559.2,241.376 559.632,240.944 L559.916,240.903 C560.051,240.903 560.24,240.958 560.483,241.066 L560.604,255.818 C560.794,266.111 560.888,271.704 560.888,272.596 C560.888,277.783 560.625,281.546 560.098,283.883 C559.571,286.22 558.578,288.55 557.119,290.874 C556.092,292.495 554.62,294.17 552.702,295.899 L551.04,297.399 L550.473,297.723 C550.229,297.507 550.013,297.196 549.824,296.791 M600.071,270.367 C600.233,270.718 600.314,270.975 600.314,271.137 C600.314,271.542 599.99,272.258 599.341,273.285 C598.504,274.636 597.572,275.622 596.545,276.243 C595.896,276.649 595.005,276.851 593.87,276.851 C591.925,276.851 590.466,276.257 589.493,275.068 C588.899,274.366 588.48,273.109 588.237,271.299 L583.698,274.46 C582.104,275.379 580.888,275.96 580.05,276.203 C578.699,276.554 577.078,276.73 575.187,276.73 C573.809,276.73 572.722,276.318 571.925,275.494 C571.128,274.67 570.729,273.609 570.729,272.312 C570.729,270.448 571.871,268.219 574.154,265.625 C576.437,263.031 579.537,260.91 583.455,259.262 C586.21,258.101 587.899,257.358 588.521,257.033 C588.575,256.142 588.602,255.169 588.602,254.115 C588.602,250.684 588.122,248.361 587.163,247.145 C586.204,245.929 584.833,245.321 583.049,245.321 C581.185,245.321 579.442,246.05 577.821,247.509 C576.822,248.428 576.065,250.157 575.552,252.697 C575.39,253.399 575.079,254.156 574.62,254.966 C573.458,255.723 572.526,256.101 571.823,256.101 C571.229,256.101 570.688,255.926 570.202,255.574 C569.932,255.385 569.797,255.169 569.797,254.926 C569.797,254.223 570.547,252.636 572.046,250.164 C573.546,247.692 575.437,245.841 577.72,244.612 C580.003,243.382 581.996,242.768 583.698,242.768 C586.021,242.768 587.75,242.977 588.885,243.396 C590.02,243.815 591.02,244.551 591.884,245.605 C592.749,246.658 593.276,247.807 593.465,249.049 C593.573,249.644 593.627,251.765 593.627,255.412 L593.505,261.856 L593.546,266.557 C593.546,267.179 593.532,267.706 593.505,268.138 C593.478,268.921 593.465,269.502 593.465,269.881 C593.465,270.772 593.722,271.488 594.235,272.028 C594.748,272.569 595.356,272.839 596.059,272.839 C597.085,272.839 597.963,272.326 598.693,271.299 L599.179,270.651 C599.314,270.569 599.611,270.475 600.071,270.367 M588.156,269.192 C588.345,265.76 588.439,263.342 588.439,261.937 C588.439,261.208 588.399,260.222 588.318,258.979 C586.508,259.627 584.589,260.613 582.563,261.937 C580.537,263.261 578.929,264.788 577.74,266.517 C576.876,267.76 576.443,268.935 576.443,270.043 C576.443,271.096 576.801,271.974 577.517,272.677 C578.233,273.379 579.132,273.731 580.212,273.731 C581.05,273.731 582.063,273.433 583.252,272.839 C584.819,272.055 586.454,270.84 588.156,269.192 M604.245,290.306 L604.286,289.05 C604.61,288.888 604.934,288.739 605.258,288.604 C608.095,287.253 609.993,285.855 610.952,284.41 C611.912,282.964 612.391,281.674 612.391,280.539 C612.391,279.783 612.121,279.121 611.581,278.553 C611.04,277.986 610.115,277.56 608.804,277.277 C607.494,276.993 606.636,276.77 606.231,276.608 C605.961,276.5 605.623,276.23 605.218,275.798 C604.948,275.23 604.813,274.69 604.813,274.176 C604.813,272.907 605.069,272.042 605.583,271.583 C606.663,270.637 607.785,270.164 608.946,270.164 C611,270.164 612.783,270.955 614.296,272.535 C615.809,274.116 616.565,276.095 616.565,278.472 C616.565,280.12 616.025,281.904 614.944,283.822 C613.864,285.74 612.229,287.294 610.041,288.483 C607.852,289.671 605.92,290.279 604.245,290.306"/>
<path class="Lyrics" d="M680.679,243.7 C683.678,243.727 686.299,243.821 688.542,243.984 C690.136,243.984 691.298,243.957 692.027,243.903 C692.54,243.875 692.865,243.862 693,243.862 L697.539,243.903 C698.16,244.011 698.66,244.078 699.038,244.105 C699.2,244.159 699.349,244.308 699.484,244.551 C699.484,244.821 699.403,245.105 699.241,245.402 C698.782,245.537 698.309,245.618 697.822,245.645 C695.796,245.861 694.094,246.172 692.716,246.577 C692.527,246.712 692.432,246.847 692.432,246.983 C692.432,247.253 692.567,247.672 692.838,248.239 C692.892,248.374 693.013,248.698 693.202,249.212 L697.255,258.938 C699.065,263.396 700.74,267.152 702.28,270.205 C703.334,268.205 704.307,266.139 705.198,264.004 C706.09,261.87 707.4,258.506 709.13,253.913 C709.616,252.616 710.075,251.008 710.508,249.09 C710.589,248.712 710.629,248.388 710.629,248.117 C710.629,247.793 710.447,247.435 710.082,247.043 C709.717,246.652 709.103,246.334 708.238,246.091 C708.049,246.064 706.82,245.861 704.55,245.483 C704.361,245.375 704.185,245.226 704.023,245.037 L704.023,244.713 C704.023,244.578 704.037,244.402 704.064,244.186 C704.712,244.105 705.185,244.065 705.482,244.065 L710.264,244.105 C710.589,244.105 711.359,244.065 712.574,243.984 C716.87,243.984 719.451,244.024 720.315,244.105 C720.477,244.159 720.626,244.321 720.761,244.591 C720.761,244.835 720.68,245.105 720.518,245.402 L719.261,245.726 C718.937,245.753 718.681,245.78 718.491,245.807 C716.168,246.023 714.736,246.348 714.196,246.78 C713.79,247.077 713.155,248.469 712.291,250.954 C711.885,252.17 711.291,253.71 710.508,255.574 L708.4,260.681 C708.103,261.41 707.779,262.207 707.427,263.072 L701.146,277.581 L699.93,277.581 C699.687,276.932 699.39,276.257 699.038,275.554 L695.958,269.029 L688.704,252.048 C687.245,248.752 686.367,246.969 686.07,246.699 C685.772,246.429 684.043,245.861 680.882,244.997 C680.72,244.564 680.639,244.254 680.639,244.065 L680.679,243.7 M722.22,276 L722.26,275.149 C725.476,271.529 727.732,268.881 729.029,267.206 L732.271,263.072 C732.622,262.694 734.148,260.951 736.85,257.844 L740.498,253.589 C741.281,252.751 742.943,250.603 745.483,247.145 C745.239,246.983 744.956,246.902 744.632,246.902 L742.97,246.861 C740.998,246.807 738.431,246.834 735.27,246.942 C733.027,247.023 731.298,247.293 730.082,247.753 C729.191,248.077 728.394,248.59 727.691,249.293 C726.583,250.4 725.786,251.441 725.3,252.413 C725.057,252.9 724.665,253.305 724.125,253.629 C723.828,253.602 723.611,253.467 723.476,253.224 C723.584,252.927 723.834,252.204 724.226,251.056 C724.618,249.907 724.949,248.86 725.219,247.915 C726.111,244.916 726.921,242.538 727.651,240.782 L729.11,240.782 C729.056,241.133 729.015,241.39 728.988,241.552 C728.853,242.335 728.785,242.93 728.785,243.335 C728.785,243.903 729.029,244.308 729.515,244.551 C730.19,244.929 732.406,245.118 736.161,245.118 C737.053,245.118 738.107,245.091 739.322,245.037 C744.24,244.794 747.347,244.673 748.644,244.673 C749.157,244.673 750.332,244.727 752.17,244.835 C752.197,245.132 752.21,245.389 752.21,245.605 C752.21,246.064 752.129,246.415 751.967,246.658 C751.319,247.793 750.184,249.414 748.563,251.522 L740.295,261.613 L729.961,274.176 C730.501,274.176 731.393,274.203 732.635,274.257 L742.403,274.257 C743.537,274.285 744.665,274.028 745.787,273.487 C746.908,272.947 747.921,272.035 748.826,270.752 C749.731,269.469 750.427,267.962 750.913,266.233 C751.129,266.098 751.346,266.03 751.562,266.03 C751.886,266.03 752.143,266.166 752.332,266.436 L751.481,272.191 C751.238,274.352 750.94,275.662 750.589,276.122 L726.03,276.081 L723.517,276.081 C723.03,276.081 722.598,276.054 722.22,276 M785.07,246.456 L785.11,245.28 L785.07,240.539 L785.11,231.582 C785.11,229.097 784.84,227.516 784.3,226.84 C783.759,226.165 782.179,225.476 779.558,224.774 C779.369,224.72 779.072,224.639 778.666,224.53 L778.666,224.085 C778.666,223.814 778.693,223.517 778.747,223.193 C782.422,222.815 785.583,222.18 788.231,221.288 L790.298,221.248 C790.406,223.085 790.46,225.138 790.46,227.408 L790.298,243.011 L790.581,260.6 L790.46,269.962 C790.46,271.88 790.595,272.961 790.865,273.204 C791.405,273.744 792.594,274.028 794.431,274.055 C794.81,274.055 795.323,274.082 795.971,274.136 L795.971,274.865 C795.971,275.055 795.958,275.257 795.931,275.473 C795.093,275.662 794.229,275.838 793.337,276 L787.461,277.135 C786.596,277.297 785.907,277.378 785.394,277.378 L785.394,273.487 C784.934,273.623 784.218,273.893 783.246,274.298 C779.031,276.081 775.154,276.973 771.614,276.973 C769.48,276.973 767.305,276.277 765.09,274.886 C762.874,273.494 761.172,271.556 759.983,269.07 C758.794,266.584 758.2,264.045 758.2,261.451 C758.2,259.127 758.592,256.905 759.375,254.784 C760.159,252.663 761.185,250.9 762.455,249.495 C763.266,248.577 764.414,247.665 765.9,246.76 C767.386,245.855 768.615,245.28 769.588,245.037 C771.993,244.416 773.6,244.105 774.411,244.105 C778.058,244.105 781.057,244.646 783.408,245.726 C784.137,246.077 784.691,246.321 785.07,246.456 M785.11,271.502 C785.218,269.691 785.272,265.963 785.272,260.316 C785.272,255.534 785.049,252.515 784.603,251.258 C784.158,250.002 783.043,248.813 781.26,247.692 C779.477,246.571 777.477,246.01 775.262,246.01 C772.155,246.01 769.521,247.212 767.359,249.617 C765.198,252.021 764.117,255.574 764.117,260.276 C764.117,264.409 765.285,267.706 767.623,270.164 C769.96,272.623 772.871,273.852 776.356,273.852 C778.356,273.852 780.179,273.582 781.827,273.042 C783.475,272.501 784.57,271.988 785.11,271.502 M829.082,254.48 L812.831,254.602 L809.751,254.602 C808.508,254.602 807.238,254.656 805.941,254.764 C805.698,255.574 805.576,256.128 805.576,256.425 L805.617,256.831 L805.617,257.236 L805.576,259.222 C805.576,260.87 806.096,262.89 807.137,265.281 C808.177,267.672 809.663,269.496 811.595,270.752 C813.527,272.008 815.938,272.677 818.829,272.758 C820.369,272.677 821.598,272.488 822.517,272.191 C823.435,271.893 824.732,271.204 826.407,270.124 L829.325,267.733 L829.569,269.354 C829.569,269.543 829.555,269.745 829.528,269.962 C828.312,271.502 826.772,272.853 824.908,274.014 C823.044,275.176 821.152,276.027 819.234,276.568 C818.315,276.811 816.802,276.932 814.695,276.932 C812.777,276.932 810.885,276.541 809.021,275.757 C806.265,274.568 804.097,272.657 802.517,270.022 C800.936,267.388 800.146,264.193 800.146,260.438 C800.146,259.249 800.369,257.722 800.814,255.858 C801.26,253.994 802.064,252.008 803.226,249.901 C804.009,248.469 804.968,247.293 806.103,246.375 C807.724,245.078 809.143,244.173 810.359,243.659 C812.115,242.93 814.155,242.565 816.478,242.565 C818.991,242.565 821.044,243.024 822.638,243.943 C824.8,245.159 826.414,246.726 827.481,248.644 C828.549,250.562 829.082,252.319 829.082,253.913 L829.082,254.48 M806.468,253.021 L808.373,253.021 C809.751,253.021 813.857,252.805 820.693,252.373 C821.774,252.319 822.436,252.211 822.679,252.048 C823.165,251.535 823.408,251.076 823.408,250.671 C823.408,249.833 823.138,248.881 822.598,247.813 C822.058,246.746 821.227,245.922 820.105,245.341 C818.984,244.76 817.681,244.47 816.195,244.47 C813.06,244.47 810.548,245.645 808.656,247.996 C807.197,249.779 806.468,251.454 806.468,253.021 M836.735,226.84 C836.735,225.814 837.079,224.956 837.768,224.267 C838.457,223.578 839.288,223.234 840.26,223.234 C841.26,223.234 842.104,223.571 842.793,224.247 C843.482,224.922 843.827,225.8 843.827,226.881 C843.827,227.989 843.449,228.961 842.692,229.799 C842.152,230.393 841.355,230.691 840.301,230.691 C839.301,230.691 838.457,230.333 837.768,229.617 C837.079,228.901 836.735,227.975 836.735,226.84 M833.249,296.791 L836.329,293.022 C837.059,291.86 837.633,290.644 838.052,289.374 C838.471,288.104 838.761,286.537 838.923,284.673 C839.166,281.566 839.288,278.837 839.288,276.486 C839.288,275.811 839.261,274.865 839.207,273.65 L839.247,267.327 C839.274,259.411 839.22,254.305 839.085,252.008 C839.004,250.576 838.788,249.684 838.437,249.333 C837.923,248.847 836.748,248.523 834.911,248.361 C834.722,248.333 834.452,248.306 834.1,248.279 L834.181,246.739 C837.721,245.848 840.287,244.348 841.882,242.241 C842.233,241.809 842.625,241.376 843.057,240.944 L843.341,240.903 C843.476,240.903 843.665,240.958 843.908,241.066 L844.03,255.818 C844.219,266.111 844.313,271.704 844.313,272.596 C844.313,277.783 844.05,281.546 843.523,283.883 C842.996,286.22 842.003,288.55 840.544,290.874 C839.517,292.495 838.045,294.17 836.127,295.899 L834.465,297.399 L833.898,297.723 C833.655,297.507 833.438,297.196 833.249,296.791"/>
<path class="Lyrics" d="M864.51,274.46 C864.943,274.163 865.537,273.96 866.293,273.852 C867.374,273.717 868.212,273.501 868.806,273.204 C869.293,272.798 869.617,272.218 869.779,271.461 C869.968,270.488 870.063,267.071 870.063,261.208 C870.063,255.453 869.887,251.738 869.536,250.063 C868.941,249.684 868.171,249.387 867.226,249.171 C866.928,249.117 866.307,248.968 865.361,248.725 L865.361,247.388 C866.955,246.929 868.246,246.334 869.232,245.605 C870.218,244.875 871.589,243.416 873.345,241.228 L873.588,241.228 C873.751,241.228 874.007,241.214 874.358,241.187 C874.575,241.214 874.75,241.282 874.885,241.39 L874.845,246.01 C874.845,246.956 874.872,247.969 874.926,249.049 C877.817,246.429 880.411,244.591 882.707,243.538 C884.274,242.835 886.044,242.484 888.016,242.484 C890.367,242.484 892.231,242.93 893.609,243.821 C894.987,244.713 896.297,246.321 897.54,248.644 C899.945,246.267 902.126,244.605 904.085,243.659 C906.044,242.714 908.023,242.241 910.022,242.241 C913.049,242.241 915.534,243.227 917.48,245.199 C919.398,247.199 920.384,250.13 920.438,253.994 L920.438,257.358 L920.479,261.046 L920.438,270.529 C920.411,271.637 920.654,272.474 921.168,273.042 C921.384,273.123 922.208,273.366 923.64,273.771 C924.531,274.014 925.058,274.203 925.22,274.339 C925.382,274.474 925.463,274.663 925.463,274.906 C925.463,275.203 925.382,275.554 925.22,275.96 L924.937,275.96 L920.843,275.716 C920.357,275.689 919.587,275.676 918.533,275.676 C917.236,275.676 915.426,275.73 913.103,275.838 L911.036,275.838 C910.738,275.838 910.158,275.852 909.293,275.879 C909.266,275.635 909.252,275.419 909.252,275.23 C909.252,275.014 909.347,274.744 909.536,274.42 C910.266,274.095 911.265,273.832 912.535,273.629 C913.805,273.427 914.595,273.062 914.906,272.535 C915.217,272.008 915.372,269.908 915.372,266.233 C915.372,258.263 915.278,253.643 915.088,252.373 C914.764,250.346 913.906,248.759 912.515,247.611 C911.123,246.462 909.374,245.888 907.267,245.888 C905.646,245.888 904.065,246.314 902.525,247.165 C900.985,248.016 899.472,249.293 897.986,250.995 L897.945,251.967 L897.945,258.168 L897.783,262.991 C897.783,267.908 897.831,270.705 897.925,271.38 C898.02,272.055 898.249,272.549 898.614,272.859 C898.979,273.17 900.039,273.447 901.795,273.69 C902.579,273.798 903.187,273.906 903.619,274.014 C903.943,274.285 904.105,274.636 904.105,275.068 C904.105,275.419 903.984,275.662 903.741,275.798 L903.052,275.798 L901.025,275.757 L889.232,275.757 L885.99,275.798 C885.936,275.392 885.909,275.095 885.909,274.906 L885.949,274.42 C886.544,274.095 887.651,273.785 889.272,273.487 C890.11,273.352 890.975,273.123 891.866,272.798 C892.028,272.663 892.15,272.488 892.231,272.272 C892.366,271.893 892.461,270.813 892.515,269.029 L892.717,264.328 L892.636,259.019 L892.677,256.061 C892.677,252.737 892.001,250.313 890.65,248.786 C889.3,247.26 887.597,246.496 885.544,246.496 C883.626,246.496 881.701,246.969 879.769,247.915 C877.837,248.86 876.236,250.13 874.966,251.724 C874.939,252.481 874.926,253.17 874.926,253.791 L875.088,267.408 C875.115,270.38 875.284,272.076 875.595,272.495 C875.905,272.913 876.601,273.204 877.682,273.366 C879.411,273.609 880.532,273.906 881.045,274.257 C881.289,274.42 881.41,274.663 881.41,274.987 C881.41,275.203 881.397,275.46 881.37,275.757 C878.29,275.541 876.223,275.433 875.169,275.433 C874.088,275.433 873.116,275.446 872.251,275.473 L870.225,275.595 L868.968,275.595 L864.429,275.757 C864.375,275.568 864.348,275.406 864.348,275.271 C864.348,275.136 864.402,274.865 864.51,274.46 M958.971,254.48 L942.72,254.602 L939.64,254.602 C938.397,254.602 937.127,254.656 935.83,254.764 C935.587,255.574 935.465,256.128 935.465,256.425 L935.506,256.831 L935.506,257.236 L935.465,259.222 C935.465,260.87 935.985,262.89 937.026,265.281 C938.066,267.672 939.552,269.496 941.484,270.752 C943.415,272.008 945.827,272.677 948.718,272.758 C950.258,272.677 951.487,272.488 952.406,272.191 C953.324,271.893 954.621,271.204 956.296,270.124 L959.214,267.733 L959.458,269.354 C959.458,269.543 959.444,269.745 959.417,269.962 C958.201,271.502 956.661,272.853 954.797,274.014 C952.933,275.176 951.041,276.027 949.123,276.568 C948.204,276.811 946.691,276.932 944.584,276.932 C942.666,276.932 940.774,276.541 938.91,275.757 C936.154,274.568 933.986,272.657 932.406,270.022 C930.825,267.388 930.035,264.193 930.035,260.438 C930.035,259.249 930.258,257.722 930.703,255.858 C931.149,253.994 931.953,252.008 933.115,249.901 C933.898,248.469 934.857,247.293 935.992,246.375 C937.613,245.078 939.032,244.173 940.248,243.659 C942.004,242.93 944.044,242.565 946.367,242.565 C948.88,242.565 950.933,243.024 952.527,243.943 C954.689,245.159 956.303,246.726 957.37,248.644 C958.438,250.562 958.971,252.319 958.971,253.913 L958.971,254.48 M936.357,253.021 L938.262,253.021 C939.64,253.021 943.746,252.805 950.582,252.373 C951.663,252.319 952.325,252.211 952.568,252.048 C953.054,251.535 953.297,251.076 953.297,250.671 C953.297,249.833 953.027,248.881 952.487,247.813 C951.946,246.746 951.116,245.922 949.994,245.341 C948.873,244.76 947.57,244.47 946.084,244.47 C942.949,244.47 940.437,245.645 938.545,247.996 C937.086,249.779 936.357,251.454 936.357,253.021 M963.625,276 L963.665,275.149 C966.88,271.529 969.136,268.881 970.433,267.206 L973.675,263.072 C974.027,262.694 975.553,260.951 978.255,257.844 L981.902,253.589 C982.686,252.751 984.348,250.603 986.887,247.145 C986.644,246.983 986.36,246.902 986.036,246.902 L984.375,246.861 C982.402,246.807 979.835,246.834 976.674,246.942 C974.432,247.023 972.703,247.293 971.487,247.753 C970.595,248.077 969.798,248.59 969.096,249.293 C967.988,250.4 967.191,251.441 966.705,252.413 C966.461,252.9 966.07,253.305 965.529,253.629 C965.232,253.602 965.016,253.467 964.881,253.224 C964.989,252.927 965.239,252.204 965.631,251.056 C966.022,249.907 966.353,248.86 966.624,247.915 C967.515,244.916 968.326,242.538 969.055,240.782 L970.514,240.782 C970.46,241.133 970.42,241.39 970.393,241.552 C970.258,242.335 970.19,242.93 970.19,243.335 C970.19,243.903 970.433,244.308 970.919,244.551 C971.595,244.929 973.81,245.118 977.566,245.118 C978.458,245.118 979.511,245.091 980.727,245.037 C985.644,244.794 988.751,244.673 990.048,244.673 C990.562,244.673 991.737,244.727 993.574,244.835 C993.601,245.132 993.615,245.389 993.615,245.605 C993.615,246.064 993.534,246.415 993.372,246.658 C992.723,247.793 991.588,249.414 989.967,251.522 L981.7,261.613 L971.365,274.176 C971.906,274.176 972.797,274.203 974.04,274.257 L983.807,274.257 C984.942,274.285 986.07,274.028 987.191,273.487 C988.312,272.947 989.326,272.035 990.231,270.752 C991.136,269.469 991.832,267.962 992.318,266.233 C992.534,266.098 992.75,266.03 992.966,266.03 C993.291,266.03 993.547,266.166 993.736,266.436 L992.885,272.191 C992.642,274.352 992.345,275.662 991.994,276.122 L967.434,276.081 L964.921,276.081 C964.435,276.081 964.003,276.054 963.625,276 M989.116,223.071 C985.442,229.556 982.862,233.96 981.376,236.283 L979.065,236.283 C978.768,235.851 977.688,234.054 975.823,230.893 L971.325,223.112 L971.487,222.058 C972.243,222.788 974.756,225.26 979.025,229.475 C979.484,229.907 980.025,230.393 980.646,230.934 C981.321,230.177 984.104,227.165 988.995,221.896 C989.076,222.139 989.116,222.355 989.116,222.545 L989.116,223.071 "/>
<path class="Lyrics" d="M1075.39,268.462 L1075.43,271.096 C1073.32,273.339 1071.24,274.906 1069.19,275.798 C1067.13,276.689 1064.72,277.135 1061.93,277.135 C1058.91,277.135 1056.18,276.345 1053.75,274.764 C1051.31,273.184 1049.44,270.948 1048.13,268.057 C1046.82,265.166 1046.17,262.329 1046.17,259.546 C1046.17,256.493 1046.96,253.609 1048.54,250.893 C1050.12,248.178 1052.21,246.152 1054.82,244.814 C1057.43,243.477 1060.7,242.808 1064.65,242.808 C1068.43,242.808 1071.31,243.457 1073.28,244.754 C1074.39,245.51 1074.94,246.483 1074.94,247.672 C1074.94,248.536 1074.66,249.252 1074.09,249.819 C1073.52,250.387 1072.79,250.671 1071.9,250.671 C1070.55,250.671 1069.06,249.833 1067.44,248.158 C1066.44,247.131 1065.54,246.422 1064.73,246.03 C1063.92,245.638 1063.01,245.443 1062.01,245.443 C1059.61,245.443 1057.61,246.429 1056.02,248.401 C1053.8,251.211 1052.69,254.737 1052.69,258.979 C1052.69,263.356 1053.83,266.841 1056.1,269.435 C1058.37,272.028 1061.01,273.325 1064.04,273.325 C1066.15,273.325 1068.02,272.981 1069.65,272.292 C1071.29,271.603 1073.2,270.326 1075.39,268.462 M1078.11,274.906 C1081.27,274.339 1083.09,273.906 1083.58,273.609 C1083.88,273.42 1084.03,272.988 1084.03,272.312 L1083.98,269.637 L1084.03,264.896 L1083.94,252.819 L1083.98,248.32 L1083.98,245.118 L1084.11,241.187 C1084.11,235.027 1084.05,231.346 1083.92,230.143 C1083.8,228.941 1083.57,228.191 1083.21,227.894 C1082.57,227.273 1080.78,226.624 1077.87,225.949 L1077.87,225.746 C1077.87,225.557 1077.89,225.287 1077.95,224.936 C1078.32,224.882 1078.69,224.814 1079.04,224.733 C1079.39,224.652 1079.73,224.598 1080.05,224.571 C1083.27,223.652 1085.61,222.761 1087.06,221.896 L1089.05,221.896 C1089.1,222.653 1089.13,225.044 1089.13,229.069 L1089.09,234.216 L1089.13,240.863 L1088.97,249.049 C1088.97,249.536 1089,250.076 1089.05,250.671 C1090.75,248.698 1092,247.388 1092.78,246.739 C1094.18,245.605 1095.68,244.706 1097.28,244.044 C1098.87,243.382 1100.55,243.051 1102.3,243.051 C1105.63,243.051 1108.34,244.456 1110.45,247.266 C1111.67,248.914 1112.27,251.251 1112.27,254.278 L1112.15,258.411 L1112.19,260.721 L1112.03,264.734 C1111.92,268.057 1111.87,270.029 1111.87,270.651 C1111.87,271.353 1111.89,272.299 1111.95,273.487 L1114.26,274.014 C1115.8,274.339 1116.99,274.636 1117.83,274.906 L1117.78,276.162 L1109.15,275.919 C1108.67,275.919 1107.34,275.973 1105.18,276.081 C1103.86,276.135 1103.09,276.162 1102.87,276.162 L1101.98,276.162 C1101.84,275.919 1101.78,275.716 1101.78,275.554 L1101.78,275.19 C1102.15,274.703 1102.86,274.379 1103.88,274.217 L1106.32,273.65 C1106.64,273.379 1106.83,273.096 1106.88,272.798 C1106.99,272.096 1107.11,268.611 1107.25,262.342 L1107.33,259.343 C1107.44,256.182 1107.19,253.562 1106.6,251.481 C1106.22,250.049 1105.36,248.908 1104.03,248.057 C1102.69,247.205 1101.14,246.78 1099.39,246.78 C1097.93,246.78 1096.55,247.091 1095.25,247.712 C1094.36,248.171 1093.29,248.968 1092.05,250.103 C1090.81,251.238 1089.94,252.211 1089.46,253.021 C1089.13,253.562 1088.97,254.453 1088.97,255.696 L1089.01,258.533 L1088.93,261.491 C1088.93,261.735 1088.97,263.423 1089.05,266.557 L1089.01,269.151 L1089.09,271.988 C1089.12,272.393 1089.16,272.69 1089.21,272.88 L1094.93,274.257 C1095.22,274.339 1095.67,274.501 1096.26,274.744 L1096.39,275.19 C1096.39,275.325 1096.32,275.541 1096.18,275.838 C1095.4,275.865 1094.81,275.879 1094.4,275.879 L1091.24,275.838 L1084.27,275.919 L1079.04,276.081 C1078.77,276.054 1078.37,276.027 1077.82,276 L1077.78,275.716 C1077.78,275.5 1077.89,275.23 1078.11,274.906 M1118.47,243.7 C1121.47,243.727 1124.09,243.821 1126.33,243.984 C1127.92,243.984 1129.08,243.957 1129.81,243.903 C1130.33,243.875 1130.65,243.862 1130.79,243.862 L1135.33,243.903 C1135.95,244.011 1136.45,244.078 1136.83,244.105 C1136.99,244.159 1137.14,244.308 1137.27,244.551 C1137.27,244.821 1137.19,245.105 1137.03,245.402 C1136.57,245.537 1136.1,245.618 1135.61,245.645 C1133.58,245.861 1131.88,246.172 1130.5,246.577 C1130.31,246.712 1130.22,246.847 1130.22,246.983 C1130.22,247.253 1130.35,247.672 1130.62,248.239 C1130.68,248.374 1130.8,248.698 1130.99,249.212 L1135.04,258.938 C1136.85,263.396 1138.53,267.152 1140.07,270.205 C1141.12,268.205 1142.09,266.139 1142.99,264.004 C1143.88,261.87 1145.19,258.506 1146.92,253.913 C1147.4,252.616 1147.86,251.008 1148.29,249.09 C1148.38,248.712 1148.42,248.388 1148.42,248.117 C1148.42,247.793 1148.23,247.435 1147.87,247.043 C1147.5,246.652 1146.89,246.334 1146.02,246.091 C1145.84,246.064 1144.61,245.861 1142.34,245.483 C1142.15,245.375 1141.97,245.226 1141.81,245.037 L1141.81,244.713 C1141.81,244.578 1141.82,244.402 1141.85,244.186 C1142.5,244.105 1142.97,244.065 1143.27,244.065 L1148.05,244.105 C1148.38,244.105 1149.15,244.065 1150.36,243.984 C1154.66,243.984 1157.24,244.024 1158.1,244.105 C1158.26,244.159 1158.41,244.321 1158.55,244.591 C1158.55,244.835 1158.47,245.105 1158.3,245.402 L1157.05,245.726 C1156.72,245.753 1156.47,245.78 1156.28,245.807 C1153.95,246.023 1152.52,246.348 1151.98,246.78 C1151.58,247.077 1150.94,248.469 1150.08,250.954 C1149.67,252.17 1149.08,253.71 1148.29,255.574 L1146.19,260.681 C1145.89,261.41 1145.57,262.207 1145.21,263.072 L1138.93,277.581 L1137.72,277.581 C1137.47,276.932 1137.18,276.257 1136.83,275.554 L1133.75,269.029 L1126.49,252.048 C1125.03,248.752 1124.15,246.969 1123.86,246.699 C1123.56,246.429 1121.83,245.861 1118.67,244.997 C1118.51,244.564 1118.43,244.254 1118.43,244.065 L1118.47,243.7 M1190.77,270.367 C1190.93,270.718 1191.01,270.975 1191.01,271.137 C1191.01,271.542 1190.69,272.258 1190.04,273.285 C1189.2,274.636 1188.27,275.622 1187.24,276.243 C1186.59,276.649 1185.7,276.851 1184.57,276.851 C1182.62,276.851 1181.16,276.257 1180.19,275.068 C1179.6,274.366 1179.18,273.109 1178.93,271.299 L1174.39,274.46 C1172.8,275.379 1171.58,275.96 1170.75,276.203 C1169.4,276.554 1167.77,276.73 1165.88,276.73 C1164.51,276.73 1163.42,276.318 1162.62,275.494 C1161.82,274.67 1161.43,273.609 1161.43,272.312 C1161.43,270.448 1162.57,268.219 1164.85,265.625 C1167.13,263.031 1170.23,260.91 1174.15,259.262 C1176.91,258.101 1178.6,257.358 1179.22,257.033 C1179.27,256.142 1179.3,255.169 1179.3,254.115 C1179.3,250.684 1178.82,248.361 1177.86,247.145 C1176.9,245.929 1175.53,245.321 1173.75,245.321 C1171.88,245.321 1170.14,246.05 1168.52,247.509 C1167.52,248.428 1166.76,250.157 1166.25,252.697 C1166.09,253.399 1165.78,254.156 1165.32,254.966 C1164.15,255.723 1163.22,256.101 1162.52,256.101 C1161.93,256.101 1161.38,255.926 1160.9,255.574 C1160.63,255.385 1160.49,255.169 1160.49,254.926 C1160.49,254.223 1161.24,252.636 1162.74,250.164 C1164.24,247.692 1166.13,245.841 1168.42,244.612 C1170.7,243.382 1172.69,242.768 1174.39,242.768 C1176.72,242.768 1178.45,242.977 1179.58,243.396 C1180.72,243.815 1181.72,244.551 1182.58,245.605 C1183.45,246.658 1183.97,247.807 1184.16,249.049 C1184.27,249.644 1184.32,251.765 1184.32,255.412 L1184.2,261.856 L1184.24,266.557 C1184.24,267.179 1184.23,267.706 1184.2,268.138 C1184.17,268.921 1184.16,269.502 1184.16,269.881 C1184.16,270.772 1184.42,271.488 1184.93,272.028 C1185.44,272.569 1186.05,272.839 1186.75,272.839 C1187.78,272.839 1188.66,272.326 1189.39,271.299 L1189.88,270.651 C1190.01,270.569 1190.31,270.475 1190.77,270.367 M1178.85,269.192 C1179.04,265.76 1179.14,263.342 1179.14,261.937 C1179.14,261.208 1179.1,260.222 1179.01,258.979 C1177.2,259.627 1175.29,260.613 1173.26,261.937 C1171.23,263.261 1169.63,264.788 1168.44,266.517 C1167.57,267.76 1167.14,268.935 1167.14,270.043 C1167.14,271.096 1167.5,271.974 1168.21,272.677 C1168.93,273.379 1169.83,273.731 1170.91,273.731 C1171.75,273.731 1172.76,273.433 1173.95,272.839 C1175.52,272.055 1177.15,270.84 1178.85,269.192 M1169.33,236 L1174.35,228.745 C1175.81,226.611 1177.26,225.071 1178.69,224.125 C1179.28,223.72 1179.93,223.517 1180.64,223.517 C1181.36,223.517 1181.95,223.72 1182.38,224.125 C1182.81,224.53 1183.03,225.003 1183.03,225.544 C1183.03,226.057 1182.84,226.597 1182.46,227.165 C1182.08,227.732 1181.18,228.502 1179.74,229.475 L1170.22,236 L1169.77,236.04 L1169.33,236 "/>
<path class="Lyrics" d="M1217.01,225.665 L1217.01,224.774 C1217.76,224.53 1218.6,224.274 1219.52,224.004 C1220.87,223.571 1222.87,222.909 1225.52,222.018 L1227.42,222.018 C1227.45,223.315 1227.46,224.058 1227.46,224.247 C1227.46,246.429 1227.39,259.654 1227.26,263.923 C1227.18,266.436 1227.14,267.773 1227.14,267.935 C1227.14,270.961 1227.26,272.65 1227.5,273.001 C1227.83,273.487 1228.82,273.825 1230.48,274.014 C1232.14,274.203 1233.12,274.393 1233.42,274.582 C1233.63,274.69 1233.74,274.879 1233.74,275.149 C1233.74,275.446 1233.68,275.656 1233.56,275.777 C1233.44,275.899 1233.22,275.96 1232.89,275.96 C1232.7,275.96 1231.28,275.919 1228.64,275.838 L1223.33,275.676 L1216.52,275.96 C1216.09,275.987 1215.76,275.906 1215.55,275.716 C1215.38,275.581 1215.3,275.392 1215.3,275.149 C1215.3,274.879 1215.39,274.683 1215.57,274.561 C1215.74,274.44 1216.71,274.23 1218.48,273.933 C1220.25,273.636 1221.27,273.386 1221.52,273.184 C1221.78,272.981 1221.95,272.528 1222.03,271.826 C1222.14,270.853 1222.19,268.111 1222.19,263.599 L1222.15,254.278 L1222.27,244.632 L1222.23,234.986 L1222.35,230.245 C1222.35,229.299 1222.21,228.617 1221.91,228.198 C1221.61,227.779 1220.98,227.367 1220,226.962 C1218.55,226.368 1217.55,225.935 1217.01,225.665 M1235.24,244.065 L1238.27,244.065 L1239.61,244.146 L1240.67,244.065 C1243.45,244.065 1245.18,244.092 1245.85,244.146 L1245.89,244.916 C1245.89,248.725 1245.84,252.413 1245.73,255.98 C1245.65,258.087 1245.61,259.289 1245.61,259.587 C1245.61,264.342 1245.77,267.314 1246.08,268.503 C1246.39,269.691 1247.12,270.644 1248.26,271.36 C1249.41,272.076 1250.8,272.434 1252.42,272.434 C1254.39,272.434 1256.28,272.022 1258.07,271.198 C1259.87,270.374 1261.4,269.367 1262.67,268.178 C1262.81,267.152 1262.87,266.017 1262.87,264.774 C1262.87,260.748 1262.92,258.033 1263,256.628 C1263.02,255.791 1263.04,255.061 1263.04,254.44 C1263.04,250.063 1262.82,247.59 1262.39,247.023 C1261.96,246.456 1260.31,246.023 1257.44,245.726 C1256.5,245.618 1255.81,245.524 1255.38,245.443 C1255.16,245.091 1255.05,244.821 1255.05,244.632 L1255.17,244.186 C1255.88,244.105 1256.57,244.065 1257.24,244.065 L1263.69,244.146 C1265.98,244.092 1267.2,244.065 1267.33,244.065 C1267.63,244.065 1267.91,244.078 1268.18,244.105 L1268.26,247.064 C1268.08,251.17 1267.97,256.25 1267.94,262.302 L1267.86,265.585 L1268.02,271.096 C1268.26,271.529 1268.48,271.785 1268.67,271.866 C1268.99,272.001 1269.66,272.069 1270.66,272.069 L1271.02,272.069 C1271.37,272.069 1272.37,272.15 1274.02,272.312 C1274.05,272.663 1274.06,272.92 1274.06,273.082 L1274.06,273.528 C1270.44,274.312 1267.51,275.095 1265.27,275.879 C1264.37,276.176 1263.62,276.392 1263,276.527 C1262.86,275.581 1262.79,275 1262.79,274.784 L1262.79,271.502 C1262.79,271.367 1262.78,271.002 1262.75,270.407 C1262.4,270.651 1262,270.948 1261.54,271.299 C1259.4,272.947 1257.15,274.339 1254.77,275.473 C1253.18,276.257 1251.64,276.649 1250.15,276.649 C1247.31,276.649 1245,275.595 1243.22,273.487 C1241.41,271.38 1240.5,267.787 1240.5,262.707 C1240.5,262.437 1240.52,261.951 1240.54,261.248 C1240.65,259.951 1240.71,259.046 1240.71,258.533 C1240.71,258.344 1240.69,257.749 1240.67,256.75 C1240.64,256.317 1240.63,255.939 1240.63,255.615 C1240.63,255.372 1240.64,254.825 1240.67,253.974 C1240.69,253.122 1240.71,252.521 1240.71,252.17 C1240.71,251.711 1240.69,251.305 1240.67,250.954 L1240.58,248.806 L1240.63,247.672 C1240.63,247.239 1240.41,246.847 1239.98,246.496 C1238.27,246.037 1237.16,245.774 1236.63,245.706 C1236.11,245.638 1235.64,245.524 1235.24,245.361 L1235.24,244.065 "/>
<path class="Lyrics" d="M1348.81,226.84 C1348.81,225.814 1349.15,224.956 1349.84,224.267 C1350.53,223.578 1351.36,223.234 1352.33,223.234 C1353.33,223.234 1354.18,223.571 1354.86,224.247 C1355.55,224.922 1355.9,225.8 1355.9,226.881 C1355.9,227.989 1355.52,228.961 1354.76,229.799 C1354.22,230.393 1353.43,230.691 1352.37,230.691 C1351.37,230.691 1350.53,230.333 1349.84,229.617 C1349.15,228.901 1348.81,227.975 1348.81,226.84 M1345.32,296.791 L1348.4,293.022 C1349.13,291.86 1349.7,290.644 1350.12,289.374 C1350.54,288.104 1350.83,286.537 1350.99,284.673 C1351.24,281.566 1351.36,278.837 1351.36,276.486 C1351.36,275.811 1351.33,274.865 1351.28,273.65 L1351.32,267.327 C1351.34,259.411 1351.29,254.305 1351.16,252.008 C1351.07,250.576 1350.86,249.684 1350.51,249.333 C1349.99,248.847 1348.82,248.523 1346.98,248.361 C1346.79,248.333 1346.52,248.306 1346.17,248.279 L1346.25,246.739 C1349.79,245.848 1352.36,244.348 1353.95,242.241 C1354.3,241.809 1354.7,241.376 1355.13,240.944 L1355.41,240.903 C1355.55,240.903 1355.74,240.958 1355.98,241.066 L1356.1,255.818 C1356.29,266.111 1356.38,271.704 1356.38,272.596 C1356.38,277.783 1356.12,281.546 1355.59,283.883 C1355.07,286.22 1354.07,288.55 1352.61,290.874 C1351.59,292.495 1350.12,294.17 1348.2,295.899 L1346.54,297.399 L1345.97,297.723 C1345.73,297.507 1345.51,297.196 1345.32,296.791 M1394.72,254.48 L1378.46,254.602 L1375.38,254.602 C1374.14,254.602 1372.87,254.656 1371.57,254.764 C1371.33,255.574 1371.21,256.128 1371.21,256.425 L1371.25,256.831 L1371.25,257.236 L1371.21,259.222 C1371.21,260.87 1371.73,262.89 1372.77,265.281 C1373.81,267.672 1375.3,269.496 1377.23,270.752 C1379.16,272.008 1381.57,272.677 1384.46,272.758 C1386,272.677 1387.23,272.488 1388.15,272.191 C1389.07,271.893 1390.37,271.204 1392.04,270.124 L1394.96,267.733 L1395.2,269.354 C1395.2,269.543 1395.19,269.745 1395.16,269.962 C1393.95,271.502 1392.41,272.853 1390.54,274.014 C1388.68,275.176 1386.79,276.027 1384.87,276.568 C1383.95,276.811 1382.44,276.932 1380.33,276.932 C1378.41,276.932 1376.52,276.541 1374.65,275.757 C1371.9,274.568 1369.73,272.657 1368.15,270.022 C1366.57,267.388 1365.78,264.193 1365.78,260.438 C1365.78,259.249 1366,257.722 1366.45,255.858 C1366.89,253.994 1367.7,252.008 1368.86,249.901 C1369.64,248.469 1370.6,247.293 1371.74,246.375 C1373.36,245.078 1374.78,244.173 1375.99,243.659 C1377.75,242.93 1379.79,242.565 1382.11,242.565 C1384.62,242.565 1386.68,243.024 1388.27,243.943 C1390.43,245.159 1392.05,246.726 1393.11,248.644 C1394.18,250.562 1394.72,252.319 1394.72,253.913 L1394.72,254.48 M1372.1,253.021 L1374.01,253.021 C1375.38,253.021 1379.49,252.805 1386.33,252.373 C1387.41,252.319 1388.07,252.211 1388.31,252.048 C1388.8,251.535 1389.04,251.076 1389.04,250.671 C1389.04,249.833 1388.77,248.881 1388.23,247.813 C1387.69,246.746 1386.86,245.922 1385.74,245.341 C1384.62,244.76 1383.31,244.47 1381.83,244.47 C1378.69,244.47 1376.18,245.645 1374.29,247.996 C1372.83,249.779 1372.1,251.454 1372.1,253.021"/>
<path class="Lyrics" d="M1444.91,274.46 C1445.34,274.163 1445.94,273.96 1446.69,273.852 C1447.78,273.717 1448.61,273.501 1449.21,273.204 C1449.69,272.798 1450.02,272.218 1450.18,271.461 C1450.37,270.488 1450.46,267.071 1450.46,261.208 C1450.46,255.453 1450.29,251.738 1449.94,250.063 C1449.34,249.684 1448.57,249.387 1447.63,249.171 C1447.33,249.117 1446.71,248.968 1445.76,248.725 L1445.76,247.388 C1447.36,246.929 1448.65,246.334 1449.63,245.605 C1450.62,244.875 1451.99,243.416 1453.75,241.228 L1453.99,241.228 C1454.15,241.228 1454.41,241.214 1454.76,241.187 C1454.98,241.214 1455.15,241.282 1455.29,241.39 L1455.25,246.01 C1455.25,246.956 1455.27,247.969 1455.33,249.049 C1458.22,246.429 1460.81,244.591 1463.11,243.538 C1464.68,242.835 1466.45,242.484 1468.42,242.484 C1470.77,242.484 1472.63,242.93 1474.01,243.821 C1475.39,244.713 1476.7,246.321 1477.94,248.644 C1480.35,246.267 1482.53,244.605 1484.49,243.659 C1486.45,242.714 1488.42,242.241 1490.42,242.241 C1493.45,242.241 1495.94,243.227 1497.88,245.199 C1499.8,247.199 1500.79,250.13 1500.84,253.994 L1500.84,257.358 L1500.88,261.046 L1500.84,270.529 C1500.81,271.637 1501.06,272.474 1501.57,273.042 C1501.79,273.123 1502.61,273.366 1504.04,273.771 C1504.93,274.014 1505.46,274.203 1505.62,274.339 C1505.78,274.474 1505.86,274.663 1505.86,274.906 C1505.86,275.203 1505.78,275.554 1505.62,275.96 L1505.34,275.96 L1501.24,275.716 C1500.76,275.689 1499.99,275.676 1498.93,275.676 C1497.64,275.676 1495.83,275.73 1493.5,275.838 L1491.44,275.838 C1491.14,275.838 1490.56,275.852 1489.69,275.879 C1489.67,275.635 1489.65,275.419 1489.65,275.23 C1489.65,275.014 1489.75,274.744 1489.94,274.42 C1490.67,274.095 1491.67,273.832 1492.94,273.629 C1494.21,273.427 1495,273.062 1495.31,272.535 C1495.62,272.008 1495.77,269.908 1495.77,266.233 C1495.77,258.263 1495.68,253.643 1495.49,252.373 C1495.17,250.346 1494.31,248.759 1492.92,247.611 C1491.52,246.462 1489.78,245.888 1487.67,245.888 C1486.05,245.888 1484.47,246.314 1482.93,247.165 C1481.39,248.016 1479.87,249.293 1478.39,250.995 L1478.35,251.967 L1478.35,258.168 L1478.18,262.991 C1478.18,267.908 1478.23,270.705 1478.33,271.38 C1478.42,272.055 1478.65,272.549 1479.02,272.859 C1479.38,273.17 1480.44,273.447 1482.2,273.69 C1482.98,273.798 1483.59,273.906 1484.02,274.014 C1484.34,274.285 1484.51,274.636 1484.51,275.068 C1484.51,275.419 1484.39,275.662 1484.14,275.798 L1483.45,275.798 L1481.43,275.757 L1469.63,275.757 L1466.39,275.798 C1466.34,275.392 1466.31,275.095 1466.31,274.906 L1466.35,274.42 C1466.95,274.095 1468.05,273.785 1469.67,273.487 C1470.51,273.352 1471.38,273.123 1472.27,272.798 C1472.43,272.663 1472.55,272.488 1472.63,272.272 C1472.77,271.893 1472.86,270.813 1472.92,269.029 L1473.12,264.328 L1473.04,259.019 L1473.08,256.061 C1473.08,252.737 1472.4,250.313 1471.05,248.786 C1469.7,247.26 1468,246.496 1465.95,246.496 C1464.03,246.496 1462.1,246.969 1460.17,247.915 C1458.24,248.86 1456.64,250.13 1455.37,251.724 C1455.34,252.481 1455.33,253.17 1455.33,253.791 L1455.49,267.408 C1455.52,270.38 1455.69,272.076 1456,272.495 C1456.31,272.913 1457,273.204 1458.08,273.366 C1459.81,273.609 1460.93,273.906 1461.45,274.257 C1461.69,274.42 1461.81,274.663 1461.81,274.987 C1461.81,275.203 1461.8,275.46 1461.77,275.757 C1458.69,275.541 1456.62,275.433 1455.57,275.433 C1454.49,275.433 1453.52,275.446 1452.65,275.473 L1450.63,275.595 L1449.37,275.595 L1444.83,275.757 C1444.78,275.568 1444.75,275.406 1444.75,275.271 C1444.75,275.136 1444.8,274.865 1444.91,274.46 M1507.61,244.065 L1510.65,244.065 L1511.99,244.146 L1513.04,244.065 C1515.83,244.065 1517.56,244.092 1518.23,244.146 L1518.27,244.916 C1518.27,248.725 1518.22,252.413 1518.11,255.98 C1518.03,258.087 1517.99,259.289 1517.99,259.587 C1517.99,264.342 1518.14,267.314 1518.45,268.503 C1518.76,269.691 1519.49,270.644 1520.64,271.36 C1521.79,272.076 1523.17,272.434 1524.8,272.434 C1526.77,272.434 1528.65,272.022 1530.45,271.198 C1532.25,270.374 1533.78,269.367 1535.05,268.178 C1535.18,267.152 1535.25,266.017 1535.25,264.774 C1535.25,260.748 1535.29,258.033 1535.37,256.628 C1535.4,255.791 1535.41,255.061 1535.41,254.44 C1535.41,250.063 1535.2,247.59 1534.77,247.023 C1534.33,246.456 1532.69,246.023 1529.82,245.726 C1528.88,245.618 1528.19,245.524 1527.75,245.443 C1527.54,245.091 1527.43,244.821 1527.43,244.632 L1527.55,244.186 C1528.25,244.105 1528.94,244.065 1529.62,244.065 L1536.06,244.146 C1538.36,244.092 1539.58,244.065 1539.71,244.065 C1540.01,244.065 1540.29,244.078 1540.56,244.105 L1540.64,247.064 C1540.45,251.17 1540.35,256.25 1540.32,262.302 L1540.24,265.585 L1540.4,271.096 C1540.64,271.529 1540.86,271.785 1541.05,271.866 C1541.37,272.001 1542.03,272.069 1543.03,272.069 L1543.4,272.069 C1543.75,272.069 1544.75,272.15 1546.4,272.312 C1546.42,272.663 1546.44,272.92 1546.44,273.082 L1546.44,273.528 C1542.82,274.312 1539.89,275.095 1537.64,275.879 C1536.75,276.176 1536,276.392 1535.37,276.527 C1535.24,275.581 1535.17,275 1535.17,274.784 L1535.17,271.502 C1535.17,271.367 1535.16,271.002 1535.13,270.407 C1534.78,270.651 1534.37,270.948 1533.91,271.299 C1531.78,272.947 1529.52,274.339 1527.15,275.473 C1525.55,276.257 1524.01,276.649 1522.53,276.649 C1519.69,276.649 1517.38,275.595 1515.6,273.487 C1513.79,271.38 1512.88,267.787 1512.88,262.707 C1512.88,262.437 1512.89,261.951 1512.92,261.248 C1513.03,259.951 1513.08,259.046 1513.08,258.533 C1513.08,258.344 1513.07,257.749 1513.04,256.75 C1513.02,256.317 1513,255.939 1513,255.615 C1513,255.372 1513.02,254.825 1513.04,253.974 C1513.07,253.122 1513.08,252.521 1513.08,252.17 C1513.08,251.711 1513.07,251.305 1513.04,250.954 L1512.96,248.806 L1513,247.672 C1513,247.239 1512.79,246.847 1512.35,246.496 C1510.65,246.037 1509.54,245.774 1509.01,245.706 C1508.48,245.638 1508.02,245.524 1507.61,245.361 L1507.61,244.065 "/>
<path class="Lyrics" d="M1593.26,265.585 C1594.26,268.151 1595.02,269.813 1595.53,270.569 C1596.56,272.11 1597.79,273.305 1599.22,274.156 C1600.65,275.007 1602.21,275.433 1603.88,275.433 C1605.42,275.433 1606.95,274.771 1608.46,273.447 C1609.54,272.447 1610.08,271.285 1610.08,269.962 C1610.08,268.205 1609.45,266.584 1608.18,265.098 C1606.91,263.639 1604.49,262.241 1600.94,260.904 C1597.39,259.566 1595,258.141 1593.79,256.628 C1592.57,255.115 1591.97,253.386 1591.97,251.441 C1591.97,249.603 1592.47,247.982 1593.46,246.577 C1594.46,245.172 1595.84,244.112 1597.6,243.396 C1599.35,242.68 1600.98,242.322 1602.46,242.322 C1604.38,242.322 1606.1,242.471 1607.63,242.768 C1609.16,243.065 1610.47,243.524 1611.58,244.146 C1611.8,245.524 1611.97,247.55 1612.11,250.225 L1612.19,251.522 C1611.84,251.549 1611.54,251.562 1611.3,251.562 L1610.73,251.562 C1609.92,249.32 1608.68,247.543 1607.02,246.233 C1605.36,244.922 1603.72,244.267 1602.1,244.267 C1600.48,244.267 1599.17,244.76 1598.17,245.746 C1597.17,246.733 1596.67,248.023 1596.67,249.617 C1596.67,250.833 1597.07,251.913 1597.88,252.859 C1598.69,253.805 1600.59,254.885 1603.58,256.101 C1606.56,257.317 1608.74,258.445 1610.1,259.485 C1611.47,260.525 1612.47,261.789 1613.12,263.275 C1613.77,264.761 1614.09,266.179 1614.09,267.53 C1614.09,269.394 1613.48,271.137 1612.25,272.758 C1611.02,274.379 1609.48,275.521 1607.63,276.183 C1605.78,276.844 1604.12,277.175 1602.66,277.175 C1599.23,277.175 1596.07,276.541 1593.18,275.271 C1592.91,275.055 1592.76,274.649 1592.74,274.055 C1592.74,273.812 1592.71,273.42 1592.65,272.88 C1592.22,269.232 1592.01,267.071 1592.01,266.395 C1592.01,266.071 1592.07,265.855 1592.21,265.747 C1592.34,265.639 1592.69,265.585 1593.26,265.585 M1650.6,270.367 C1650.76,270.718 1650.84,270.975 1650.84,271.137 C1650.84,271.542 1650.52,272.258 1649.87,273.285 C1649.03,274.636 1648.1,275.622 1647.07,276.243 C1646.43,276.649 1645.53,276.851 1644.4,276.851 C1642.45,276.851 1641,276.257 1640.02,275.068 C1639.43,274.366 1639.01,273.109 1638.77,271.299 L1634.23,274.46 C1632.63,275.379 1631.42,275.96 1630.58,276.203 C1629.23,276.554 1627.61,276.73 1625.72,276.73 C1624.34,276.73 1623.25,276.318 1622.45,275.494 C1621.66,274.67 1621.26,273.609 1621.26,272.312 C1621.26,270.448 1622.4,268.219 1624.68,265.625 C1626.97,263.031 1630.07,260.91 1633.98,259.262 C1636.74,258.101 1638.43,257.358 1639.05,257.033 C1639.1,256.142 1639.13,255.169 1639.13,254.115 C1639.13,250.684 1638.65,248.361 1637.69,247.145 C1636.73,245.929 1635.36,245.321 1633.58,245.321 C1631.71,245.321 1629.97,246.05 1628.35,247.509 C1627.35,248.428 1626.59,250.157 1626.08,252.697 C1625.92,253.399 1625.61,254.156 1625.15,254.966 C1623.99,255.723 1623.05,256.101 1622.35,256.101 C1621.76,256.101 1621.22,255.926 1620.73,255.574 C1620.46,255.385 1620.33,255.169 1620.33,254.926 C1620.33,254.223 1621.08,252.636 1622.58,250.164 C1624.07,247.692 1625.97,245.841 1628.25,244.612 C1630.53,243.382 1632.52,242.768 1634.23,242.768 C1636.55,242.768 1638.28,242.977 1639.41,243.396 C1640.55,243.815 1641.55,244.551 1642.41,245.605 C1643.28,246.658 1643.8,247.807 1643.99,249.049 C1644.1,249.644 1644.16,251.765 1644.16,255.412 L1644.03,261.856 L1644.08,266.557 C1644.08,267.179 1644.06,267.706 1644.03,268.138 C1644.01,268.921 1643.99,269.502 1643.99,269.881 C1643.99,270.772 1644.25,271.488 1644.76,272.028 C1645.28,272.569 1645.89,272.839 1646.59,272.839 C1647.61,272.839 1648.49,272.326 1649.22,271.299 L1649.71,270.651 C1649.84,270.569 1650.14,270.475 1650.6,270.367 M1638.68,269.192 C1638.87,265.76 1638.97,263.342 1638.97,261.937 C1638.97,261.208 1638.93,260.222 1638.85,258.979 C1637.04,259.627 1635.12,260.613 1633.09,261.937 C1631.07,263.261 1629.46,264.788 1628.27,266.517 C1627.4,267.76 1626.97,268.935 1626.97,270.043 C1626.97,271.096 1627.33,271.974 1628.05,272.677 C1628.76,273.379 1629.66,273.731 1630.74,273.731 C1631.58,273.731 1632.59,273.433 1633.78,272.839 C1635.35,272.055 1636.98,270.84 1638.68,269.192"/>
<path class="Lyrics" d="M1699.6,274.46 C1700.03,274.163 1700.63,273.96 1701.38,273.852 C1702.47,273.717 1703.3,273.501 1703.9,273.204 C1704.38,272.798 1704.71,272.218 1704.87,271.461 C1705.06,270.488 1705.15,267.071 1705.15,261.208 C1705.15,255.453 1704.98,251.738 1704.63,250.063 C1704.03,249.684 1703.26,249.387 1702.32,249.171 C1702.02,249.117 1701.4,248.968 1700.45,248.725 L1700.45,247.388 C1702.05,246.929 1703.34,246.334 1704.32,245.605 C1705.31,244.875 1706.68,243.416 1708.44,241.228 L1708.68,241.228 C1708.84,241.228 1709.1,241.214 1709.45,241.187 C1709.67,241.214 1709.84,241.282 1709.98,241.39 L1709.94,246.01 C1709.94,246.956 1709.96,247.969 1710.02,249.049 C1712.91,246.429 1715.5,244.591 1717.8,243.538 C1719.37,242.835 1721.14,242.484 1723.11,242.484 C1725.46,242.484 1727.32,242.93 1728.7,243.821 C1730.08,244.713 1731.39,246.321 1732.63,248.644 C1735.04,246.267 1737.22,244.605 1739.18,243.659 C1741.14,242.714 1743.11,242.241 1745.11,242.241 C1748.14,242.241 1750.63,243.227 1752.57,245.199 C1754.49,247.199 1755.48,250.13 1755.53,253.994 L1755.53,257.358 L1755.57,261.046 L1755.53,270.529 C1755.5,271.637 1755.75,272.474 1756.26,273.042 C1756.48,273.123 1757.3,273.366 1758.73,273.771 C1759.62,274.014 1760.15,274.203 1760.31,274.339 C1760.47,274.474 1760.55,274.663 1760.55,274.906 C1760.55,275.203 1760.47,275.554 1760.31,275.96 L1760.03,275.96 L1755.93,275.716 C1755.45,275.689 1754.68,275.676 1753.62,275.676 C1752.33,275.676 1750.52,275.73 1748.19,275.838 L1746.13,275.838 C1745.83,275.838 1745.25,275.852 1744.38,275.879 C1744.36,275.635 1744.34,275.419 1744.34,275.23 C1744.34,275.014 1744.44,274.744 1744.63,274.42 C1745.36,274.095 1746.36,273.832 1747.63,273.629 C1748.9,273.427 1749.69,273.062 1750,272.535 C1750.31,272.008 1750.46,269.908 1750.46,266.233 C1750.46,258.263 1750.37,253.643 1750.18,252.373 C1749.86,250.346 1749,248.759 1747.61,247.611 C1746.21,246.462 1744.47,245.888 1742.36,245.888 C1740.74,245.888 1739.16,246.314 1737.62,247.165 C1736.08,248.016 1734.56,249.293 1733.08,250.995 L1733.04,251.967 L1733.04,258.168 L1732.87,262.991 C1732.87,267.908 1732.92,270.705 1733.02,271.38 C1733.11,272.055 1733.34,272.549 1733.71,272.859 C1734.07,273.17 1735.13,273.447 1736.89,273.69 C1737.67,273.798 1738.28,273.906 1738.71,274.014 C1739.03,274.285 1739.2,274.636 1739.2,275.068 C1739.2,275.419 1739.08,275.662 1738.83,275.798 L1738.14,275.798 L1736.12,275.757 L1724.32,275.757 L1721.08,275.798 C1721.03,275.392 1721,275.095 1721,274.906 L1721.04,274.42 C1721.64,274.095 1722.74,273.785 1724.36,273.487 C1725.2,273.352 1726.07,273.123 1726.96,272.798 C1727.12,272.663 1727.24,272.488 1727.32,272.272 C1727.46,271.893 1727.55,270.813 1727.61,269.029 L1727.81,264.328 L1727.73,259.019 L1727.77,256.061 C1727.77,252.737 1727.09,250.313 1725.74,248.786 C1724.39,247.26 1722.69,246.496 1720.64,246.496 C1718.72,246.496 1716.79,246.969 1714.86,247.915 C1712.93,248.86 1711.33,250.13 1710.06,251.724 C1710.03,252.481 1710.02,253.17 1710.02,253.791 L1710.18,267.408 C1710.21,270.38 1710.38,272.076 1710.69,272.495 C1711,272.913 1711.69,273.204 1712.77,273.366 C1714.5,273.609 1715.62,273.906 1716.14,274.257 C1716.38,274.42 1716.5,274.663 1716.5,274.987 C1716.5,275.203 1716.49,275.46 1716.46,275.757 C1713.38,275.541 1711.31,275.433 1710.26,275.433 C1709.18,275.433 1708.21,275.446 1707.34,275.473 L1705.32,275.595 L1704.06,275.595 L1699.52,275.757 C1699.47,275.568 1699.44,275.406 1699.44,275.271 C1699.44,275.136 1699.49,274.865 1699.6,274.46 M1794.06,254.48 L1777.81,254.602 L1774.73,254.602 C1773.49,254.602 1772.22,254.656 1770.92,254.764 C1770.68,255.574 1770.56,256.128 1770.56,256.425 L1770.6,256.831 L1770.6,257.236 L1770.56,259.222 C1770.56,260.87 1771.08,262.89 1772.12,265.281 C1773.16,267.672 1774.64,269.496 1776.58,270.752 C1778.51,272.008 1780.92,272.677 1783.81,272.758 C1785.35,272.677 1786.58,272.488 1787.5,272.191 C1788.42,271.893 1789.71,271.204 1791.39,270.124 L1794.31,267.733 L1794.55,269.354 C1794.55,269.543 1794.54,269.745 1794.51,269.962 C1793.29,271.502 1791.75,272.853 1789.89,274.014 C1788.02,275.176 1786.13,276.027 1784.21,276.568 C1783.3,276.811 1781.78,276.932 1779.68,276.932 C1777.76,276.932 1775.87,276.541 1774,275.757 C1771.25,274.568 1769.08,272.657 1767.5,270.022 C1765.92,267.388 1765.13,264.193 1765.13,260.438 C1765.13,259.249 1765.35,257.722 1765.79,255.858 C1766.24,253.994 1767.04,252.008 1768.21,249.901 C1768.99,248.469 1769.95,247.293 1771.08,246.375 C1772.7,245.078 1774.12,244.173 1775.34,243.659 C1777.1,242.93 1779.14,242.565 1781.46,242.565 C1783.97,242.565 1786.02,243.024 1787.62,243.943 C1789.78,245.159 1791.39,246.726 1792.46,248.644 C1793.53,250.562 1794.06,252.319 1794.06,253.913 L1794.06,254.48 M1771.45,253.021 L1773.35,253.021 C1774.73,253.021 1778.84,252.805 1785.67,252.373 C1786.75,252.319 1787.42,252.211 1787.66,252.048 C1788.15,251.535 1788.39,251.076 1788.39,250.671 C1788.39,249.833 1788.12,248.881 1787.58,247.813 C1787.04,246.746 1786.21,245.922 1785.09,245.341 C1783.96,244.76 1782.66,244.47 1781.17,244.47 C1778.04,244.47 1775.53,245.645 1773.64,247.996 C1772.18,249.779 1771.45,251.454 1771.45,253.021 M1775.3,236 L1780.32,228.745 C1781.78,226.611 1783.23,225.071 1784.66,224.125 C1785.25,223.72 1785.9,223.517 1786.61,223.517 C1787.34,223.517 1787.92,223.72 1788.35,224.125 C1788.78,224.53 1789,225.003 1789,225.544 C1789,226.057 1788.81,226.597 1788.43,227.165 C1788.05,227.732 1787.15,228.502 1785.71,229.475 L1776.19,236 L1775.74,236.04 L1775.3,236 "/>
<path class="Lyrics" d="M1822.38,274.46 C1822.81,274.163 1823.4,273.96 1824.16,273.852 C1825.24,273.717 1826.08,273.501 1826.67,273.204 C1827.16,272.798 1827.48,272.218 1827.64,271.461 C1827.83,270.488 1827.93,267.071 1827.93,261.208 C1827.93,255.453 1827.75,251.738 1827.4,250.063 C1826.81,249.684 1826.04,249.387 1825.09,249.171 C1824.79,249.117 1824.17,248.968 1823.23,248.725 L1823.23,247.388 C1824.82,246.929 1826.11,246.334 1827.1,245.605 C1828.08,244.875 1829.46,243.416 1831.21,241.228 L1831.45,241.228 C1831.62,241.228 1831.87,241.214 1832.22,241.187 C1832.44,241.214 1832.62,241.282 1832.75,241.39 L1832.71,246.01 C1832.71,246.956 1832.74,247.969 1832.79,249.049 C1835.68,246.429 1838.28,244.591 1840.57,243.538 C1842.14,242.835 1843.91,242.484 1845.88,242.484 C1848.23,242.484 1850.1,242.93 1851.47,243.821 C1852.85,244.713 1854.16,246.321 1855.41,248.644 C1857.81,246.267 1859.99,244.605 1861.95,243.659 C1863.91,242.714 1865.89,242.241 1867.89,242.241 C1870.91,242.241 1873.4,243.227 1875.35,245.199 C1877.26,247.199 1878.25,250.13 1878.3,253.994 L1878.3,257.358 L1878.34,261.046 L1878.3,270.529 C1878.28,271.637 1878.52,272.474 1879.03,273.042 C1879.25,273.123 1880.07,273.366 1881.51,273.771 C1882.4,274.014 1882.92,274.203 1883.09,274.339 C1883.25,274.474 1883.33,274.663 1883.33,274.906 C1883.33,275.203 1883.25,275.554 1883.09,275.96 L1882.8,275.96 L1878.71,275.716 C1878.22,275.689 1877.45,275.676 1876.4,275.676 C1875.1,275.676 1873.29,275.73 1870.97,275.838 L1868.9,275.838 C1868.6,275.838 1868.02,275.852 1867.16,275.879 C1867.13,275.635 1867.12,275.419 1867.12,275.23 C1867.12,275.014 1867.21,274.744 1867.4,274.42 C1868.13,274.095 1869.13,273.832 1870.4,273.629 C1871.67,273.427 1872.46,273.062 1872.77,272.535 C1873.08,272.008 1873.24,269.908 1873.24,266.233 C1873.24,258.263 1873.14,253.643 1872.95,252.373 C1872.63,250.346 1871.77,248.759 1870.38,247.611 C1868.99,246.462 1867.24,245.888 1865.13,245.888 C1863.51,245.888 1861.93,246.314 1860.39,247.165 C1858.85,248.016 1857.34,249.293 1855.85,250.995 L1855.81,251.967 L1855.81,258.168 L1855.65,262.991 C1855.65,267.908 1855.7,270.705 1855.79,271.38 C1855.89,272.055 1856.12,272.549 1856.48,272.859 C1856.84,273.17 1857.91,273.447 1859.66,273.69 C1860.44,273.798 1861.05,273.906 1861.49,274.014 C1861.81,274.285 1861.97,274.636 1861.97,275.068 C1861.97,275.419 1861.85,275.662 1861.61,275.798 L1860.92,275.798 L1858.89,275.757 L1847.1,275.757 L1843.86,275.798 C1843.8,275.392 1843.77,275.095 1843.77,274.906 L1843.82,274.42 C1844.41,274.095 1845.52,273.785 1847.14,273.487 C1847.98,273.352 1848.84,273.123 1849.73,272.798 C1849.89,272.663 1850.02,272.488 1850.1,272.272 C1850.23,271.893 1850.33,270.813 1850.38,269.029 L1850.58,264.328 L1850.5,259.019 L1850.54,256.061 C1850.54,252.737 1849.87,250.313 1848.52,248.786 C1847.17,247.26 1845.46,246.496 1843.41,246.496 C1841.49,246.496 1839.57,246.969 1837.63,247.915 C1835.7,248.86 1834.1,250.13 1832.83,251.724 C1832.81,252.481 1832.79,253.17 1832.79,253.791 L1832.95,267.408 C1832.98,270.38 1833.15,272.076 1833.46,272.495 C1833.77,272.913 1834.47,273.204 1835.55,273.366 C1837.28,273.609 1838.4,273.906 1838.91,274.257 C1839.15,274.42 1839.28,274.663 1839.28,274.987 C1839.28,275.203 1839.26,275.46 1839.24,275.757 C1836.16,275.541 1834.09,275.433 1833.03,275.433 C1831.95,275.433 1830.98,275.446 1830.12,275.473 L1828.09,275.595 L1826.83,275.595 L1822.3,275.757 C1822.24,275.568 1822.21,275.406 1822.21,275.271 C1822.21,275.136 1822.27,274.865 1822.38,274.46 M1885.08,244.065 L1888.12,244.065 L1889.45,244.146 L1890.51,244.065 C1893.29,244.065 1895.02,244.092 1895.7,244.146 L1895.74,244.916 C1895.74,248.725 1895.68,252.413 1895.57,255.98 C1895.49,258.087 1895.45,259.289 1895.45,259.587 C1895.45,264.342 1895.61,267.314 1895.92,268.503 C1896.23,269.691 1896.96,270.644 1898.11,271.36 C1899.25,272.076 1900.64,272.434 1902.26,272.434 C1904.23,272.434 1906.12,272.022 1907.91,271.198 C1909.71,270.374 1911.24,269.367 1912.51,268.178 C1912.65,267.152 1912.72,266.017 1912.72,264.774 C1912.72,260.748 1912.76,258.033 1912.84,256.628 C1912.87,255.791 1912.88,255.061 1912.88,254.44 C1912.88,250.063 1912.66,247.59 1912.23,247.023 C1911.8,246.456 1910.15,246.023 1907.29,245.726 C1906.34,245.618 1905.65,245.524 1905.22,245.443 C1905,245.091 1904.89,244.821 1904.89,244.632 L1905.02,244.186 C1905.72,244.105 1906.41,244.065 1907.08,244.065 L1913.53,244.146 C1915.82,244.092 1917.04,244.065 1917.17,244.065 C1917.47,244.065 1917.76,244.078 1918.03,244.105 L1918.11,247.064 C1917.92,251.17 1917.81,256.25 1917.78,262.302 L1917.7,265.585 L1917.86,271.096 C1918.11,271.529 1918.32,271.785 1918.51,271.866 C1918.84,272.001 1919.5,272.069 1920.5,272.069 L1920.86,272.069 C1921.21,272.069 1922.21,272.15 1923.86,272.312 C1923.89,272.663 1923.9,272.92 1923.9,273.082 L1923.9,273.528 C1920.28,274.312 1917.35,275.095 1915.11,275.879 C1914.22,276.176 1913.46,276.392 1912.84,276.527 C1912.7,275.581 1912.64,275 1912.64,274.784 L1912.64,271.502 C1912.64,271.367 1912.62,271.002 1912.6,270.407 C1912.24,270.651 1911.84,270.948 1911.38,271.299 C1909.24,272.947 1906.99,274.339 1904.61,275.473 C1903.02,276.257 1901.48,276.649 1899.99,276.649 C1897.15,276.649 1894.84,275.595 1893.06,273.487 C1891.25,271.38 1890.35,267.787 1890.35,262.707 C1890.35,262.437 1890.36,261.951 1890.39,261.248 C1890.49,259.951 1890.55,259.046 1890.55,258.533 C1890.55,258.344 1890.53,257.749 1890.51,256.75 C1890.48,256.317 1890.47,255.939 1890.47,255.615 C1890.47,255.372 1890.48,254.825 1890.51,253.974 C1890.53,253.122 1890.55,252.521 1890.55,252.17 C1890.55,251.711 1890.53,251.305 1890.51,250.954 L1890.43,248.806 L1890.47,247.672 C1890.47,247.239 1890.25,246.847 1889.82,246.496 C1888.12,246.037 1887,245.774 1886.48,245.706 C1885.95,245.638 1885.48,245.524 1885.08,245.361 L1885.08,244.065 M1929.24,272.596 C1929.24,271.407 1929.68,270.367 1930.56,269.475 C1931.44,268.584 1932.46,268.138 1933.62,268.138 C1934.76,268.138 1935.71,268.557 1936.5,269.394 C1937.28,270.232 1937.67,271.285 1937.67,272.555 C1937.67,273.825 1937.26,274.892 1936.44,275.757 C1935.61,276.622 1934.62,277.054 1933.46,277.054 C1932.32,277.054 1931.34,276.615 1930.5,275.737 C1929.66,274.859 1929.24,273.812 1929.24,272.596"/>
<polyline class="LyricsLineSegment" fill="none" stroke="#000000" stroke-width="4.15" stroke-linejoin="bevel" points="373.159,263.316 395.269,263.316"/>
<polyline class="LyricsLineSegment" fill="none" stroke="#000000" stroke-width="4.15" stroke-linejoin="bevel" points="502.98,263.316 525.091,263.316"/>
<polyline class="LyricsLineSegment" fill="none" stroke="#000000" stroke-width="4.15" stroke-linejoin="bevel" points="845.679,263.316 862.953,263.316"/>
<polyline class="LyricsLineSegment" fill="none" stroke="#000000" stroke-width="4.15" stroke-linejoin="bevel" points="255.58,263.316 277.69,263.316"/>
<polyline class="LyricsLineSegment" fill="none" stroke="#000000" stroke-width="4.15" stroke-linejoin="bevel" points="1664.08,263.316 1686.19,263.316"/>
<polyline class="LyricsLineSegment" fill="none" stroke="#000000" stroke-width="4.15" stroke-linejoin="bevel" points="1797.31,263.316 1819.42,263.316"/>
<polyline class="LyricsLineSegment" fill="none" stroke="#000000" stroke-width="4.15" stroke-linejoin="bevel" points="1193.39,263.316 1213.91,263.316"/>
<polyline class="LyricsLineSegment" fill="none" stroke="#000000" stroke-width="4.15" stroke-linejoin="bevel" points="1408.91,263.316 1431.02,263.316"/>
</svg>
