<svg id="Vrstva_1" xmlns="http://www.w3.org/2000/svg" xmlns:xlink="http://www.w3.org/1999/xlink" viewBox="0 0 371.2 119.6"><style>.st0{clip-path:url(#SVGID_2_);fill:#3a3a3a}.st1{fill:none;stroke:#3a3a3a;stroke-width:1.039;stroke-miterlimit:10}.st2,.st3,.st4,.st5{clip-path:url(#SVGID_4_)}.st3{stroke:#000;stroke-width:3.7e-2;stroke-miterlimit:10;fill:none}.st4{fill:#fefeff}.st5{fill:#a7183a}.st6{fill:none;stroke:#a7183a;stroke-width:3.7e-2;stroke-miterlimit:10}.st6,.st7{clip-path:url(#SVGID_4_)}.st7,.st8{fill:#ffd500}.st8,.st9{clip-path:url(#SVGID_6_)}.st10{fill:#ffd500}.st11{fill:none;stroke:#ffd500;stroke-width:3.7e-2;stroke-miterlimit:10}.st12{fill:#fefeff}.st13{fill:#a7183a}.st14{fill:none;stroke:#a7183a;stroke-width:3.7e-2;stroke-miterlimit:10}.st15{fill:#e5262a}.st16{fill:none;stroke:#000;stroke-width:.297;stroke-miterlimit:10}.st17,.st18{clip-path:url(#SVGID_8_)}.st18{fill:none;stroke:#000;stroke-width:3.7e-2;stroke-miterlimit:10}.st19,.st20{clip-path:url(#SVGID_10_);fill:#e5262a}.st20{fill:none;stroke:#e5262a;stroke-width:3.7e-2;stroke-miterlimit:10}.st21{fill:#ffd500}.st21,.st22{clip-path:url(#SVGID_10_)}.st23{fill:#ffd500}.st23,.st24{clip-path:url(#SVGID_12_)}.st25,.st26{fill:none;stroke:#000;stroke-width:.668;stroke-miterlimit:10}.st26{stroke-width:.371;stroke-linejoin:round}</style><defs><path id="SVGID_1_" d="M82.9 0h288.3v119.6H82.9z"/></defs><clipPath id="SVGID_2_"><use xlink:href="#SVGID_1_" overflow="visible"/></clipPath><path class="st0" d="M92.4 76.5c-1.6 0-3 .3-4.2.8-1.2.6-2.2 1.3-3 2.2-.8.9-1.4 1.9-1.7 3a9.6 9.6 0 0 0-.6 3.3c0 1.3.2 2.5.6 3.6.4 1.1 1 2.1 1.7 2.9.8.8 1.8 1.5 2.9 1.9 1.2.5 2.6.7 4.2.7 1.2 0 2.2 0 3.2-.1l2.7-.3c.2-.7.3-1.5.6-2.2.2-.7.4-1.4.6-2h-.3c-.2 0-.4.1-.5.3-.2.6-.5 1.1-.7 1.5-.3.5-.6.8-1 1.2-.4.3-.9.6-1.5.7-.6.2-1.3.2-2.1.2-1.1 0-2.1-.2-3-.7-.9-.4-1.8-1.1-2.5-1.9-.7-.8-1.3-1.8-1.7-2.9-.4-1.1-.6-2.3-.6-3.6 0-1.2.2-2.3.5-3.2.3-1 .8-1.8 1.5-2.5.6-.7 1.4-1.2 2.4-1.6.9-.4 2-.6 3.2-.6 1.5 0 2.6.3 3.4.8.8.5 1.4 1.5 1.7 2.7 0 .1.1.2.1.2.2 0 .4.1.6 0-.2-.7-.3-1.4-.4-2-.1-.7-.2-1.2-.2-1.7-.4-.1-.9-.2-1.3-.3-.5-.1-.9-.2-1.4-.2s-1-.1-1.5-.1c-.5-.1-1-.1-1.7-.1m-3.2-4.9l2.7 2.5c.3.2.5.4.7.5.2.1.4.1.8.1l3.1-3.1c.1-.1.1-.1.1-.2s-.1-.2-.3-.3c-.6.4-1.1.7-1.6.9-.5.3-1 .6-1.6.8h-.2c-.7-.3-1.3-.6-1.8-.9-.5-.3-1-.6-1.6-.9-.1.1-.2.1-.2.2s-.1.1-.1.2v.2m17 23h9.8c.1 0 .2-.2.3-.3.1-.3.2-.7.4-1.1.1-.4.2-.9.4-1.4.1-.4.2-.8.4-1.1 0 0-.1 0-.1-.1-.1 0-.1-.1-.2-.1s-.2 0-.2.1c-.2.5-.5.9-.7 1.3-.3.4-.6.7-.9 1-.3.3-.7.5-1.2.7-.4.2-1 .3-1.5.3h-1.6c-1.2 0-2.1-.1-2.6-.2-.8-.2-.9-.6-.9-1v-6.8h4.7c.5 0 .8.2 1 .7.2.4.3.8.4 1.4 0 .1 0 .2.3.2h.2c0-.5-.1-1-.1-1.4v-2.6c0-.5.1-.9.1-1.2h-.2c-.2 0-.3.1-.3.2-.1.5-.2 1-.4 1.4-.2.4-.5.7-1 .7h-4.7v-7.6h4.5c.6 0 1.1.1 1.5.2.4.1.8.3 1.1.5.3.2.6.5.8.9.2.4.4.8.7 1.3 0 0 .1.1.3.1h.2c-.2-.3-.3-.7-.4-1.1-.1-.5-.1-.9-.2-1.4-.1-.4-.1-.8-.2-1.1-.1-.3-.2-.3-.3-.3-.2 0-.6 0-1.3.1-.6.1-1.4.1-2.3.1h-7.2c-.5 0-1.1 0-1.9-.1v.2c0 .2.1.3.1.3.8.2 1.4.3 1.7.5.2.1.5.4.5 1v14.2c0 .5-.2.8-.6 1-.3.2-.9.3-1.6.4 0 0-.1 0-.1.2v.2c.5 0 1.1-.1 1.6-.1.5-.2 1.1-.2 1.7-.2m15.2-.9c.6.4 1.4.6 2.3.9 1 .2 2 .4 3.2.4 1.1 0 2.1-.1 2.8-.4.8-.3 1.4-.6 1.9-1.1.5-.5.8-1 1.1-1.7.2-.6.3-1.3.3-2.1 0-1.2-.4-2.2-1.3-3.1-.9-.8-2.2-1.6-4-2.3-1.5-.6-2.6-1.2-3.4-1.7-.8-.6-1.2-1.4-1.2-2.3 0-.4.1-.9.3-1.2.2-.4.5-.7.8-.9.3-.2.7-.4 1.1-.6.4-.1.9-.2 1.4-.2 1.2 0 2.2.3 2.9.8.7.5 1.3 1.3 1.9 2.4 0 .1.1.2.2.2s.2.1.4.1h.2c-.1-.5-.2-1-.2-1.6-.1-.6-.1-1.2-.1-1.7-1-.4-1.9-.6-2.6-.8-.8-.2-1.7-.2-2.6-.2-.8 0-1.6.1-2.3.4-.7.3-1.2.6-1.7 1s-.8.9-1.1 1.5c-.2.6-.4 1.2-.4 1.9s.1 1.4.4 1.9c.2.5.6 1 1.1 1.4.5.4 1 .8 1.7 1.1.7.3 1.4.6 2.2.9 1.3.5 2.3 1 3 1.5.7.6 1.1 1.4 1.1 2.5 0 .5-.1.9-.2 1.3-.2.4-.4.8-.7 1.1-.3.3-.7.6-1.2.7-.5.2-1 .3-1.7.3-1.4 0-2.5-.3-3.3-1-.8-.7-1.4-1.7-1.9-3.1-.1-.2-.2-.3-.3-.4-.1-.1-.2-.1-.4-.1h-.2c.1.7.3 1.3.4 2 0 .7 0 1.4.1 2.2m20.3-8.2l6.8 7c.2.2.3.5.3.7 0 .6-.5.9-1.5.9 0 0-.1 0-.1.2v.2c.6 0 1.2-.1 1.7-.1h3.6c.7 0 1.2.1 1.8.1v-.3c0-.3-.1-.3-.2-.3-.5-.1-.9-.2-1.3-.4-.3-.2-.7-.4-1-.8l-8-8.4 6.6-6.3c.4-.3.7-.6 1.1-.7.4-.2.8-.3 1.2-.3 0 0 .1 0 .1-.3v-.2c-.3 0-.7.1-1.1.1h-2.9c-.5 0-1-.1-1.5-.1v.2c0 .1 0 .3.1.3.4.1.7.1.9.3.4.2.5.4.5.6 0 .2-.1.4-.2.5-.1.2-.2.3-.3.4l-6.6 6.7zm-1.5 9.1h1.6c.5 0 1 .1 1.6.1v-.5s-.1 0-.1-.1c-.7-.1-1.1-.3-1.4-.4-.3-.2-.5-.5-.5-1V78.6c0-.6.3-.8.5-1 .3-.2.8-.3 1.6-.4 0 0 .1 0 .1-.3v-.2c-.5 0-1.1.1-1.7.1h-3.4c-.6 0-1.1-.1-1.6-.1v.2c0 .3.1.3.1.3.8.1 1.3.3 1.6.4.2.1.5.4.5 1v14.2c0 .6-.3.8-.5 1-.3.1-.8.3-1.6.5 0 0-.1 0-.1.2v.2c.5 0 1.1-.1 1.6-.1h1.7m23.2-18.1c-1.2 0-2.3.2-3.4.7-1.1.5-2 1.2-2.8 2-.8.8-1.5 1.8-1.9 2.9-.5 1.1-.7 2.3-.7 3.5 0 1.4.2 2.7.7 3.8.4 1.1 1.1 2.1 1.9 2.9.8.8 1.8 1.4 2.9 1.9 1.1.4 2.3.7 3.7.7 1.3 0 2.6-.2 3.7-.6 1.2-.4 2.2-1 3-1.8.9-.8 1.5-1.8 2-2.9.5-1.1.7-2.4.7-3.9 0-1.2-.2-2.4-.6-3.5-.4-1.1-1-2.1-1.8-2.9-.8-.8-1.8-1.5-3-2-1.3-.6-2.7-.8-4.4-.8m.9 17.5c-1.1 0-2.2-.3-3.1-.8-.9-.5-1.6-1.2-2.3-2.1-.6-.9-1.1-1.9-1.4-3.1a16 16 0 0 1-.5-3.9c0-1.1.2-2 .5-2.8.3-.8.8-1.5 1.4-2.1.6-.6 1.2-1 2-1.3.7-.3 1.5-.4 2.3-.4 1.2 0 2.3.3 3.2.8.9.5 1.7 1.2 2.3 2.1.6.9 1.1 1.9 1.3 3.1.3 1.2.4 2.4.4 3.8 0 1-.2 1.9-.5 2.8-.3.8-.7 1.6-1.3 2.2-.6.6-1.2 1.1-2 1.4-.5.1-1.3.3-2.3.3m12.4-17.3v.2c0 .3.1.3.1.3.4.1.7.1 1 .2.3.1.5.1.7.2.2.1.3.2.4.4.1.2.1.3.1.6v14.2c0 .6-.3.8-.6 1-.3.1-.8.3-1.6.4-.1 0-.1 0-.1.2v.1h1.1c.4 0 .8 0 1.2-.1h5.7c1 0 1.9-.1 2.7-.4.8-.2 1.5-.6 2.1-1 .6-.4 1-1 1.3-1.6.3-.6.5-1.3.5-2.1 0-.7-.1-1.3-.4-1.8-.3-.5-.7-.9-1.2-1.3-.5-.3-1-.6-1.6-.8-.6-.2-1.2-.3-1.8-.4h-.2v-.4h.2c.5-.1 1-.3 1.4-.6.4-.3.8-.6 1-.9.3-.3.5-.7.7-1.1.2-.4.2-.8.2-1.2 0-.5-.1-1.1-.3-1.6-.2-.5-.5-.9-1-1.3s-1.1-.7-1.8-.9c-.7-.2-1.6-.3-2.7-.3h-5.5c-.5.1-1.1 0-1.6 0m6.8 17.1h-.7c-.2 0-.5-.1-.7-.2-.2-.1-.4-.2-.6-.4-.2-.2-.3-.4-.3-.7v-7h1.7c1.7 0 3 .4 4 1.1 1 .7 1.5 1.8 1.5 3.2 0 .8-.1 1.4-.4 1.9-.2.5-.6.9-1.1 1.2-.4.3-1 .5-1.6.6-.4.3-1.1.3-1.8.3m-1.6-8.9h-.6v-7.4h.6c1.7 0 3 .3 3.8.9.8.6 1.2 1.5 1.2 2.7 0 1.3-.4 2.3-1.2 2.9-.8.6-2.1.9-3.8.9m11.9-8.2v.2c0 .3.1.3.1.3.8.1 1.3.2 1.6.4.3.2.5.5.5 1v9.5c0 .9.1 1.7.3 2.5.2.8.5 1.5 1.1 2.2.5.6 1.3 1.1 2.3 1.5 1 .4 2.3.6 3.9.6 1.4 0 2.6-.2 3.5-.5.9-.3 1.7-.8 2.2-1.4.6-.6 1-1.3 1.2-2.2.2-.8.4-1.8.4-2.8v-9.4c0-.4.2-.8.5-1 .3-.2.8-.3 1.6-.4l.1-.1c0-.1.1-.1.1-.2v-.2c-.4 0-.8.1-1.2.1h-2.8c-.5 0-1-.1-1.4-.1v.2c0 .3.1.3.1.3.8.1 1.3.2 1.6.4.3.2.5.5.5 1v8.8c0 1.1-.1 2-.3 2.8-.2.8-.6 1.5-1.1 2-.5.5-1.2.9-1.9 1.1-.8.2-1.7.4-2.8.4-2 0-3.4-.5-4.2-1.6-.8-1.1-1.2-2.6-1.2-4.6v-8.9c0-.4.2-.8.6-1 .3-.2.9-.3 1.6-.4 0 0 .1 0 .1-.3v-.2c-.5 0-1.1.1-1.7.1h-3.6c-.7 0-1.2-.1-1.7-.1m22.4 0v.4l.1.1c.8.1 1.3.3 1.6.4.2.1.5.4.5 1v14.2c0 .4-.2.7-.6.9-.3.2-.8.3-1.6.5-.1 0-.2 0-.2.2v.2c.5 0 1.1-.1 1.7-.1h7.6c1.6 0 3-.3 4.2-.8 1.2-.5 2.2-1.2 3-2 .8-.8 1.4-1.8 1.7-2.8.4-1.1.6-2.1.6-3.2 0-1.2-.2-2.4-.6-3.4-.4-1.1-1-2-1.8-2.8-.8-.8-1.8-1.4-3-1.9s-2.6-.7-4.2-.7h-8.3c-.1-.2-.4-.2-.7-.2m7.9 17.1c-.6 0-1.1 0-1.5-.1-.4 0-.7-.1-1-.2-.3-.1-.5-.2-.6-.4-.1-.2-.2-.4-.2-.6v-15h2.7c2.9 0 5.1.7 6.6 2.1 1.5 1.4 2.3 3.6 2.3 6.5 0 1.2-.1 2.2-.4 3.1-.3.9-.8 1.8-1.4 2.4-.7.7-1.5 1.2-2.6 1.5-1.1.6-2.4.7-3.9.7m17.8.8h9.7c.1 0 .2-.2.3-.3.1-.3.2-.7.4-1.1.1-.4.2-.9.4-1.4.1-.4.2-.8.4-1.1 0 0-.1 0-.1-.1-.1 0-.1-.1-.2-.1s-.2 0-.2.1c-.2.5-.5.9-.7 1.3-.3.4-.6.7-.9 1-.3.3-.7.5-1.2.7-.4.2-1 .3-1.5.3h-1.6c-1.2 0-2.1-.1-2.6-.2-.8-.2-.9-.6-.9-1v-6.8h4.7c.5 0 .8.2 1 .7.2.4.3.8.4 1.4 0 .1 0 .2.3.2h.2c0-.5-.1-1-.1-1.4v-2.6c0-.5.1-.9.1-1.2h-.2c-.2 0-.3.1-.3.2-.1.5-.2 1-.4 1.4-.2.4-.5.7-1 .7h-4.7v-7.6h4.5c.6 0 1.1.1 1.5.2.4.1.8.3 1.1.5.3.2.6.5.8.9.2.4.4.8.7 1.3 0 0 .1.1.3.1h.2c-.2-.3-.3-.7-.4-1.1-.1-.5-.1-.9-.2-1.4-.1-.4-.1-.8-.2-1.1-.1-.3-.2-.3-.3-.3-.2 0-.6 0-1.3.1-.6.1-1.4.1-2.3.1h-7.2c-.5 0-1.1-.1-1.9-.1v.2c0 .2.1.3.1.3.8.2 1.4.3 1.7.5.2.1.5.4.5 1v14.2c0 .5-.2.8-.6 1-.3.2-.9.3-1.6.4 0 0-.1 0-.1.2v.2c.5 0 1.1-.1 1.6-.1.6-.2 1.2-.2 1.8-.2m.7-23l2.7 2.5c.3.2.5.4.7.5.2.1.4.1.8.1l3.1-3.1c.1-.1.1-.1.1-.2s-.1-.2-.3-.3c-.6.4-1.1.7-1.6.9-.5.3-1 .6-1.6.8h-.2c-.7-.3-1.3-.6-1.8-.9-.5-.3-1-.6-1.6-.9-.1.1-.2.1-.2.2s-.1.1-.1.2c-.1.2-.1.2 0 .2m13.9 5.1v.2c0 .2.1.3.1.3.8.1 1.3.3 1.6.4.2.1.5.4.5 1v14.9c0 1.3-.2 2.5-.7 3.6-.5 1-1.2 2.1-2.3 3.1-.1.1-.1.1-.1.2s.1.2.2.3c1.1-.7 2-1.4 2.7-2.1.7-.7 1.2-1.4 1.6-2.1.4-.7.6-1.6.7-2.5.1-.9.2-2 .2-3.3V78.6c0-.4.2-.8.5-1 .3-.2.8-.3 1.5-.4.1 0 .1 0 .1-.3v-.2c-.5 0-1 .1-1.6.1h-3.4c-.5 0-1.1-.1-1.6-.1m18.7-.2c-1.2 0-2.3.2-3.4.7-1.1.5-2 1.2-2.8 2-.8.8-1.5 1.8-1.9 2.9-.5 1.1-.7 2.3-.7 3.5 0 1.4.2 2.7.7 3.8.4 1.1 1.1 2.1 1.9 2.9.8.8 1.8 1.4 2.9 1.9 1.1.4 2.3.7 3.7.7 1.3 0 2.6-.2 3.7-.6 1.2-.4 2.2-1 3-1.8.8-.8 1.5-1.8 2-2.9.5-1.1.7-2.4.7-3.9 0-1.2-.2-2.4-.6-3.5-.4-1.1-1-2.1-1.8-2.9-.8-.8-1.8-1.5-3-2-1.3-.6-2.8-.8-4.4-.8m.9 17.5c-1.1 0-2.2-.3-3.1-.8-.9-.5-1.6-1.2-2.3-2.1-.6-.9-1.1-1.9-1.4-3.1a16 16 0 0 1-.5-3.9c0-1.1.2-2 .5-2.8.3-.8.8-1.5 1.4-2.1.6-.6 1.2-1 2-1.3.7-.3 1.5-.4 2.3-.4 1.2 0 2.3.3 3.2.8.9.5 1.7 1.2 2.3 2.1.6.9 1.1 1.9 1.3 3.1.3 1.2.4 2.4.4 3.8 0 1-.2 1.9-.5 2.8-.3.8-.7 1.6-1.3 2.2-.6.6-1.2 1.1-2 1.4-.5.1-1.4.3-2.3.3m9.8-17.3v.2c0 .3.1.3.1.3.7.1 1.2.2 1.5.4.3.2.5.4.7.7l6.8 16.3c.1.2.2.3.3.3h.1l7.1-16.5c.2-.4.4-.7.8-.9.3-.2.8-.3 1.4-.3 0 0 .1 0 .1-.3v-.3c-.1 0-.4 0-.7.1-.5 0-1.1.1-1.8.1h-2c-.3 0-.6 0-.8-.1h-.2v.2c0 .3.1.3.2.3.6.1 1.1.2 1.4.3.4.2.5.5.5.8 0 .2 0 .4-.1.6l-5.2 12.4-5.1-12.6c0-.1-.1-.3-.1-.4 0-.9 1.4-1.1 1.9-1.1.1 0 .2 0 .2-.3v-.2c-.5 0-1.1.1-1.8.1h-3.6c-.6 0-1.1-.1-1.7-.1m24.6 17.9h1.7c.5 0 1.1.1 1.6.1v-.2c0-.2-.1-.2-.1-.2-.8-.2-1.3-.3-1.6-.5-.2-.1-.5-.4-.5-1V78.6c0-.6.3-.8.5-1 .3-.2.8-.3 1.6-.4 0 0 .1 0 .1-.3v-.2c-.5 0-1.1.1-1.7.1h-3.4c-.6 0-1.1-.1-1.6-.1v.4h.1c.8.1 1.3.3 1.6.4.2.1.5.4.5 1v14.2c0 .6-.3.8-.5 1-.3.2-.8.3-1.6.4 0 0-.1 0-.1.2v.2c.5 0 1-.1 1.6-.1.7.2 1.3.2 1.8.2m16.2-18.1c-1.6 0-3 .3-4.2.8-1.2.6-2.2 1.3-2.9 2.2-.8.9-1.4 1.9-1.8 3a9.6 9.6 0 0 0-.6 3.3c0 1.3.2 2.5.6 3.6.4 1.1 1 2.1 1.7 2.9.8.8 1.8 1.5 2.9 1.9 1.2.5 2.6.7 4.2.7 1.2 0 2.2 0 3.2-.1l2.7-.3c.1-.7.3-1.5.6-2.2.2-.7.4-1.4.6-2h-.2c-.2 0-.4.1-.5.3-.2.6-.5 1.1-.7 1.5-.3.5-.6.8-1 1.2-.4.3-.9.6-1.5.7-.6.2-1.3.2-2.2.2-1.1 0-2.1-.2-3-.7-.9-.4-1.8-1.1-2.5-1.9-.7-.8-1.3-1.8-1.7-2.9-.4-1.1-.6-2.3-.6-3.6 0-1.2.2-2.3.5-3.2.3-1 .8-1.8 1.5-2.5.6-.7 1.4-1.2 2.4-1.6.9-.4 2-.6 3.2-.6 1.5 0 2.6.3 3.4.8.8.5 1.4 1.5 1.7 2.7 0 .1.1.2.1.2.2 0 .4.1.6 0-.2-.7-.3-1.4-.4-2-.1-.7-.2-1.2-.2-1.7-.4-.1-.9-.2-1.3-.3-.5-.1-.9-.2-1.4-.2-.5-.1-1-.1-1.5-.1-.5-.1-1.1-.1-1.7-.1m15.1 9l6.8 7c.2.2.3.5.3.7 0 .6-.5.9-1.5.9 0 0-.1 0-.1.2v.2c.6 0 1.2-.1 1.7-.1h3.6c.7 0 1.2.1 1.8.1v-.3c0-.3-.1-.3-.2-.3-.5-.1-.9-.2-1.3-.4-.3-.2-.7-.4-1-.8l-8-8.4 6.6-6.3c.4-.3.7-.6 1.1-.7.4-.2.8-.3 1.2-.3 0 0 .1 0 .1-.3v-.2c-.3 0-.7.1-1.1.1h-2.9c-.5 0-1-.1-1.5-.1v.2c0 .1 0 .3.1.3.4.1.7.1.9.3.4.2.5.4.5.6 0 .2-.1.4-.2.5-.1.2-.2.3-.3.4l-6.6 6.7zm-1.5 9.1h1.6c.5 0 1 .1 1.6.1v-.5s-.1 0-.1-.1c-.7-.1-1.1-.3-1.4-.4-.3-.2-.5-.5-.5-1V78.6c0-.6.3-.8.5-1 .3-.2.8-.3 1.6-.4 0 0 .1 0 .1-.3v-.2c-.5 0-1.1.1-1.7.1h-3.4c-.6 0-1.1-.1-1.6-.1v.2c0 .3.1.3.1.3.8.1 1.3.3 1.6.4.2.1.5.4.5 1v14.2c0 .6-.3.8-.5 1-.3.1-.8.3-1.6.5 0 0-.1 0-.1.2v.2c.5 0 1.1-.1 1.6-.1h1.7m19.7 0h9.8c.1 0 .2-.2.3-.3.1-.3.2-.7.4-1.1.1-.4.2-.9.4-1.4.1-.4.2-.8.4-1.1 0 0-.1 0-.1-.1-.1 0-.1-.1-.2-.1s-.2 0-.2.1c-.2.5-.5.9-.7 1.3-.3.4-.6.7-.9 1-.3.3-.7.5-1.2.7-.4.2-1 .3-1.5.3h-1.6c-1.2 0-2.1-.1-2.6-.2-.8-.2-.9-.6-.9-1v-6.8h4.7c.5 0 .8.2 1 .7.2.4.3.8.4 1.4 0 .1 0 .2.3.2h.2c0-.5-.1-1-.1-1.4v-2.6c0-.5.1-.9.1-1.2h-.2c-.3 0-.3.1-.3.2-.1.5-.2 1-.4 1.4-.2.4-.5.7-1 .7h-4.7v-7.6h4.5c.6 0 1.1.1 1.5.2.4.1.8.3 1.1.5.3.2.6.5.8.9.2.4.4.8.7 1.3 0 0 .1.1.3.1h.2c-.2-.3-.3-.7-.4-1.1-.1-.5-.1-.9-.2-1.4-.1-.4-.1-.8-.2-1.1-.1-.3-.2-.3-.3-.3-.2 0-.6 0-1.3.1-.6.1-1.4.1-2.3.1h-7.2c-.5 0-1.1 0-1.9-.1v.2c0 .2.1.3.1.3.8.2 1.4.3 1.7.5.2.1.5.4.5 1v14.2c0 .5-.2.8-.6 1-.3.2-.9.3-1.6.4 0 0-.1 0-.1.2v.2c.5 0 1.1-.1 1.6-.1.5-.2 1.1-.2 1.7-.2m5.4-23.4l-3.9 3c-.1.1-.1.1-.1.2s0 .2.1.3c.4-.2.8-.3 1.1-.4.4-.1.7-.3 1.1-.4.4-.1.7-.2 1.1-.4l1.2-.3c.3-.1.5-.3.5-.6 0-.2-.1-.5-.3-.8-.2-.2-.4-.4-.8-.6M82.9 25.8v.4c0 .6.2.6.3.6.5.1.9.2 1.2.3.3.1.6.2.8.3.2.1.4.3.5.5.1.2.1.4.1.7v19.3c0 .5-.2.9-.6 1.1-.4.2-1.1.4-2 .6-.1 0-.3.1-.3.5v.4l1.6-.1c.5 0 1-.1 1.5-.1h7.2c1.3 0 2.4-.2 3.5-.5 1-.3 1.9-.8 2.7-1.4.7-.6 1.3-1.3 1.7-2.2.4-.9.6-1.9.6-3 0-1-.2-1.8-.6-2.5-.4-.7-.9-1.3-1.5-1.8s-1.3-.8-2.1-1.1c-.8-.3-1.6-.4-2.3-.5h-.1V37h.1c.6-.2 1.2-.5 1.8-.9s1-.8 1.4-1.3c.4-.5.7-1 .9-1.5.2-.5.3-1.1.3-1.7 0-.8-.1-1.5-.4-2.2-.3-.7-.7-1.3-1.3-1.9-.6-.5-1.4-1-2.3-1.3-1-.3-2.1-.5-3.5-.5h-4.5c-.6 0-1.3 0-2.2-.1-1 .3-1.8.3-2.5.2m8.9 23.3c-.3 0-.6 0-.9-.1-.3 0-.6-.1-.9-.2-.3-.1-.5-.3-.7-.4-.2-.2-.3-.4-.3-.8v-9.3h2.1c2.1 0 3.8.5 5.1 1.4 1.2 1 1.9 2.4 1.9 4.2 0 1-.2 1.8-.5 2.5s-.7 1.2-1.3 1.6c-.6.4-1.2.7-2 .8-.7.2-1.6.3-2.5.3M89.7 37H89v-9.6h.7c2.2 0 3.8.4 4.7 1.1 1 .8 1.5 1.9 1.5 3.5 0 1.7-.5 3-1.5 3.8-.9.8-2.5 1.2-4.7 1.2m28.9 13.5c.7 0 1.4 0 2.2.1.8 0 1.5.1 2.2.1 0-.2.1-.4.1-.5 0-.4-.2-.5-.3-.5-.9-.2-1.6-.4-1.9-.6-.4-.2-.6-.6-.6-1.1V28.6c0-.5.2-.9.6-1.2.4-.2 1-.4 2-.6.1 0 .3-.1.3-.5 0-.1 0-.3-.1-.5-.7 0-1.5.1-2.3.1-.8 0-1.5.1-2.1.1-.6 0-1.4 0-2.2-.1-.8 0-1.5-.1-2.2-.1 0 .2-.1.4-.1.5 0 .1 0 .3.1.4 0 .1.1.1.2.2 1 .2 1.6.3 2 .6.4.2.6.6.6 1.2V48c0 .5-.2.9-.6 1.2-.4.2-1 .4-2 .6-.1 0-.3.1-.3.5 0 .1 0 .3.1.5.7 0 1.4-.1 2.2-.1.7-.2 1.4-.2 2.1-.2m18.4-1.3c.8.5 1.9.9 3.1 1.2 1.2.3 2.6.5 4.1.5 1.4 0 2.7-.2 3.7-.6 1-.4 1.8-.9 2.5-1.5.6-.7 1.1-1.4 1.4-2.3.3-.9.5-1.8.5-2.9 0-1.7-.6-3.1-1.6-4.3-1.1-1.2-2.8-2.2-5.2-3.2-1.9-.8-3.3-1.6-4.3-2.3-1-.8-1.5-1.8-1.5-3 0-.6.1-1.1.4-1.6.2-.5.6-.9 1-1.2.4-.3.9-.6 1.4-.7.5-.2 1.1-.3 1.7-.3 1.5 0 2.8.3 3.7 1 .9.7 1.7 1.7 2.3 3.2.1.1.2.3.3.4.1.1.3.2.6.2.1 0 .2 0 .4-.1-.1-.7-.3-1.5-.3-2.4-.1-.8-.1-1.6-.2-2.4-1.3-.5-2.5-.9-3.5-1.1-1-.2-2.2-.3-3.3-.3-1.1 0-2.1.2-2.9.5-.9.3-1.6.8-2.2 1.4-.6.6-1.1 1.3-1.4 2.1-.3.8-.5 1.7-.5 2.6 0 1 .2 2 .5 2.7.3.8.8 1.4 1.4 2 .6.6 1.3 1.1 2.2 1.5.9.4 1.8.9 2.9 1.3 1.6.6 2.9 1.3 3.8 2.1.9.8 1.3 1.8 1.3 3.2 0 .6-.1 1.2-.3 1.7-.2.5-.5 1-.9 1.4-.4.4-.9.7-1.5 1-.6.2-1.3.3-2.1.3-1.8 0-3.2-.4-4.1-1.3-1-.9-1.8-2.2-2.4-4.1-.1-.3-.2-.5-.4-.6-.1-.1-.3-.2-.6-.2-.2 0-.4 0-.5.1.2 1 .4 1.9.5 2.9-.1 1 0 2 0 3.1m34.6-11.1l8.8 9.7c.3.3.4.5.4.8 0 .6-.6 1-1.8 1.1-.1 0-.3.1-.3.5 0 .1 0 .3.1.5.8 0 1.6-.1 2.3-.1.8 0 1.5-.1 2.2-.1.7 0 1.5 0 2.4.1.9 0 1.7.1 2.4.1 0-.2.1-.4.1-.5 0-.5-.2-.5-.3-.5-.6-.1-1.1-.3-1.5-.5-.4-.2-.9-.5-1.3-1L175 37l8.4-8.5c.5-.4.9-.8 1.4-1 .5-.2 1-.4 1.5-.5.2-.1.3-.3.3-.6 0-.1 0-.3-.1-.5-.5 0-1 .1-1.5.1-.6 0-1.2.1-1.7.1-.6 0-1.2 0-2-.1-.7 0-1.4-.1-2-.1 0 .2-.1.4-.1.5 0 .6.2.6.3.6.5.1.9.2 1.2.3.3.2.5.4.5.7 0 .2-.1.4-.2.6-.1.2-.3.4-.4.5l-9 9v-9.4c0-.5.2-.9.6-1.2.4-.2 1-.4 2-.6.1 0 .3-.1.3-.5 0-.1 0-.3-.1-.5-.7 0-1.5.1-2.3.1-.8 0-1.5.1-2.1.1-.6 0-1.3 0-2.1-.1-.8 0-1.5-.1-2.2-.1 0 .2-.1.4-.1.5 0 .5.2.5.3.5 1 .2 1.6.3 2 .6.4.2.6.6.6 1.2V48c0 .5-.2.9-.6 1.1-.4.2-1 .4-1.9.6-.1 0-.3.1-.3.5 0 .1 0 .3.1.5.7 0 1.4-.1 2.2-.1.8 0 1.5-.1 2.2-.1.6 0 1.3 0 2 .1.7 0 1.4.1 2.2.1 0-.2.1-.4.1-.5 0-.2 0-.3-.1-.3-.1-.1-.1-.1-.2-.1-.9-.2-1.4-.4-1.8-.6-.3-.2-.5-.6-.5-1.1v-10zm26.6-12.3c0 .2-.1.4-.1.5 0 .5.2.5.3.5 1 .1 1.6.3 2 .5.4.2.6.6.6 1.2v12.9c0 1.2.1 2.4.3 3.5.2 1.1.7 2.1 1.4 3 .7.9 1.7 1.6 3 2.1s3 .8 5.1.8c1.8 0 3.4-.2 4.6-.7 1.2-.5 2.2-1.1 2.9-2 .7-.8 1.3-1.9 1.6-3 .3-1.2.5-2.5.5-3.9V28.6c0-.5.2-.9.6-1.2.4-.3 1-.4 1.9-.5.1 0 .2-.1.2-.2.1-.1.1-.2.1-.3 0-.1 0-.3-.1-.5-.5 0-1.1.1-1.7.1-.6 0-1.2.1-1.8.1-.5 0-1.1 0-1.8-.1-.7 0-1.3-.1-2-.1 0 .2-.1.4-.1.5 0 .5.2.5.3.5 1 .1 1.7.3 2 .5.4.2.6.6.6 1.2v11.9c0 1.5-.1 2.7-.4 3.8-.3 1.1-.7 1.9-1.4 2.6-.6.7-1.4 1.2-2.4 1.5-1 .3-2.2.5-3.5.5-2.5 0-4.2-.7-5.3-2.1-1-1.4-1.6-3.5-1.6-6.1V28.6c0-.5.2-.9.7-1.2.4-.2 1.1-.4 2-.5.1 0 .3 0 .3-.5 0-.1 0-.3-.1-.5-.7 0-1.5.1-2.3.1-.9 0-1.6.1-2.3.1-.7 0-1.5 0-2.2-.1-.4-.1-1.2-.1-1.9-.2m42 24.7c1.1 0 2 0 3 .1.9 0 1.7.1 2.3.1 0-.2.1-.4.1-.5 0-.4-.2-.5-.4-.5-1.1-.2-1.9-.4-2.5-.6-.6-.3-.9-.7-.9-1.3v-7.9h3.3c1.2 0 2.4-.2 3.3-.6 1-.4 1.8-1 2.5-1.6.7-.7 1.2-1.4 1.5-2.2.3-.8.5-1.6.5-2.4 0-2-.7-3.7-2-4.9-1.3-1.3-3.3-1.9-5.9-1.9h-5c-.7 0-1.4 0-2.2-.1-.8 0-1.5-.1-2.1-.1 0 .2-.1.3-.1.5 0 .5.2.6.3.6 1 .1 1.7.3 2.1.5.4.2.6.6.6 1.2v19.3c0 .5-.2.9-.5 1.1-.3.2-1 .4-2 .6-.1 0-.3.1-.3.5 0 .1 0 .3.1.5.7 0 1.4-.1 2.2-.1.8-.3 1.5-.3 2.1-.3m3.8-12.1h-2.1v-11h2.1c1 0 1.9.2 2.6.5.7.3 1.3.7 1.7 1.3.4.5.7 1.1.9 1.8.2.7.3 1.4.3 2.2 0 1.9-.5 3.3-1.4 4.1-1 .7-2.4 1.1-4.1 1.1m22.6 10.8c.8.5 1.9.9 3.1 1.2 1.2.3 2.6.5 4.1.5 1.4 0 2.7-.2 3.7-.6 1-.4 1.8-.9 2.5-1.5.6-.7 1.1-1.4 1.4-2.3.3-.9.5-1.8.5-2.9 0-1.7-.6-3.1-1.6-4.3-1.1-1.2-2.8-2.2-5.2-3.2-1.9-.8-3.3-1.6-4.3-2.3-1-.8-1.5-1.8-1.5-3 0-.6.1-1.1.4-1.6.2-.5.6-.9 1-1.2.4-.3.9-.6 1.4-.7.5-.2 1.1-.3 1.7-.3 1.5 0 2.8.3 3.7 1 .9.7 1.7 1.7 2.3 3.2.1.1.2.3.3.4.1.1.3.2.6.2.1 0 .2 0 .4-.1-.1-.7-.3-1.5-.3-2.4-.1-.8-.1-1.6-.2-2.4-1.3-.5-2.5-.9-3.5-1.1-1-.2-2.2-.3-3.3-.3-1.1 0-2.1.2-2.9.5-.9.3-1.6.8-2.2 1.4-.6.6-1.1 1.3-1.4 2.1-.3.8-.5 1.7-.5 2.6 0 1 .2 2 .5 2.7.3.8.8 1.4 1.4 2 .6.6 1.3 1.1 2.2 1.5.9.4 1.8.9 2.9 1.3 1.6.6 2.9 1.3 3.8 2.1.9.8 1.3 1.8 1.3 3.2 0 .6-.1 1.2-.3 1.7-.2.5-.5 1-.9 1.4-.4.4-.9.7-1.5 1-.6.2-1.3.3-2.1.3-1.8 0-3.2-.4-4.1-1.3-1-.9-1.8-2.2-2.4-4.1-.1-.3-.2-.5-.4-.6-.1-.1-.3-.2-.6-.2-.2 0-.4 0-.5.1.2 1 .4 1.9.5 2.9-.2 1-.1 2 0 3.1m32.8-21.8h3.9v20.3c0 .6-.3 1.1-.8 1.3-.5.2-1.3.4-2.4.6-.1 0-.3.1-.3.5 0 .2 0 .3.1.5.7 0 1.6-.1 2.4-.1 1.8-.1 3.6-.1 5.3 0 .9 0 1.7.1 2.4.1 0-.2.1-.4.1-.5 0-.5-.2-.5-.3-.5-1.1-.1-1.9-.3-2.4-.6s-.8-.7-.8-1.3V27.4h3.9c.7 0 1.4.1 1.9.2.5.2 1 .4 1.3.7.4.3.7.7 1 1.2.3.5.5 1 .8 1.7 0 .1.1.2.2.2s.2.1.3.1c.1 0 .2 0 .3-.1.1 0 .2-.1.3-.1-.3-.8-.4-1.6-.5-2.3-.1-.7-.2-1.3-.3-1.8-.1-.5-.2-.8-.3-1.1-.1-.2-.2-.3-.4-.3h-.7c-.3 0-.6.1-1 .1s-.7.1-1.1.1H298c-.4 0-.7-.1-1.1-.1-.4 0-.7 0-1-.1h-.7c-.2 0-.3.1-.4.3-.1.2-.2.6-.3 1.1-.1.5-.2 1.1-.3 1.8-.1.7-.3 1.5-.5 2.4.2.1.4.2.6.2.1 0 .2 0 .3-.1.1 0 .1-.1.2-.2.3-.6.6-1.2.9-1.7.3-.5.6-.9 1-1.2.4-.3.8-.5 1.3-.7 0-.2.6-.3 1.4-.3m27-1.6c0 .2-.1.3-.1.5 0 .6.2.6.3.6.9.1 1.5.3 1.9.5.4.2.6.5.8.8l8.7 22.1c.2.4.3.6.6.6h.2l9.1-22.5c.2-.5.5-.9.9-1.1.4-.2 1-.3 1.8-.4.1 0 .3-.1.3-.6v-.6c-.2 0-.6.1-1.1.1-1 .1-2.2.1-3.5.1-.4 0-.9 0-1.2-.1-.4 0-.7-.1-1-.1h-.4v.5c0 .5.2.5.3.5.8.1 1.3.2 1.7.4.4.2.6.5.6.9 0 .2-.1.5-.2.8l-6.6 16.5-6.4-16.7c-.1-.2-.1-.3-.1-.5 0-.7.8-1.2 2.3-1.3.1 0 .3-.1.3-.5 0-.1 0-.3-.1-.5-.7 0-1.5.1-2.4.1-.9 0-1.6.1-2.3.1-.6 0-1.4 0-2.3-.1-.6 0-1.4 0-2.1-.1m40.3 24.7c.7 0 1.4 0 2.2.1.8 0 1.5.1 2.2.1 0-.2.1-.4.1-.5 0-.4-.2-.5-.3-.5-.9-.2-1.6-.4-1.9-.6-.4-.2-.6-.6-.6-1.1V28.6c0-.5.2-.9.6-1.2.4-.2 1-.4 2-.6.1 0 .3-.1.3-.5 0-.1 0-.3-.1-.5-.7 0-1.5.1-2.3.1-.8 0-1.5.1-2.1.1-.6 0-1.4 0-2.2-.1-.8 0-1.5-.1-2.2-.1 0 .2-.1.4-.1.5 0 .1 0 .3.1.4 0 .1.1.1.2.2 1 .2 1.6.3 2 .6.4.2.6.6.6 1.2V48c0 .5-.2.9-.6 1.2-.4.2-1 .4-2 .6-.1 0-.3.1-.3.5 0 .1 0 .3.1.5.7 0 1.4-.1 2.2-.1.7-.2 1.4-.2 2.1-.2m1.9-32.1l-5.1 4.1c-.2.1-.3.3-.3.4 0 .2.1.4.3.6.6-.2 1.1-.5 1.5-.6.5-.2.9-.4 1.4-.5.5-.2.9-.3 1.4-.5.5-.2 1-.3 1.6-.5.5-.1.7-.5.7-1 0-.4-.1-.7-.4-1.1-.1-.4-.5-.7-1.1-.9"/><path class="st1" d="M82.9 63.7H371"/><defs><path id="SVGID_3_" d="M0 14.6h67.6v90H0z"/></defs><clipPath id="SVGID_4_"><use xlink:href="#SVGID_3_" overflow="visible"/></clipPath><path class="st2" d="M27.7 46.1s-.3 2.8-.6 4.2c-.3 1.4-.8 3.2-.8 3.2l5.7-.2s.6-1.6.9-3.8c.3-2.2.4-2.9.4-2.9l-5.6-.5z"/><path class="st3" d="M27.7 46.1s-.3 2.8-.6 4.2c-.3 1.4-.8 3.2-.8 3.2l5.7-.2s.6-1.6.9-3.8c.3-2.2.4-2.9.4-2.9l-5.6-.5z"/><path class="st2" d="M35.4 46.6l.6 3.9c.2 1.3.7 2.7.7 2.7l5.8.3s-.7-2.3-.9-4c-.3-1.7-.4-3.3-.4-3.3l-5.8.4z"/><path class="st3" d="M35.4 46.6l.6 3.9c.2 1.3.7 2.7.7 2.7l5.8.3s-.7-2.3-.9-4c-.3-1.7-.4-3.3-.4-3.3l-5.8.4z"/><path class="st4" d="M28.3 46.4s-.2 2-.5 3.5c-.5 2.2-.8 3.4-.8 3.4l.1.1s.5-1.3 1-3.9c.5-2.6.4-3.1.4-3.1h-.2z"/><path class="st5" d="M28.6 46.4s-.2 2.5-.5 3.6c-.3 1.2-.9 3.3-.9 3.3l3.3-.1s.5-1.6.8-3.4c.3-1.8.4-3.1.4-3.1l-3.1-.3z"/><path class="st6" d="M28.6 46.4s-.2 2.5-.5 3.6c-.3 1.2-.9 3.3-.9 3.3l3.3-.1s.5-1.6.8-3.4c.3-1.8.4-3.1.4-3.1l-3.1-.3z"/><path class="st7" d="M32.1 46.7s-.2 1.7-.5 3.5c-.4 1.8-.7 2.9-.7 2.9h.5s.4-1.3.8-3.3c.4-2 .4-3.1.4-3.1h-.5z"/><path class="st4" d="M40.6 46.4s.1 1.9.4 3.4c.5 2.5.9 3.5.9 3.5h-.1s-.5-1.2-1-3.8c-.4-2.6-.3-3.2-.2-3.1z"/><path class="st5" d="M40.3 46.3s.2 2.7.5 3.8c.3 1.3.8 3.1.8 3.1l-3.3-.1s-.5-1.6-.8-3.4c-.3-1.8-.4-3.1-.4-3.1l3.2-.3z"/><path class="st6" d="M40.3 46.3s.2 2.7.5 3.8c.3 1.3.8 3.1.8 3.1l-3.3-.1s-.5-1.6-.8-3.4c-.3-1.8-.4-3.1-.4-3.1l3.2-.3z"/><defs><path id="SVGID_5_" d="M.1 14.6h67.3v90H.1z"/></defs><clipPath id="SVGID_6_"><use xlink:href="#SVGID_5_" overflow="visible"/></clipPath><path class="st8" d="M36.7 46.6s.2 1.7.5 3.5c.4 1.8.7 2.9.7 2.9h-.5s-.3-1.3-.8-3.3c-.4-2-.4-3.1-.4-3.1h.5z"/><path class="st9" d="M34.3 14.6c1.5 0 1.6.9 1.7 1.1.1.4.4 1.3.9 1.8.7.6 1.6.2 2.5 1.3 1 1.2 0 1.6 1.1 3.1 1.1 1.4 1.6.5 2.5 1.7 1 1.3-.1 1.7.9 3 .9 1.2 1.3.5 2.2 1.6 1 1.2-.1 1.9.9 3.3 1.1 1.7 1.8.7 2.4 2.2.3.6.2 1.2-.1 1.9-.3.7-.4 1.3-.6 1.9-.3 1-2 5.4-2.2 5.8-.2.5-.5 1.5-.6 1.6-.1.1-.5.6-1.8 1-1.3.3-3.2.9-6.6 1-3.5.2-6.3.1-9.1-.3s-4-.8-4.8-1.2c-.8-.4-.7-.7-1-1.4-.3-.8-2.4-6.4-2.6-6.9-.2-.6-.9-2.1-.7-2.9.2-.8.5-1.2 1.1-1.4.7-.2 1.2-.6 1.6-1.4.6-1.2-.3-1.6.6-2.9.8-1.2 1.4-.5 2.3-1.7 1.1-1.5-.1-1.6.9-3 .9-1.2 1.5-.4 2.4-1.7 1.3-1.6.2-2.1 1.3-3.3 1-1.1 1.5-.3 2.3-1.1.9-.8.8-1.9 1.3-2.5.6-.7 1.2-.6 1.2-.6"/><path class="st10" d="M33 17.3l1.4-1.2 1.4 1.2s-.3-1.2-.5-1.5-.3-.4-.9-.4c-.5 0-.7.1-.8.5-.2.2-.6 1.4-.6 1.4"/><path class="st11" d="M33 17.3l1.4-1.2 1.4 1.2s-.3-1.2-.5-1.5-.3-.4-.9-.4c-.5 0-.7.1-.8.5-.2.2-.6 1.4-.6 1.4z"/><path class="st10" d="M37.1 18.6l2 2.3s-.1-.6-.1-.8c0-.3-.1-.7-.4-1-.4-.4-.6-.3-1-.4-.3-.1-.5-.1-.5-.1"/><path class="st11" d="M37.1 18.6l2 2.3s-.1-.6-.1-.8c0-.3-.1-.7-.4-1-.4-.4-.6-.3-1-.4-.3-.1-.5-.1-.5-.1z"/><path class="st10" d="M42.5 24c-.2-.3-.6-.4-.9-.6-.3-.1-.5-.2-.5-.2l1.6 2.4v-.5c0-.3 0-.8-.2-1.1"/><path class="st11" d="M42.5 24c-.2-.3-.6-.4-.9-.6-.3-.1-.5-.2-.5-.2l1.6 2.4v-.5c0-.3 0-.8-.2-1.1z"/><path class="st10" d="M45.7 28.8c-.2-.4-.6-.5-.9-.6-.3-.1-.5-.2-.5-.2l1.6 2.6V30c0-.5 0-.8-.2-1.2"/><path class="st11" d="M45.7 28.8c-.2-.4-.6-.5-.9-.6-.3-.1-.5-.2-.5-.2l1.6 2.6V30c0-.5 0-.8-.2-1.2z"/><path class="st10" d="M48.8 33.9c-.2-.6-.6-.6-.9-.7l-.6-.2 1.3 2.4c0-.1.4-.9.2-1.5"/><path class="st11" d="M48.8 33.9c-.2-.6-.6-.6-.9-.7l-.6-.2 1.3 2.4c0-.1.4-.9.2-1.5z"/><path class="st10" d="M20.2 33.7c.4-.5.7-.5.9-.6.3-.1.4-.2.4-.2l-1.3 2.4s-.5-.9 0-1.6"/><path class="st11" d="M20.2 33.7c.4-.5.7-.5.9-.6.3-.1.4-.2.4-.2l-1.3 2.4s-.5-.9 0-1.6z"/><path class="st10" d="M23.2 28.8c.2-.3.5-.5.9-.6l.6-.2-1.7 2.4v-.5c0-.4-.1-.8.2-1.1"/><path class="st11" d="M23.2 28.8c.2-.3.5-.5.9-.6l.6-.2-1.7 2.4v-.5c0-.4-.1-.8.2-1.1z"/><path class="st10" d="M26.5 23.9c.3-.3.5-.4.7-.5l.6-.2-1.6 2.3V25c-.1-.3 0-.7.3-1.1"/><path class="st11" d="M26.5 23.9c.3-.3.5-.4.7-.5l.6-.2-1.6 2.3V25c-.1-.3 0-.7.3-1.1z"/><path class="st10" d="M30.1 19.1c.4-.4.8-.4 1.2-.5l.6-.2-2.2 2.5s0-.2.1-.6c-.1-.4 0-.9.3-1.2"/><path class="st11" d="M30.1 19.1c.4-.4.8-.4 1.2-.5l.6-.2-2.2 2.5s0-.2.1-.6c-.1-.4 0-.9.3-1.2z"/><path class="st10" d="M34.4 16.5l1.8 1.5 1.6 1.7-.1 16.3s3.3.8 5.5 1.6c2.5 1 3.9 1.9 3.9 1.9l-1.5 3.9s-4.2-2.6-11-2.6c-6.9 0-11.4 2.6-11.4 2.6l-1.5-3.9s1.1-.8 3.8-1.9c2.7-1.1 5.6-1.7 5.6-1.7V19.5l1.5-1.5 1.8-1.5z"/><path class="st11" d="M34.4 16.5l1.8 1.5 1.6 1.7-.1 16.3s3.3.8 5.5 1.6c2.5 1 3.9 1.9 3.9 1.9l-1.5 3.9s-4.2-2.6-11-2.6c-6.9 0-11.4 2.6-11.4 2.6l-1.5-3.9s1.1-.8 3.8-1.9c2.7-1.1 5.6-1.7 5.6-1.7V19.5l1.5-1.5 1.8-1.5z"/><path class="st10" d="M30.7 20.2l-.8.9v14.1s-2.5.6-4.3 1.3c-2.2.8-4.3 2.1-4.3 2.1l.3.8s1.9-1.2 4.5-2.1c2.5-.9 4.7-1.4 4.7-1.4V20.2z"/><path class="st11" d="M30.7 20.2l-.8.9v14.1s-2.5.6-4.3 1.3c-2.2.8-4.3 2.1-4.3 2.1l.3.8s1.9-1.2 4.5-2.1c2.5-.9 4.7-1.4 4.7-1.4V20.2z"/><path class="st10" d="M38.1 20.2l.9.9v14.1s2.6.7 4.4 1.4c2.2.8 4.2 2 4.2 2l-.3.8s-1.8-1.2-4.5-2.2-4.6-1.4-4.6-1.4l-.1-15.6z"/><path class="st11" d="M38.1 20.2l.9.9v14.1s2.6.7 4.4 1.4c2.2.8 4.2 2 4.2 2l-.3.8s-1.8-1.2-4.5-2.2-4.6-1.4-4.6-1.4l-.1-15.6z"/><path class="st12" d="M39.3 21.6v13.3s2.9.7 4.5 1.4 3.8 1.9 3.8 1.9l.9-2.4s-2.5-4.5-4.3-7.4c-1.9-2.9-4.9-6.8-4.9-6.8m-9.7-.1v13.4s-2.4.6-4.5 1.5-3.8 1.9-3.8 1.9l-.9-2.4s2.4-4.4 4.6-7.8c2.2-3.6 4.6-6.6 4.6-6.6"/><path class="st10" d="M23.3 43.9s4-2.6 11.2-2.6c7.2 0 11 2.6 11 2.6l-.2.5s-4-2.6-10.8-2.6c-6.9 0-11 2.6-11 2.6l-.2-.5z"/><path class="st11" d="M23.3 43.9s4-2.6 11.2-2.6c7.2 0 11 2.6 11 2.6l-.2.5s-4-2.6-10.8-2.6c-6.9 0-11 2.6-11 2.6l-.2-.5z"/><path class="st13" d="M23.9 44.7s4-2.5 10.6-2.5S45 44.7 45 44.7s-2.7 1.6-10.6 1.6c-8 0-10.5-1.6-10.5-1.6"/><path class="st14" d="M23.9 44.7s4-2.5 10.6-2.5S45 44.7 45 44.7s-2.7 1.6-10.6 1.6c-8 0-10.5-1.6-10.5-1.6z"/><path class="st15" d="M34.4 22.2c-1 0-1.7-.8-1.7-1.7 0-1 .8-1.7 1.7-1.7 1 0 1.7.8 1.7 1.7.1.9-.7 1.7-1.7 1.7"/><path d="M34.4 18.8c.9 0 1.6.7 1.6 1.6 0 .9-.7 1.6-1.6 1.6-.9 0-1.6-.7-1.6-1.6 0-.8.7-1.6 1.6-1.6m0-.2c-1 0-1.9.8-1.9 1.9s.8 1.9 1.9 1.9c1 0 1.9-.8 1.9-1.9s-.8-1.9-1.9-1.9"/><path class="st15" d="M34.4 39.8c-1.1 0-2-.9-2-2s.9-2 2-2 2 .9 2 2c.1 1.1-.9 2-2 2"/><path d="M34.4 35.9c1 0 1.9.8 1.9 1.9 0 1-.8 1.9-1.9 1.9-1 0-1.9-.8-1.9-1.9.1-1.1.9-1.9 1.9-1.9m0-.3c-1.2 0-2.2 1-2.2 2.2 0 1.2 1 2.2 2.2 2.2 1.2 0 2.2-1 2.2-2.2 0-1.2-1-2.2-2.2-2.2"/><path class="st12" d="M34.4 27.6c-.5 0-.8-.6-.8-1.4s.4-1.4.8-1.4c.5 0 .8.6.8 1.4s-.3 1.4-.8 1.4"/><path d="M34.4 24.9c.3 0 .7.5.7 1.3 0 .7-.4 1.3-.7 1.3-.3 0-.7-.5-.7-1.3s.4-1.3.7-1.3m0-.3c-.5 0-1 .7-1 1.6 0 .9.4 1.6 1 1.6.5 0 1-.7 1-1.6 0-.9-.4-1.6-1-1.6"/><path class="st12" d="M34.4 31.5c-.5 0-.8-.6-.8-1.4s.4-1.4.8-1.4c.5 0 .8.6.8 1.4s-.3 1.4-.8 1.4"/><path d="M34.4 28.8c.3 0 .7.5.7 1.3 0 .7-.4 1.3-.7 1.3-.3 0-.7-.5-.7-1.3 0-.7.4-1.3.7-1.3m0-.3c-.5 0-1 .7-1 1.6 0 .9.4 1.6 1 1.6.5 0 1-.7 1-1.6 0-.8-.4-1.6-1-1.6"/><path class="st12" d="M33.4 29c-.5 0-.8-.4-.8-.8 0-.5.4-.8.8-.8.5 0 .8.4.8.8s-.4.8-.8.8"/><path d="M33.4 27.4c.4 0 .7.3.7.7s-.3.7-.7.7c-.4 0-.7-.3-.7-.7s.3-.7.7-.7m0-.3c-.5 0-1 .4-1 1 0 .5.4 1 1 1 .5 0 1-.4 1-1 0-.5-.5-1-1-1"/><path class="st12" d="M35.5 29c-.5 0-.8-.4-.8-.8 0-.5.4-.8.8-.8.5 0 .8.4.8.8s-.4.8-.8.8"/><path d="M35.5 27.4c.4 0 .7.3.7.7s-.3.7-.7.7c-.4 0-.7-.3-.7-.7s.3-.7.7-.7m0-.3c-.5 0-1 .4-1 1 0 .5.4 1 1 1 .5 0 1-.4 1-1 0-.5-.5-1-1-1"/><path class="st12" d="M43 39.6c-.5 0-.8-.4-.8-.8 0-.5.4-.8.8-.8.5 0 .8.4.8.8 0 .5-.4.8-.8.8"/><path d="M43 38.1c.4 0 .7.3.7.7s-.3.7-.7.7c-.4 0-.7-.3-.7-.7s.3-.7.7-.7m0-.3c-.5 0-1 .4-1 1 0 .5.4 1 1 1 .5 0 1-.4 1-1-.1-.5-.5-1-1-1"/><path class="st12" d="M42.4 41.6c-.5 0-.8-.4-.8-.8 0-.5.4-.8.8-.8.5 0 .8.4.8.8.1.4-.3.8-.8.8"/><path d="M42.4 40.1c.4 0 .7.3.7.7s-.3.7-.7.7c-.4 0-.7-.3-.7-.7s.3-.7.7-.7m0-.3c-.5 0-1 .4-1 1 0 .5.4 1 1 1 .5 0 1-.4 1-1s-.4-1-1-1"/><path class="st12" d="M25.9 39.6c-.5 0-.8-.4-.8-.8 0-.5.4-.8.8-.8.5 0 .8.4.8.8 0 .5-.4.8-.8.8"/><path d="M25.9 38.1c.4 0 .7.3.7.7s-.3.7-.7.7c-.4 0-.7-.3-.7-.7s.3-.7.7-.7m0-.3c-.5 0-1 .4-1 1 0 .5.4 1 1 1 .5 0 1-.4 1-1-.1-.5-.5-1-1-1"/><path class="st12" d="M26.4 41.6c-.5 0-.8-.4-.8-.8 0-.5.4-.8.8-.8.5 0 .8.4.8.8.1.5-.3.8-.8.8"/><path d="M26.4 40.1c.4 0 .7.3.7.7s-.3.7-.7.7c-.4 0-.7-.3-.7-.7s.4-.7.7-.7m0-.3c-.5 0-1 .4-1 1 0 .5.4 1 1 1 .5 0 1-.4 1-1 0-.5-.4-1-1-1"/><path class="st12" d="M41.2 40.1c-.2 0-.4 0-.6-.1-.4-.1-.7-.3-.9-.5-.2-.2-.3-.5-.2-.7.1-.3.5-.5 1-.5.2 0 .4 0 .6.1.7.2 1.3.8 1.1 1.2-.2.3-.5.5-1 .5"/><path d="M40.4 38.5c.2 0 .4 0 .6.1.7.2 1.1.7 1 1-.1.2-.4.4-.8.4-.2 0-.4 0-.6-.1-.3-.1-.6-.3-.8-.5-.1-.1-.2-.3-.2-.5 0-.3.3-.4.8-.4m0-.3c-.6 0-1 .2-1.1.6-.2.5.4 1.1 1.2 1.4.2.1.5.1.7.1.5 0 1-.2 1.1-.6.2-.5-.4-1.1-1.2-1.4-.3-.1-.5-.1-.7-.1"/><path class="st12" d="M45 41.2c-.2 0-.4 0-.6-.1-.4-.1-.7-.3-.9-.5-.2-.2-.3-.5-.2-.7.1-.3.5-.5 1-.5.2 0 .4 0 .6.1.7.2 1.3.8 1.1 1.2-.1.3-.5.5-1 .5"/><path d="M44.2 39.6c.2 0 .4 0 .6.1.7.2 1.1.7 1 1-.1.2-.4.4-.8.4-.2 0-.4 0-.6-.1-.3-.1-.6-.3-.8-.5-.1-.1-.2-.3-.2-.5.1-.3.4-.4.8-.4m0-.3c-.6 0-1 .2-1.1.6-.2.5.4 1.1 1.2 1.4.2.1.5.1.7.1.5 0 1-.2 1.1-.6.2-.5-.4-1.1-1.2-1.4-.2-.1-.5-.1-.7-.1"/><path class="st12" d="M23.9 41.2c-.5 0-.9-.2-1-.5-.1-.2 0-.4.2-.6.2-.2.6-.4.9-.5.2 0 .4-.1.6-.1.5 0 .9.2 1 .5.1.2 0 .4-.2.6-.2.2-.6.4-.9.5-.3.1-.5.1-.6.1"/><path d="M24.6 39.6c.5 0 .8.2.9.4.1.2-.1.4-.2.5-.2.2-.5.4-.9.5h-.5c-.5 0-.8-.2-.9-.4-.1-.3.3-.8 1.1-1h.5m0-.3c-.2 0-.4 0-.6.1-.8.2-1.4.8-1.3 1.3.1.4.6.6 1.2.6.2 0 .4 0 .6-.1.8-.2 1.4-.8 1.3-1.3-.2-.4-.7-.6-1.2-.6"/><path class="st12" d="M27.7 40.1c-.5 0-.9-.2-1-.5-.1-.4.4-1 1.2-1.2.2 0 .4-.1.6-.1.5 0 .9.2 1 .5.1.4-.4 1-1.2 1.2-.2.1-.4.1-.6.1"/><path d="M28.4 38.5c.5 0 .8.2.9.4.1.2-.1.4-.2.5-.2.2-.5.4-.9.5-.2 0-.4.1-.5.1-.5 0-.8-.2-.9-.4-.1-.3.3-.8 1.1-1 .2-.1.3-.1.5-.1m0-.3c-.2 0-.4 0-.6.1-.8.2-1.4.8-1.3 1.3.1.4.6.6 1.2.6.2 0 .4 0 .6-.1.8-.2 1.4-.8 1.3-1.3-.1-.4-.6-.6-1.2-.6"/><path d="M25.4 39.7l1.2-.3.2.6h-.6l-.6.3z"/><path class="st16" d="M25.4 39.7l1.2-.3.2.6h-.6l-.6.3z"/><path d="M34.1 27.5h.7l-.2.6.2.6h-.6v-.5z"/><path class="st16" d="M34.1 27.5h.7l-.2.6.2.6h-.6v-.5z"/><path d="M42.1 39.4l.7.2.6.1-.2.3v.3l-.6-.3H42z"/><path class="st16" d="M42.1 39.4l.7.2.6.1-.2.3v.3l-.6-.3H42z"/><defs><path id="SVGID_7_" d="M.1 14.6h67.3v90H.1z"/></defs><clipPath id="SVGID_8_"><use xlink:href="#SVGID_7_" overflow="visible"/></clipPath><path class="st17" d="M51.9 34.8s.8-2.6.6-3.8c-.2-1.2-.6-2-.7-2.4-.1-.4-.4-1.2-.6-1.6-.4-.8-1.1-.9-1.2-1.8 0-.2-.1-1.2.5-1.8.6-.6.7-.5.9-1 .2-.4.5-1 .6-1.3.2-.2.5-.6.7-1.2.2-.6.2-1.3.7-1.8.5-.4 1.1-.6 1.7-.5.6.1.7.2 1.3.2.5 0 .8-.2 1.2-.2.3 0 .8-.1 1.3-.3.6-.2 1-.8 2-.5 1.2.4 1.1.9 1.4 1.4.2.3.6.7 1.1 1 .5.3.7.6 1.3 1 .7.5 1 .4 1.5.7.2.2.7.7.7 1.5 0 1-.6.8-.5 2.4 0 .3.3 1 .5 1.5s.5.8.3 1.6c-.2.9-.8 1.1-1.3 1.4-.5.2-.8.5-1.2 1.1-.4.6-.6.8-.7 1.6 0 .8.1 1.4-.6 2-.7.6-1.4.5-2 .5-.5 0-.9.1-1.7.8-.8.6-.9.7-1 1.3-.1.7 0 1.3-.9 2-.9.6-1.4.3-2 .2-.6 0-.8 0-1.5.7-.6.7-1.8 2.1-2.5 3.2-.8 1.1-1.6 2.6-1.9 3.1-.4.6-1.1 2.1-1.1 2.1l.7.4-1 2-.5-.1-1.8 3.6-4-.3 2.5-4.9-.7-.4 1-2.1.7.4s1.3-2.4 2.1-3.7c.8-1.3 2-3 3.3-4.7s2.8-2.8 4.3-3.8c1.4-1 4.1-3 5.2-4.2 1.1-1.2 2.2-2.4 2.3-4.2.1-1.8-1.2-4.3-3.9-4.5-2.7-.2-4.2 1.5-4.7 3.7-.7 3.3 3.3 4.1 3.3 4.1l-5.7 5.6z"/><path class="st18" d="M51.9 34.8s.8-2.6.6-3.8c-.2-1.2-.6-2-.7-2.4-.1-.4-.4-1.2-.6-1.6-.4-.8-1.1-.9-1.2-1.8 0-.2-.1-1.2.5-1.8.6-.6.7-.5.9-1 .2-.4.5-1 .6-1.3.2-.2.5-.6.7-1.2.2-.6.2-1.3.7-1.8.5-.4 1.1-.6 1.7-.5.6.1.7.2 1.3.2.5 0 .8-.2 1.2-.2.3 0 .8-.1 1.3-.3.6-.2 1-.8 2-.5 1.2.4 1.1.9 1.4 1.4.2.3.6.7 1.1 1 .5.3.7.6 1.3 1 .7.5 1 .4 1.5.7.2.2.7.7.7 1.5 0 1-.6.8-.5 2.4 0 .3.3 1 .5 1.5s.5.8.3 1.6c-.2.9-.8 1.1-1.3 1.4-.5.2-.8.5-1.2 1.1-.4.6-.6.8-.7 1.6 0 .8.1 1.4-.6 2-.7.6-1.4.5-2 .5-.5 0-.9.1-1.7.8-.8.6-.9.7-1 1.3-.1.7 0 1.3-.9 2-.9.6-1.4.3-2 .2-.6 0-.8 0-1.5.7-.6.7-1.8 2.1-2.5 3.2-.8 1.1-1.6 2.6-1.9 3.1-.4.6-1.1 2.1-1.1 2.1l.7.4-1 2-.5-.1-1.8 3.6-4-.3 2.5-4.9-.7-.4 1-2.1.7.4s1.3-2.4 2.1-3.7c.8-1.3 2-3 3.3-4.7s2.8-2.8 4.3-3.8c1.4-1 4.1-3 5.2-4.2 1.1-1.2 2.2-2.4 2.3-4.2.1-1.8-1.2-4.3-3.9-4.5-2.7-.2-4.2 1.5-4.7 3.7-.7 3.3 3.3 4.1 3.3 4.1l-5.7 5.6z"/><defs><path id="SVGID_9_" d="M0 14.6h67.6v90H0z"/></defs><clipPath id="SVGID_10_"><use xlink:href="#SVGID_9_" overflow="visible"/></clipPath><path class="st19" d="M51.1 25.7v-1.8s-.5.4-.5 1c.1.6.5.8.5.8"/><path class="st20" d="M51.1 25.7v-1.8s-.5.4-.5 1c.1.6.5.8.5.8z"/><path class="st19" d="M53.7 19.4l1.5-1s-.5-.1-1 .2c-.4.3-.5.8-.5.8"/><path class="st20" d="M53.7 19.4l1.5-1s-.5-.1-1 .2c-.4.3-.5.8-.5.8z"/><path class="st19" d="M59.9 17.8s.6.1 1 .2.8.3.8.3-.2-.5-.7-.7c-.6-.1-1.1.2-1.1.2"/><path class="st20" d="M59.9 17.8s.6.1 1 .2.8.3.8.3-.2-.5-.7-.7c-.6-.1-1.1.2-1.1.2z"/><path class="st19" d="M65.4 21.5s.3.5.4.9c.1.3.3.8.3.8s.2-.6.1-1c-.3-.6-.8-.7-.8-.7"/><path class="st20" d="M65.4 21.5s.3.5.4.9c.1.3.3.8.3.8s.2-.6.1-1c-.3-.6-.8-.7-.8-.7z"/><path class="st19" d="M66.5 27s-.1.6-.2 1-.3.9-.3.9.6-.3.8-.8c.1-.8-.3-1.1-.3-1.1"/><path class="st20" d="M66.5 27s-.1.6-.2 1-.3.9-.3.9.6-.3.8-.8c.1-.8-.3-1.1-.3-1.1z"/><path class="st19" d="M63.5 32.4l-.8.8c-.5.5-.9.8-.9.8s.8.2 1.4-.3c.6-.6.3-1.3.3-1.3"/><path class="st20" d="M63.5 32.4l-.8.8c-.5.5-.9.8-.9.8s.8.2 1.4-.3c.6-.6.3-1.3.3-1.3z"/><path class="st19" d="M58.3 36.7s-.8.7-1.2.9c-.3.2-1.1.7-1.1.7h.7c.3 0 .7 0 1-.2.3-.2.3-.7.4-1 .2-.2.2-.4.2-.4"/><path class="st20" d="M58.3 36.7s-.8.7-1.2.9c-.3.2-1.1.7-1.1.7h.7c.3 0 .7 0 1-.2.3-.2.3-.7.4-1 .2-.2.2-.4.2-.4z"/><path class="st21" d="M45.4 47.1l3.4 1.7-.4.8-3.4-1.7zm0 1.8l2 1-1.8 3.7-2.5-.3zm4.3-7.7c.4-.5 1-1.4 1.7-2.3.6-.8 1.3-1.5 2-2.2 1.1-1.2 2.3-1.8 4.3-3.3 1.1-.8 2.9-2.1 4-3.4 1.1-1.4 2-2.5 1.9-4.5-.1-2-1.2-3.8-3.2-4.5-2-.7-4.6-.3-6 2.3-1.1 2.1-.9 3.8.2 5 .9 1 1.8 1.3 1.8 1.3l-.5.4s-2.2-.5-2.8-2.8c-.5-2.1-.1-3.3.6-4.9.4-.8 1.4-2 3.6-2.4.3-.1 2.4-.3 3.8.5s2.1 1.5 2.7 2.8c.4.9.6 1.6.6 3.5 0 .8-.7 2.5-2.3 4.2-1.5 1.7-2.7 2.4-3.7 3.2-.9.8-2 1.4-2.7 2-.7.5-1.7 1.2-2.7 2.4-1 1.2-1.9 2.2-2.5 3.1-.6.9-1.6 2.6-2 3.3-.4.7-1.3 2.5-1.3 2.5l-.8-.4s1.7-3.1 2.2-4c.5-1.1 1.1-1.8 1.1-1.8"/><path class="st21" d="M47.6 47.4s1.7-3.3 2.8-4.8c1-1.5 1.6-2.3 2.4-3.3s2.1-2.1 3.1-2.8c1-.8 2-1.4 3-2.1s1.8-1.4 3.1-2.6c1.3-1.2 2.1-2.6 2.5-3.4.4-.8.7-2 .4-3.9-.3-1.9-1.5-3-2.2-3.6-.7-.6-2.5-1.5-4-1.4-1.5.1-3.1.5-4.5 1.9-1.3 1.4-1.6 3.2-1.5 4.5 0 1.3.5 2.4.8 3.2.2.6.5 1.2.5 1.9 0 1-.1 1.1-.1 1.1l-.6.5s.2-1 0-2.2c-.2-1.2-.7-1.9-1-3.1-.2-.7-.6-2.8-.2-4 .4-1.2.7-2.1 1.5-2.8.8-.8 1.9-1.5 3.3-1.8 1.4-.4 3.1-.2 4.1.1 1 .3 2 .8 3.2 2 1.1 1.2 1.5 2.6 1.8 3.9.2 1.2 0 3.3-1.2 5-1.1 1.7-2 2.7-3.5 3.8-1.5 1.2-2.2 1.8-3 2.3-.8.5-2.2 1.6-2.6 1.9-.8.6-1.8 1.7-2.7 2.9-.7.8-1.8 2.6-2.6 3.8-.7 1.2-1.8 3.3-1.8 3.3l-1-.3z"/><path class="st22" d="M24.8 53.7l-2.4-4.4.6-.4-1.1-2-.7.4-.2-.4 1.2-.7s-2.3-2.7-3.8-5-2.3-3.6-2.7-4.3c-.4-.6-1.5-2.8-1.5-2.8s3.8.5 4.2.5c.3 0 .8.1.8-.2 0-.3-.3-.4-.5-.6-.3-.1-3.6-1.8-3.6-1.8s2.3-1.1 3.1-1.4c1.2-.5 2.8-.8 2.8-.8l-2.9-5.4s-1.6 1.5-3.1 2.5-2 1.2-2 1.2.5-3.9.5-4.2c0-.3 0-.5-.2-.5s-.4.2-.5.4c-.1.2-1.7 3.6-1.7 3.6s-1.1-2.3-1.7-4.1c-.7-1.8-1.5-4.1-1.5-4.1l-6 3.3s2.2 2.8 3.3 4.5L7 29.7s-3.7-.5-4-.5c-.3 0-.5 0-.6.2-.1.2.1.4.4.5.3.1 3.7 1.8 3.7 1.8S5 32.5 3.9 33c-1.2.4-3.3 1-3.3 1l2.9 5.3s1.3-1.4 2.9-2.4c1.6-1.1 2.2-1.3 2.2-1.3s-.5 3.9-.5 4.2c0 .2 0 .5.2.6.2.1.4-.1.5-.3.1-.2 1.9-4 1.9-4s1.7 3.2 2.3 4.4c.6 1.2 1.7 3.8 2 4.5.3.7 1.1 3 1.3 3.5.1.5.3.9.3.9l1.2-.6.2.2-.7.4 1.1 2 .7-.4 1.6 3.1 4.1-.4z"/><path class="st21" d="M9.4 35.2l.7-.4.2.5-1.2 2.5zm-1.9-4.7l.3.5-.5.3-2.4-1.1zm6.2 2.3l.7-.3 2.3 1.2-2.7-.3zm-1.4-4.2l-.5.3-.3-.6 1.1-2.3z"/><path class="st21" d="M3 22.9s1.7-1 2.2-1.2c.5-.2 2.3-1.3 2.3-1.3s2 5.1 2.5 6.4c.5 1.2 1.4 3.1 1.4 3.1s2.4-1.1 3.7-2c1.3-.9 2.9-2.2 2.9-2.2l2 3.8s-2.2.6-4 1.5c-1.8.9-3.3 1.7-3.3 1.7s3.3 6 4.2 7.4c.9 1.4 2.3 3.4 2.7 4 .5.6 1.6 2 1.6 2L17 48.3s-.9-2.9-1.5-4.3-1.4-3.3-2.1-4.7c-.7-1.4-1.6-3.1-1.9-3.7-.3-.6-1-1.9-1-1.9s-3.1 1.8-3.5 2c-1.3.8-3.3 2.5-3.3 2.5l-2-3.8s1.9-.6 3-1.1c1.1-.5 4.1-2.2 4.1-2.2S6.7 27.9 6.1 27c-.6-.9-1.5-2.2-2-2.8-.5-.5-1.1-1.3-1.1-1.3"/><path class="st19" d="M6.3 24.5c-.5 0-1-.4-1-1s.4-1 1-1c.5 0 1 .4 1 1s-.5 1-1 1"/><path class="st22" d="M6.3 22.9c.3 0 .6.3.6.6s-.3.6-.6.6-.6-.3-.6-.6.2-.6.6-.6m0-.7c-.7 0-1.3.6-1.3 1.3 0 .7.6 1.3 1.3 1.3.7 0 1.3-.6 1.3-1.3 0-.7-.6-1.3-1.3-1.3"/><path class="st19" d="M16.9 29.7c-.5 0-1-.4-1-1s.4-1 1-1c.5 0 1 .4 1 1s-.5 1-1 1"/><path class="st22" d="M16.9 28.1c.3 0 .6.3.6.6s-.3.6-.6.6-.6-.3-.6-.6.2-.6.6-.6m0-.8c-.7 0-1.3.6-1.3 1.3 0 .7.6 1.3 1.3 1.3.7 0 1.3-.6 1.3-1.3 0-.7-.6-1.3-1.3-1.3"/><path class="st19" d="M4.9 36.2c-.5 0-1-.4-1-1s.4-1 1-1c.5 0 1 .4 1 1s-.5 1-1 1"/><path class="st22" d="M4.9 34.7c.3 0 .6.3.6.6s-.3.6-.6.6-.6-.3-.6-.6c-.1-.4.2-.6.6-.6m0-.8c-.7 0-1.3.6-1.3 1.3 0 .7.6 1.3 1.3 1.3.7 0 1.3-.6 1.3-1.3 0-.7-.6-1.3-1.3-1.3"/><path class="st19" d="M18.2 46.4c-.5 0-1-.4-1-1s.4-1 1-1c.5 0 1 .4 1 1s-.5 1-1 1"/><path class="st22" d="M18.2 44.8c.3 0 .6.3.6.6s-.3.6-.6.6-.6-.3-.6-.6.3-.6.6-.6m0-.7c-.7 0-1.3.6-1.3 1.3 0 .7.6 1.3 1.3 1.3.7 0 1.3-.6 1.3-1.3.1-.7-.6-1.3-1.3-1.3"/><path class="st19" d="M10.8 32.9c-.5 0-1-.4-1-1s.4-1 1-1c.5 0 1 .4 1 1s-.4 1-1 1"/><path class="st22" d="M10.8 31.4c.3 0 .6.3.6.6s-.3.6-.6.6-.6-.3-.6-.6c0-.4.3-.6.6-.6m0-.8c-.7 0-1.3.6-1.3 1.3 0 .7.6 1.3 1.3 1.3.7 0 1.3-.6 1.3-1.3.1-.7-.5-1.3-1.3-1.3"/><path class="st21" d="M4 21.5c-.3 0-.6-.1-.7-.3-.2-.3.1-1 .9-1.5.4-.2.7-.3 1.1-.3.3 0 .6.1.7.3.2.3-.1 1-.9 1.5-.4.2-.8.3-1.1.3z"/><path class="st22" d="M5.3 19.8c.2 0 .3.1.3.1s0 .1-.1.3c-.1.2-.4.5-.7.7-.3.2-.6.3-.9.3-.2 0-.3-.1-.3-.1-.1-.1.1-.6.8-1 .3-.2.6-.3.9-.3m0-.7c-.4 0-.8.1-1.3.4-.9.5-1.4 1.4-1 2 .2.3.5.5 1 .5.4 0 .8-.1 1.3-.4.9-.5 1.4-1.4 1-2-.2-.4-.6-.5-1-.5"/><path class="st21" d="M20.6 28.2c-.3 0-.9-.3-1.3-1-.4-.8-.4-1.5 0-1.7.1 0 .1-.1.2-.1.3 0 .9.3 1.3 1 .4.8.4 1.5 0 1.7 0 .1-.1.1-.2.1z"/><path class="st22" d="M19.6 25.8c.2 0 .6.2.9.8.4.6.3 1.2.2 1.2-.2 0-.6-.2-.9-.8-.5-.6-.4-1.1-.2-1.2-.1 0 0 0 0 0m0-.7c-.2 0-.3 0-.4.1-.6.3-.6 1.3-.1 2.2.4.7 1 1.1 1.6 1.1.1 0 .3 0 .4-.1.6-.3.6-1.3.1-2.2-.5-.7-1.1-1.1-1.6-1.1"/><defs><path id="SVGID_11_" d="M.1 14.6h67.3v90H.1z"/></defs><clipPath id="SVGID_12_"><use xlink:href="#SVGID_11_" overflow="visible"/></clipPath><path class="st23" d="M2.1 38.3c-.3 0-.9-.3-1.3-1-.4-.8-.4-1.5 0-1.7.1 0 .1-.1.2-.1.3 0 .9.3 1.3 1 .4.8.4 1.5 0 1.7-.1.1-.2.1-.2.1z"/><path class="st24" d="M1 35.9c.2 0 .6.2.9.8.4.6.3 1.2.2 1.2-.2 0-.6-.2-.9-.8-.2-.3-.3-.7-.3-.9 0-.1 0-.2.1-.3m0-.7c-.2 0-.3 0-.4.1-.6.3-.6 1.3-.1 2.3.4.7 1 1.1 1.6 1.1.1 0 .3 0 .4-.1.6-.3.6-1.3.1-2.2-.4-.8-1.1-1.2-1.6-1.2"/><path d="M5.7 34.3l3.9-2.1.3.7L6 35zm6-3.3l4-2.1.3.7-3.9 2zm-4.5-6.6l3.4 6.3-.6.4-3.5-6.4zm4.5 8.4l6.2 11.4-.6.3-6.2-11.4zm10.7 60.3l-2.7 5.3-.7-.4-1 2.1.8.4-.1 4.1 3.2-2.6.8.4 1-2-.6-.4 2.6-5.3z"/><path class="st10" d="M22.8 93.8s.7.4 1.1.6l.9.4-2.4 4.9-2.1-1 2.5-4.9zM19.4 99l3.4 1.7-.3.8-3.5-1.8zm.2 1.9l1.6.7-1.7 1.4z"/><path d="M46.2 93.1l2.8 5.2.7-.4 1.1 2-.9.5.4 4.1L47 102l-.8.4-1.2-2 .7-.4-2.7-5z"/><path class="st10" d="M43.8 95l1-.5c.5-.3.9-.6.9-.6l2.7 4.7-2 1.1-2.6-4.7zm2.2 5.7l3.4-1.9.4.8-3.4 1.9zm1.7.9l1.6-.9.1 2.2z"/><path d="M13.2 66.1s.4-.3.2-.8c-.1-.5-.5-.5-.5-.5s-.3-1.2-.3-2.1c0-.9.1-1.3 0-1.8-.2-.4-.6-.7-1.2-.5-.7.3-.9 1-.9 1s-.4-.4-.9-.3c-.5.1-.7 1-.7 1s-.5-.6-1.2-.3c-.5.2-.5.9-.5.9s-.3-.3-.9-.2c-.6.1-.6.9-.6.9s-.3-.3-.8-.1c-.5.2-.3 1.8-.2 2.3.1.5.5 1.3 1 2.1s1.2 1.5 1.2 1.5.6 2.3 1.9 3.9 2.5 2.3 3.7 2.6c1.3.3 3 .1 3 .1h.4l-.6-5.4-.4-.3s-.7-1.2-1.1-2.2c-.4-1-.6-1.8-.6-1.8"/><path class="st13" d="M15.3 74.3l.1.9s-.6.1-1.6 0-1.5-.4-1.5-.4 1.2 0 1.9-.2c.7-.1 1.1-.3 1.1-.3"/><path class="st12" d="M14.1 70.3s.3.5.5.8l.4.6s0 .8.1 1.1c0 .3.1.7.1.7l-.4.1s-.9-.6-1.3-1.2-.8-1.3-.8-1.3.6-.4.8-.5c.3 0 .6-.3.6-.3m-1.6 3.9s-.6-.6-.9-1c-.3-.4-.7-1-.7-1l-1.5.7s.8.9 1.2 1.1c.4.1 1.1.2 1.4.2h.5M11 67.4l1.6-.8s.2.7.4 1.1c.1.4.3.8.3.8l-1.4.9-.9-2zm-1.8.9l.8 2.1-1.6.8-.5-1c-.2-.6-.3-1.1-.3-1.1l1.6-.8z"/><path class="st15" d="M9.5 68.2l1.2-.6s.5 1.3.6 1.6c.1.3.4.7.4.7s.9-.5 1.2-.6c.3-.2.5-.3.5-.3s.2.4.3.7c.1 0 .3.3.3.3s-.6.4-1 .6l-.8.4s.6 1.2 1.1 1.8c.5.6 1.2 1.1 1.2 1.1s-.5.2-.9.2h-.7s-.7-.7-1.1-1.3l-.8-1.2-1.8 1s-.3-.2-.4-.5c-.2-.3-.3-.6-.3-.6l1.2-.6.8-.4s-.6-1.3-.7-1.5c-.1-.3-.3-.8-.3-.8"/><path class="st10" d="M12.4 65.6l.1.5-5.1 2.6-.3-.3zm-.1-.6s-.3-1.3-.3-2.1.1-1.5.1-1.7c0-.1-.2-.3-.5 0s-.4.9-.4 2.1c0 1.2.3 2.2.3 2.2l.8-.5zm-1.2.7s-.4-1-.5-1.9c-.1-.9-.2-1.5-.2-1.5s-.1-.2-.3-.3l-.2-.1s-.2-.1-.4.7c-.2.8-.1 1-.1 1.4s.1 1.3.3 1.7c.1.4.3.8.3.8l1.1-.8zm-1.4.8s-.4-.6-.6-1.5c-.2-.9-.1-1.3-.2-1.5 0-.2 0-.5-.2-.6-.2-.1-.5-.4-.5-.4s-.2.1-.2.7c-.1.6-.1.9 0 1.7.1.8.6 1.6.6 1.6h-.3s-.5-.6-.8-1.5c-.4-.9-.4-1.4-.4-1.4s-.1-.1-.3-.2c-.2-.1-.3-.2-.3 0s-.1 1-.1 1.5.2 1.1.2 1.4l.2.6s-.2 0-.2-.1c-.1-.1-.5-.9-.6-1.4-.1-.4-.2-.8-.2-.9 0-.1-.2-.3-.3-.4-.1-.1-.2-.2-.2.2s.1 1.2.2 1.6c.1.5.8 1.4.9 1.6.1.2.4.6.5.6l.6-.3c.1-.1 2.2-1.3 2.2-1.3"/><path d="M55.7 66.1s-.4-.3-.2-.8c.1-.5.5-.5.5-.5s.3-1.2.3-2.1c0-.9-.1-1.3 0-1.8.2-.4.6-.7 1.2-.5.7.3.9 1 .9 1s.4-.4.9-.3c.5.1.7 1 .7 1s.5-.6 1.2-.3c.5.2.5.9.5.9s.3-.3.9-.2c.6.1.6.9.6.9s.3-.3.8-.1c.5.2.3 1.8.2 2.3-.1.5-.5 1.3-1 2.1-.5.7-1.2 1.5-1.2 1.5s-.6 2.3-1.9 3.9c-1.3 1.6-2.5 2.3-3.7 2.6-1.3.3-3 .1-3 .1H53l.5-5 .5-.6s.7-1.2 1.1-2.2c.4-1 .6-1.9.6-1.9"/><path class="st13" d="M53.5 74.3l-.1.8s.8.2 1.7.1c1-.1 1.4-.3 1.4-.3s-1.2 0-1.9-.2c-.5-.2-1.1-.4-1.1-.4"/><path class="st12" d="M54.9 70.4c0 .1-.4.6-.6.9-.2.3-.5.8-.5.8s-.1.7-.1 1v.6l.5.2s.8-.6 1.3-1.1c.4-.6.9-1.3.9-1.3s-.6-.4-.8-.5c-.4-.4-.7-.6-.7-.6m1.6 3.8s.6-.6.9-1c.3-.4.7-1 .7-1l1.4.7s-.8 1-1.2 1.1c-.4.1-1 .2-1.3.2h-.5m1.5-6.7l-1.6-.8s-.2.7-.4 1.1c-.1.4-.3.8-.3.8l1.5.9.8-2zm1.8.8l-.8 2 1.6.8s.2-.3.4-.9c.2-.6.4-1.1.4-1.1l-1.6-.8z"/><path class="st15" d="M59.4 68.2l-1.2-.6s-.5 1.3-.6 1.6c-.1.3-.4.7-.4.7s-.9-.5-1.2-.6c-.3-.2-.5-.3-.5-.3s-.2.4-.3.7c-.1.2-.3.5-.3.5s.6.4 1 .6l.8.4s-.6 1.2-1.1 1.8c-.5.6-1.2 1.1-1.2 1.1s.5.2.9.2h.7s.7-.7 1.1-1.3l.8-1.2 1.8 1s.3-.2.4-.5c.2-.3.3-.6.3-.6l-1.2-.6-.8-.4s.6-1.3.7-1.5c.2-.5.3-1 .3-1"/><path class="st10" d="M56.7 65.6l-.2.5 5.1 2.6.3-.3zm.1-.6s.3-1.2.3-2.1v-1.7c0-.1.2-.3.4 0 .3.3.4.8.3 2 0 1.2-.3 2.2-.3 2.2l-.7-.4zm1.1.7c-.1 0 .4-1 .5-1.9.2-.9.1-1.5.1-1.5s.1-.2.3-.3l.2-.1s.2-.1.3.7c.2.8.2 1.1.1 1.5 0 .4-.2 1.2-.3 1.7-.1.4-.2.7-.2.7l-1-.8zm1.4.9s.4-.6.6-1.5c.2-.9.2-1.2.2-1.5 0-.2-.1-.5.1-.7.2-.1.5-.4.5-.4s.2.1.3.7c.1.6.1.9 0 1.7-.1.8-.6 1.6-.6 1.6h.3s.5-.6.8-1.5c.4-.9.4-1.4.4-1.4s.1-.2.3-.3c.2-.1.4-.2.4.1 0 .2.1 1 0 1.5 0 .5-.2 1.1-.3 1.3l-.2.6s.2 0 .2-.1c.1-.1.5-.9.7-1.3.1-.4.3-.8.3-.9 0-.1.1-.3.2-.4.1-.1.2-.2.2.2s0 .9-.3 1.6c-.2.4-.8 1.4-.9 1.6-.1.2-.4.6-.5.6l-.6-.3c-.1-.1-2.1-1.2-2.1-1.2"/><path d="M14.2 55.5s9-2.3 20.2-2.3 20.2 2.2 20.2 2.2-1.2 19.3-1.6 21.5c-.3 2.3-.6 5.4-1.9 9.9-1 3.5-5.7 9.9-16.2 9.9-10.4 0-16.2-5.7-17.5-10-1.3-4.2-2.6-18.9-2.6-19.9 0-.9-.6-11.3-.6-11.3"/><path class="st25" d="M14.2 55.5s9-2.3 20.2-2.3 20.2 2.2 20.2 2.2-1.2 19.3-1.6 21.5c-.3 2.3-.6 5.4-1.9 9.9-1 3.5-5.7 9.9-16.2 9.9-10.4 0-16.2-5.7-17.5-10-1.3-4.2-2.6-18.9-2.6-19.9 0-.9-.6-11.3-.6-11.3z"/><path class="st15" d="M55.2 32.2c-.5 0-.9-.4-.9-.9s.4-.9.9-.9.9.4.9.9-.4.9-.9.9"/><path d="M55.2 30.5c.4 0 .8.3.8.8 0 .4-.3.8-.8.8-.4 0-.8-.3-.8-.8 0-.4.4-.8.8-.8m0-.3c-.6 0-1.1.5-1.1 1.1 0 .6.5 1.1 1.1 1.1.6 0 1.1-.5 1.1-1.1 0-.6-.5-1.1-1.1-1.1"/><path class="st10" d="M21.7 49.7l-1.9 1 1.6 3.1 2.5-.3zm.4-1.1l-3.4 1.9-.4-.8 3.4-1.9zm-1.7-1.4l.2.4-1.9 1.1-.3-.4z"/><path class="st12" d="M14.2 55.6s10.6-2.4 20.1-2.4c9.6 0 20.2 2.2 20.2 2.2l-.8 12.5s-7.6-1.3-19.4-1.3c-11.8 0-19.2 1.3-19.2 1.3l-.9-12.3z"/><path class="st25" d="M14.2 55.6s10.6-2.4 20.1-2.4c9.6 0 20.2 2.2 20.2 2.2l-.8 12.5s-7.6-1.3-19.4-1.3c-11.8 0-19.2 1.3-19.2 1.3l-.9-12.3z"/><path class="st10" d="M20.5 54.8l1.3 4 3.3-2.9-2 3.9 4.4.4-4.3 1.3 2.9 3.2-3.9-2-.3 4.2-1.3-4-3.3 2.8 2-3.7-4.2-.4 4-1.3-2.9-3.4 4 2.2z"/><path class="st26" d="M20.5 54.8l1.3 4 3.3-2.9-2 3.9 4.4.4-4.3 1.3 2.9 3.2-3.9-2-.3 4.2-1.3-4-3.3 2.8 2-3.7-4.2-.4 4-1.3-2.9-3.4 4 2.2z"/><path class="st10" d="M48.4 54.4l.4 4.3 4-2-3 3.3 4.3 1.5-4.6.3 2.1 3.9-3.4-2.9-1.3 4.1-.3-4.3-4 2 2.9-3.3-4.1-1.4 4.3-.3-2-4.1 3.4 3.1z"/><path class="st26" d="M48.4 54.4l.4 4.3 4-2-3 3.3 4.3 1.5-4.6.3 2.1 3.9-3.4-2.9-1.3 4.1-.3-4.3-4 2 2.9-3.3-4.1-1.4 4.3-.3-2-4.1 3.4 3.1z"/><path class="st10" d="M34.4 53.6l1 4.2 3.7-2.6-2.5 3.8 4.4.8-4.4.9 2.6 3.7-3.8-2.5-.7 4.3-.9-4.2-3.7 2.5 2.4-3.7-4.3-.7 4.3-1-2.6-3.7 3.8 2.5z"/><path class="st26" d="M34.4 53.6l1 4.2 3.7-2.6-2.5 3.8 4.4.8-4.4.9 2.6 3.7-3.8-2.5-.7 4.3-.9-4.2-3.7 2.5 2.4-3.7-4.3-.7 4.3-1-2.6-3.7 3.8 2.5z"/><path class="st10" d="M34 68.7l1.1.5s-.7 1.2-.8 1.9v2.1h-.5s-.5-1.3-.5-2.6c0-1.2.7-1.9.7-1.9m-1.3 1.4s.2 1-1.3 1.2c-1.5.2-3.3.4-4.1.8s-1.6 1.1-1.6 1.1 0-2 .9-3c.8-1.1 2.3-1.3 3.2-1.1.9.2 2 .7 2 .7s-2.3-.2-3.5.3c-1.3.6-1.7 1.7-1.7 1.7s1-1.4 3.1-1.7c.8-.1 1.3.1 2.1.1.6-.1.9-.1.9-.1"/><path class="st10" d="M34.1 73.8c1 0 1.2-.7 3-.8 1.8 0 2.6 2.3 2.3 3.8-.4 1.8-2.2 3.8-3.3 3.8-1.1 0-.7-.6-2-.8-.8-.1-1.1.8-1.8.8-.9 0-2.6-1.3-3.2-3.3-.6-2 .2-4.1 2.3-4.3 1.1 0 1.5.8 2.7.8m-8.2 6.1l1.1-.7s.8.7 1 2c.2 1.4-.2 2.7-.2 2.7l-.4.1s0-1.1-.4-2.3c-.5-1.4-1.1-1.8-1.1-1.8m-.1.6s-.4.7-1.4.7c-.9 0-2-.1-2.7.2-.7.2-1 .8-1.2 1.2-.2.4-.3.9-.3.9s.7-1.6 2-1.6c1.3-.1 1.5.1 2.1 0 .6-.1 1.3-.6 1.3-.6s-.2 1-1.4 1.7c-1.1.7-1.8.5-2.7.7-1.1.2-2.2 1.5-2.2 1.5s-.6-2.6.6-3.7 2.3-.8 3.2-.8c.9 0 1.6.1 2 0 .5-.1.7-.2.7-.2"/><path class="st10" d="M27.6 84.6c1.2-.1 1.4-1 3-1.1 1.6-.1 2.7 1.6 2.6 3.3-.1 2.1-1.7 4.3-3 4.4-.8 0-.9-.6-1.8-.5-1 .1-.9 1.1-1.9 1.1-1-.1-3.4-1.6-3.8-3.8-.5-2.2.9-3.8 2.6-3.7 1.5 0 1.1.4 2.3.3m14.1-5.4l1.2.7s-.8.9-1.1 2c-.3 1.1-.4 2.2-.4 2.2l-.5-.1s-.4-1.5-.2-2.7c.3-1.3 1-2.1 1-2.1m1.4 1.3s.7.4 2 .2c1.3-.1 2.4-.3 3.3.4.9.7 1.1 1.7 1.1 2.6 0 .9-.1 1.5-.1 1.5s-.9-1.2-2-1.4c-1-.3-1.6.1-2.8-.7-1.2-.8-1.5-1.7-1.5-1.7s.9.6 1.6.6c.7.1 1.1-.3 2.2 0 1 .3 1.7 1.6 1.7 1.6s-.1-1.3-1.1-1.9c-1-.6-1.3-.1-2.6-.3-1.7-.3-1.8-.9-1.8-.9"/><path class="st10" d="M41.1 84.6c.9.1 1.7-.7 3.3-.3 1.6.5 2.1 2.5 1.6 4-.6 1.6-2.1 2.8-2.7 3-.6.3-.7.3-1.2.3-.5-.1-1-.9-1.8-1-.9-.1-1.1.7-1.9.6-.9-.1-2.6-1.9-2.8-4-.2-2.2 1-3.6 2.8-3.6 1.3-.1 1.6.8 2.7 1"/></svg>